<?xml version="1.0" encoding="UTF-8" standalone="yes"?>
<!-- Created with sK1/UniConvertor (http://sk1project.org/) -->
<svg xmlns="http://www.w3.org/2000/svg" xmlns:xlink="http://www.w3.org/1999/xlink"
  width="595.276pt" height="841.89pt" viewBox="0 0 595.276 841.89"
  fill-rule="evenodd">
<g>
<path style="stroke:#000000; stroke-width:0.850394; stroke-linejoin:round; stroke-linecap:round; fill:none" d="M 492.644 759.547C 492.644 752.923 487.267 747.547 480.644 747.547C 474.02 747.547 468.644 752.923 468.644 759.547C 468.644 766.171 474.02 771.547 480.644 771.547C 487.267 771.547 492.644 766.171 492.644 759.547z"/>
<path style="stroke:#000000; stroke-width:0.850394; stroke-linejoin:round; stroke-linecap:round; fill:none" d="M 498.644 808.913C 498.644 807.533 497.524 806.413 496.144 806.413C 494.764 806.413 493.644 807.533 493.644 808.913C 493.644 810.293 494.764 811.413 496.144 811.413C 497.524 811.413 498.644 810.293 498.644 808.913z"/>
<path style="stroke:#000000; stroke-width:0.850394; stroke-linejoin:round; stroke-linecap:round; fill:none" d="M -463.544 744.047C -463.544 743.164 -464.261 742.447 -465.144 742.447C -466.027 742.447 -466.744 743.164 -466.744 744.047C -466.744 744.93 -466.027 745.647 -465.144 745.647C -464.261 745.647 -463.544 744.93 -463.544 744.047z"/>
<path style="stroke:#000000; stroke-width:0.850394; stroke-linejoin:round; stroke-linecap:round; fill:none" d="M -132.235 1305.74L -132.235 1302.03"/>
<path style="stroke:#000000; stroke-width:0.850394; stroke-linejoin:round; stroke-linecap:round; fill:none" d="M -132.235 1343.03L -132.235 1339.33"/>
<path style="stroke:#000000; stroke-width:0.850394; stroke-linejoin:round; stroke-linecap:round; fill:none" d="M 467.644 808.913C 467.644 807.533 466.524 806.413 465.144 806.413C 463.764 806.413 462.644 807.533 462.644 808.913C 462.644 810.293 463.764 811.413 465.144 811.413C 466.524 811.413 467.644 810.293 467.644 808.913z"/>
<path style="stroke:#000000; stroke-width:0.850394; stroke-linejoin:round; stroke-linecap:round; fill:none" d="M -132.235 1343.03L -132.235 1343.03"/>
<path style="stroke:#000000; stroke-width:0.850394; stroke-linejoin:round; stroke-linecap:round; fill:none" d="M -463.544 775.047C -463.544 774.164 -464.261 773.447 -465.144 773.447C -466.027 773.447 -466.744 774.164 -466.744 775.047C -466.744 775.93 -466.027 776.647 -465.144 776.647C -464.261 776.647 -463.544 775.93 -463.544 775.047z"/>
<path style="stroke:#000000; stroke-width:0.850394; stroke-linejoin:round; stroke-linecap:round; fill:none" d="M -132.235 1302.03L -132.235 1302.03"/>
<path style="stroke:#000000; stroke-width:0.850394; stroke-linejoin:round; stroke-linecap:round; fill:none" d="M 467.644 788.913C 467.644 787.533 466.524 786.413 465.144 786.413C 463.764 786.413 462.644 787.533 462.644 788.913C 462.644 790.293 463.764 791.413 465.144 791.413C 466.524 791.413 467.644 790.293 467.644 788.913z"/>
<path style="stroke:#000000; stroke-width:0.850394; stroke-linejoin:round; stroke-linecap:round; fill:none" d="M -132.235 1322.53L -132.235 1322.53"/>
<path style="stroke:#000000; stroke-width:0.850394; stroke-linejoin:round; stroke-linecap:round; fill:none" d="M -494.544 775.047C -494.544 774.164 -495.261 773.447 -496.144 773.447C -497.027 773.447 -497.744 774.164 -497.744 775.047C -497.744 775.93 -497.027 776.647 -496.144 776.647C -495.261 776.647 -494.544 775.93 -494.544 775.047z"/>
<path style="stroke:#000000; stroke-width:0.850394; stroke-linejoin:round; stroke-linecap:round; fill:none" d="M -132.235 1339.33L -132.235 1305.74"/>
<path style="stroke:#000000; stroke-width:0.850394; stroke-linejoin:round; stroke-linecap:round; fill:none" d="M 498.644 788.913C 498.644 787.533 497.524 786.413 496.144 786.413C 494.764 786.413 493.644 787.533 493.644 788.913C 493.644 790.293 494.764 791.413 496.144 791.413C 497.524 791.413 498.644 790.293 498.644 788.913z"/>
<path style="stroke:#000000; stroke-width:0.850394; stroke-linejoin:round; stroke-linecap:round; fill:none" d="M -132.235 1302.03L -132.235 1343.03"/>
<path style="stroke:#000000; stroke-width:0.850394; stroke-linejoin:round; stroke-linecap:round; fill:none" d="M -494.544 744.047C -494.544 743.164 -495.261 742.447 -496.144 742.447C -497.027 742.447 -497.744 743.164 -497.744 744.047C -497.744 744.93 -497.027 745.647 -496.144 745.647C -495.261 745.647 -494.544 744.93 -494.544 744.047z"/>
</g>
</svg>