<?xml version="1.0" encoding="UTF-8" standalone="no"?>
<svg
   viewBox="0 0 793.7007874015749 1122.5196850393702"
   width="793.7007874015749"
   height="1122.5196850393702"
   version="1.1"
   id="svg19055"
   sodipodi:docname="motor_thingy_v4.svg"
   inkscape:version="1.2.2 (b0a84865, 2022-12-01)"
   xmlns:inkscape="http://www.inkscape.org/namespaces/inkscape"
   xmlns:sodipodi="http://sodipodi.sourceforge.net/DTD/sodipodi-0.dtd"
   xmlns="http://www.w3.org/2000/svg"
   xmlns:svg="http://www.w3.org/2000/svg">
  <sodipodi:namedview
     id="namedview19057"
     pagecolor="#ffffff"
     bordercolor="#000000"
     borderopacity="0.25"
     inkscape:showpageshadow="2"
     inkscape:pageopacity="0.0"
     inkscape:pagecheckerboard="0"
     inkscape:deskcolor="#d1d1d1"
     showgrid="false"
     inkscape:zoom="0.38278555"
     inkscape:cx="491.13662"
     inkscape:cy="342.22818"
     inkscape:window-width="1309"
     inkscape:window-height="456"
     inkscape:window-x="108"
     inkscape:window-y="164"
     inkscape:window-maximized="0"
     inkscape:current-layer="g19053" />
  <desc
     id="desc19017">motor_thingy_v4.dxf - scale = 1.000000, origin = (0.000000, 0.000000), method = manual</desc>
  <defs
     id="defs19031">
    <marker
       id="DistanceX"
       orient="auto"
       refX="0.0"
       refY="0.0"
       style="overflow:visible">
      <path
         d="M 3,-3 L -3,3 M 0,-5 L  0,5"
         style="stroke:#000000; stroke-width:0.5"
         id="path19019" />
    </marker>
    <pattern
       id="Hatch"
       patternUnits="userSpaceOnUse"
       width="8"
       height="8"
       x="0"
       y="0">
      <path
         d="M8 4 l-4,4"
         stroke="#000000"
         stroke-width="0.25"
         linecap="square"
         id="path19022" />
      <path
         d="M6 2 l-4,4"
         stroke="#000000"
         stroke-width="0.25"
         linecap="square"
         id="path19024" />
      <path
         d="M4 0 l-4,4"
         stroke="#000000"
         stroke-width="0.25"
         linecap="square"
         id="path19026" />
    </pattern>
    <symbol
       id="*MODEL_SPACE" />
    <symbol
       id="*PAPER_SPACE" />
  </defs>
  <g
     inkscape:groupmode="layer"
     inkscape:label="0"
     id="g19053">
    <path
       d="M 387.00229,588.10274 H 232.04166 V 295.97212 L 246.05277,281.961 h 126.93841 l 14.01111,14.01112 z"
       style="fill:none;stroke:#ff0000;stroke-opacity:1;stroke-width:0.96;stroke-dasharray:none"
       id="path19033" />
    <path
       d="m 374.1519,300.85864 a 6.047244,6.047244 0 0 0 -12.09449,0 6.047244,6.047244 0 0 0 12.09449,0 z"
       style="fill:none;stroke:#ff0000;stroke-opacity:1;stroke-width:0.96;stroke-dasharray:none"
       id="path19035" />
    <path
       d="m 354.87631,359.44132 a 45.354331,45.354331 0 0 0 -90.70867,0 45.354331,45.354331 0 0 0 90.70867,0 z"
       style="fill:none;stroke:#ff0000;stroke-opacity:1;stroke-width:0.96;stroke-dasharray:none"
       id="path19037" />
    <path
       d="m 256.98654,300.85864 a 6.047244,6.047244 0 0 0 -12.09449,0 6.047244,6.047244 0 0 0 12.09449,0 z"
       style="fill:none;stroke:#ff0000;stroke-opacity:1;stroke-width:0.96;stroke-dasharray:none"
       id="path19039" />
    <path
       d="m 256.98654,418.024 a 6.047244,6.047244 0 0 0 -12.09449,0 6.047244,6.047244 0 0 0 12.09449,0 z"
       style="fill:none;stroke:#ff0000;stroke-opacity:1;stroke-width:0.96;stroke-dasharray:none"
       id="path19041" />
    <path
       d="m 374.1519,418.024 a 6.047244,6.047244 0 0 0 -12.09449,0 6.047244,6.047244 0 0 0 12.09449,0 z"
       style="fill:none;stroke:#ff0000;stroke-opacity:1;stroke-width:0.96;stroke-dasharray:none"
       id="path19043" />
    <path
       d="m 377.55347,470.43229 a 9.448819,9.448819 0 0 0 -18.89764,0 9.448819,9.448819 0 0 0 18.89764,0 z"
       style="fill:none;stroke:#ff0000;stroke-opacity:1;stroke-width:0.96;stroke-dasharray:none"
       id="path19045" />
    <path
       d="m 260.38812,470.43229 a 9.448819,9.448819 0 0 0 -18.89764,0 9.448819,9.448819 0 0 0 18.89764,0 z"
       style="fill:none;stroke:#ff0000;stroke-opacity:1;stroke-width:0.96;stroke-dasharray:none"
       id="path19047" />
    <path
       d="m 260.38812,546.02284 a 9.448819,9.448819 0 0 0 -18.89764,0 9.448819,9.448819 0 0 0 18.89764,0 z"
       style="fill:none;stroke:#ff0000;stroke-opacity:1;stroke-width:0.96;stroke-dasharray:none"
       id="path19049" />
    <path
       d="m 377.55347,546.02284 a 9.448819,9.448819 0 0 0 -18.89764,0 9.448819,9.448819 0 0 0 18.89764,0 z"
       style="fill:none;stroke:#ff0000;stroke-opacity:1;stroke-width:0.96;stroke-dasharray:none"
       id="path19051" />
  </g>
</svg>
