  0
SECTION
  2
HEADER
  9
$ACADVER
  1
AC1006
  9
$EXTMIN
 10
0.000000
 20
0.000000
 30
0.000000
  9
$EXTMAX
 10
1200.000000
 20
1477.000000
 30
0.000000
  0
ENDSEC
  0
SECTION
  2
ENTITIES
  0
POLYLINE
  8
0
 66
1
 70
1
  0
VERTEX
  8
0
 10
489.500000
 20
1475.856756
 42
0.007383
  0
VERTEX
  8
0
 10
467.894940
 20
1473.210182
 42
0.015869
  0
VERTEX
  8
0
 10
451.356174
 20
1470.398557
 42
0.016899
  0
VERTEX
  8
0
 10
435.688721
 20
1466.665256
 42
0.009609
  0
VERTEX
  8
0
 10
417.000000
 20
1461.150673
 42
0.037860
  0
VERTEX
  8
0
 10
364.346494
 20
1440.008156
 42
0.043019
  0
VERTEX
  8
0
 10
317.819244
 20
1411.896341
 42
0.044321
  0
VERTEX
  8
0
 10
277.968781
 20
1377.080499
 42
0.045200
  0
VERTEX
  8
0
 10
245.167670
 20
1336.000000
 42
0.016573
  0
VERTEX
  8
0
 10
237.831136
 20
1324.042378
 42
0.010706
  0
VERTEX
  8
0
 10
230.102574
 20
1309.751879
 42
0.010691
  0
VERTEX
  8
0
 10
223.299746
 20
1295.775258
 42
0.025452
  0
VERTEX
  8
0
 10
219.008037
 20
1285.052048
 42
0.016569
  0
VERTEX
  8
0
 10
217.082772
 20
1278.754077
 42
0.035500
  0
VERTEX
  8
0
 10
216.110718
 20
1273.768811
 42
0.020047
  0
VERTEX
  8
0
 10
215.574462
 20
1267.204403
 42
0.002361
  0
VERTEX
  8
0
 10
215.036478
 20
1252.552048
 42
-0.004998
  0
VERTEX
  8
0
 10
214.328311
 20
1235.690065
 42
-0.044432
  0
VERTEX
  8
0
 10
213.286471
 20
1228.338207
 42
-0.066875
  0
VERTEX
  8
0
 10
211.051730
 20
1222.457006
 42
-0.018421
  0
VERTEX
  8
0
 10
206.007429
 20
1213.916806
 42
0.016910
  0
VERTEX
  8
0
 10
201.126651
 20
1205.710184
 42
0.024166
  0
VERTEX
  8
0
 10
197.408571
 20
1198.098873
 42
0.024190
  0
VERTEX
  8
0
 10
194.444857
 20
1190.170023
 42
0.016991
  0
VERTEX
  8
0
 10
191.853989
 20
1181.000000
 42
0.050610
  0
VERTEX
  8
0
 10
190.817379
 20
1173.657190
 42
0.009719
  0
VERTEX
  8
0
 10
190.552477
 20
1160.195620
 42
0.009973
  0
VERTEX
  8
0
 10
190.818262
 20
1146.710695
 42
0.046331
  0
VERTEX
  8
0
 10
191.843978
 20
1139.000000
 42
0.002003
  0
VERTEX
  8
0
 10
193.718338
 20
1130.953173
 42
0.007376
  0
VERTEX
  8
0
 10
194.998648
 20
1125.888589
 42
0.008933
  0
VERTEX
  8
0
 10
196.300198
 20
1121.366175
 42
0.004067
  0
VERTEX
  8
0
 10
198.154924
 20
1115.500000
 42
0.008175
  0
VERTEX
  8
0
 10
199.698627
 20
1111.003625
 42
0.002948
  0
VERTEX
  8
0
 10
202.035389
 20
1104.660399
 42
0.002923
  0
VERTEX
  8
0
 10
204.677237
 20
1097.740633
 42
0.003469
  0
VERTEX
  8
0
 10
207.255746
 20
1091.237529
 42
0.000000
  0
VERTEX
  8
0
 10
213.430271
 20
1075.975058
 42
0.000000
  0
VERTEX
  8
0
 10
208.237925
 20
1066.169777
 42
0.010301
  0
VERTEX
  8
0
 10
205.996491
 20
1061.717627
 42
0.006446
  0
VERTEX
  8
0
 10
203.548652
 20
1056.420983
 42
0.006468
  0
VERTEX
  8
0
 10
201.271320
 20
1051.139191
 42
0.011709
  0
VERTEX
  8
0
 10
199.565822
 20
1046.751513
 42
0.011530
  0
VERTEX
  8
0
 10
197.253085
 20
1039.870725
 42
0.010675
  0
VERTEX
  8
0
 10
195.195869
 20
1032.712317
 42
0.006657
  0
VERTEX
  8
0
 10
192.759061
 20
1022.973399
 42
0.001537
  0
VERTEX
  8
0
 10
188.922922
 20
1006.500000
 42
-0.008583
  0
VERTEX
  8
0
 10
187.337999
 20
1000.103397
 42
-0.055785
  0
VERTEX
  8
0
 10
186.135624
 20
997.017182
 42
-0.064220
  0
VERTEX
  8
0
 10
184.341394
 20
994.456702
 42
-0.013417
  0
VERTEX
  8
0
 10
180.532877
 20
990.500000
 42
-0.046520
  0
VERTEX
  8
0
 10
166.007051
 20
978.640802
 42
-0.012417
  0
VERTEX
  8
0
 10
140.793877
 20
962.591161
 42
-0.013066
  0
VERTEX
  8
0
 10
114.131528
 20
947.470042
 42
-0.031521
  0
VERTEX
  8
0
 10
93.500000
 20
938.089020
 42
0.000990
  0
VERTEX
  8
0
 10
91.056236
 20
937.153216
 42
0.001065
  0
VERTEX
  8
0
 10
88.675000
 20
936.230114
 42
0.001006
  0
VERTEX
  8
0
 10
86.633893
 20
935.429125
 42
0.005082
  0
VERTEX
  8
0
 10
85.500000
 20
934.968144
 42
-0.022068
  0
VERTEX
  8
0
 10
77.420139
 20
931.998874
 42
-0.012185
  0
VERTEX
  8
0
 10
67.319284
 20
929.054120
 42
-0.012144
  0
VERTEX
  8
0
 10
56.948594
 20
926.570939
 42
-0.019574
  0
VERTEX
  8
0
 10
48.000000
 20
925.020238
 42
0.013222
  0
VERTEX
  8
0
 10
33.211553
 20
922.650620
 42
0.071512
  0
VERTEX
  8
0
 10
25.532329
 20
920.036528
 42
0.207697
  0
VERTEX
  8
0
 10
22.774843
 20
916.697779
 42
0.218587
  0
VERTEX
  8
0
 10
23.407616
 20
912.500652
 42
0.125444
  0
VERTEX
  8
0
 10
25.677430
 20
910.423225
 42
0.062436
  0
VERTEX
  8
0
 10
29.340673
 20
909.015534
 42
0.037471
  0
VERTEX
  8
0
 10
34.998141
 20
908.060340
 42
0.010341
  0
VERTEX
  8
0
 10
44.000000
 20
907.414043
 42
-0.011363
  0
VERTEX
  8
0
 10
49.466995
 20
907.010302
 42
-0.012581
  0
VERTEX
  8
0
 10
54.726604
 20
906.367545
 42
-0.013325
  0
VERTEX
  8
0
 10
59.624603
 20
905.509551
 42
-0.017956
  0
VERTEX
  8
0
 10
64.000000
 20
904.457490
 42
0.012328
  0
VERTEX
  8
0
 10
67.796661
 20
903.499269
 42
0.008209
  0
VERTEX
  8
0
 10
72.189729
 20
902.580591
 42
0.008266
  0
VERTEX
  8
0
 10
76.484010
 20
901.829295
 42
0.015986
  0
VERTEX
  8
0
 10
79.943757
 20
901.395623
 42
-0.012315
  0
VERTEX
  8
0
 10
83.816414
 20
900.939043
 42
-0.039532
  0
VERTEX
  8
0
 10
86.348658
 20
900.370101
 42
-0.057941
  0
VERTEX
  8
0
 10
88.182688
 20
899.560328
 42
-0.063550
  0
VERTEX
  8
0
 10
89.719680
 20
898.371230
 42
-0.067136
  0
VERTEX
  8
0
 10
91.013746
 20
896.673650
 42
-0.086666
  0
VERTEX
  8
0
 10
91.674306
 20
894.831835
 42
-0.041360
  0
VERTEX
  8
0
 10
91.928160
 20
891.980086
 42
-0.005181
  0
VERTEX
  8
0
 10
91.901747
 20
885.769532
 42
0.007512
  0
VERTEX
  8
0
 10
91.904403
 20
879.271057
 42
0.046031
  0
VERTEX
  8
0
 10
92.263478
 20
875.941475
 42
0.055944
  0
VERTEX
  8
0
 10
93.206178
 20
873.010620
 42
0.014152
  0
VERTEX
  8
0
 10
95.392122
 20
868.500000
 42
-0.030503
  0
VERTEX
  8
0
 10
98.025944
 20
862.579669
 42
-0.034477
  0
VERTEX
  8
0
 10
99.796528
 20
856.617477
 42
-0.034955
  0
VERTEX
  8
0
 10
100.713756
 20
850.543046
 42
-0.033110
  0
VERTEX
  8
0
 10
100.800012
 20
844.287848
 42
-0.015203
  0
VERTEX
  8
0
 10
100.518581
 20
840.897102
 42
-0.080070
  0
VERTEX
  8
0
 10
100.016632
 20
839.104449
 42
-0.103241
  0
VERTEX
  8
0
 10
99.034511
 20
837.781395
 42
-0.033668
  0
VERTEX
  8
0
 10
97.102117
 20
836.284226
 42
-0.038300
  0
VERTEX
  8
0
 10
95.390261
 20
835.314748
 42
-0.035994
  0
VERTEX
  8
0
 10
93.515203
 20
834.594431
 42
-0.035928
  0
VERTEX
  8
0
 10
91.552609
 20
834.149386
 42
-0.037810
  0
VERTEX
  8
0
 10
89.579961
 20
834.000000
 42
-0.106584
  0
VERTEX
  8
0
 10
85.402541
 20
834.900725
 42
-0.073178
  0
VERTEX
  8
0
 10
81.309921
 20
837.528754
 42
-0.041643
  0
VERTEX
  8
0
 10
76.383763
 20
842.602562
 42
-0.009855
  0
VERTEX
  8
0
 10
69.072001
 20
851.875585
 42
0.004393
  0
VERTEX
  8
0
 10
62.509317
 20
860.388211
 42
0.027515
  0
VERTEX
  8
0
 10
58.885077
 20
864.515713
 42
0.059181
  0
VERTEX
  8
0
 10
56.434380
 20
866.485327
 42
0.235508
  0
VERTEX
  8
0
 10
54.569920
 20
866.665204
 42
0.305814
  0
VERTEX
  8
0
 10
53.828515
 20
865.606277
 42
0.089449
  0
VERTEX
  8
0
 10
54.164221
 20
863.541334
 42
0.019765
  0
VERTEX
  8
0
 10
55.872606
 20
859.253053
 42
0.000959
  0
VERTEX
  8
0
 10
62.135330
 20
845.250000
 42
0.003627
  0
VERTEX
  8
0
 10
63.244457
 20
842.829864
 42
0.001201
  0
VERTEX
  8
0
 10
64.906231
 20
839.294381
 42
0.001196
  0
VERTEX
  8
0
 10
66.767159
 20
835.383989
 42
0.001359
  0
VERTEX
  8
0
 10
68.569633
 20
831.645765
 42
-0.011261
  0
VERTEX
  8
0
 10
71.086223
 20
826.150952
 42
-0.021677
  0
VERTEX
  8
0
 10
72.808017
 20
821.626260
 42
-0.021265
  0
VERTEX
  8
0
 10
74.151843
 20
816.912883
 42
-0.010402
  0
VERTEX
  8
0
 10
75.481397
 20
810.807291
 42
0.065177
  0
VERTEX
  8
0
 10
75.961091
 20
809.377887
 42
0.013940
  0
VERTEX
  8
0
 10
77.176969
 20
807.052798
 42
0.014346
  0
VERTEX
  8
0
 10
78.749690
 20
804.419548
 42
0.013229
  0
VERTEX
  8
0
 10
80.512183
 20
801.807291
 42
-0.016146
  0
VERTEX
  8
0
 10
84.275948
 20
796.158081
 42
-0.021344
  0
VERTEX
  8
0
 10
87.309015
 20
790.770385
 42
-0.022370
  0
VERTEX
  8
0
 10
89.409236
 20
786.133880
 42
-0.094387
  0
VERTEX
  8
0
 10
89.990231
 20
783.151129
 42
-0.083592
  0
VERTEX
  8
0
 10
89.510301
 20
780.226267
 42
-0.044803
  0
VERTEX
  8
0
 10
88.017386
 20
776.874033
 42
-0.035649
  0
VERTEX
  8
0
 10
85.525372
 20
773.068704
 42
-0.019232
  0
VERTEX
  8
0
 10
81.958902
 20
768.743250
 42
0.015707
  0
VERTEX
  8
0
 10
80.060098
 20
766.473146
 42
0.019813
  0
VERTEX
  8
0
 10
78.456678
 20
764.253261
 42
0.018277
  0
VERTEX
  8
0
 10
77.276422
 20
762.325460
 42
0.128910
  0
VERTEX
  8
0
 10
77.000000
 20
761.271128
 42
0.053329
  0
VERTEX
  8
0
 10
77.137266
 20
759.987814
 42
0.002846
  0
VERTEX
  8
0
 10
78.028933
 20
755.977881
 42
0.004437
  0
VERTEX
  8
0
 10
79.160967
 20
751.215437
 42
0.003216
  0
VERTEX
  8
0
 10
80.502749
 20
745.931385
 42
-0.009278
  0
VERTEX
  8
0
 10
83.417899
 20
733.838539
 42
-0.009718
  0
VERTEX
  8
0
 10
85.833974
 20
721.830815
 42
-0.009779
  0
VERTEX
  8
0
 10
87.523373
 20
711.333344
 42
-0.035865
  0
VERTEX
  8
0
 10
87.982636
 20
704.620473
 42
-0.033135
  0
VERTEX
  8
0
 10
87.602174
 20
699.165745
 42
-0.017804
  0
VERTEX
  8
0
 10
86.450638
 20
692.516659
 42
-0.017635
  0
VERTEX
  8
0
 10
84.784290
 20
685.776232
 42
-0.025882
  0
VERTEX
  8
0
 10
82.809802
 20
680.000000
 42
-0.038496
  0
VERTEX
  8
0
 10
77.152194
 20
668.525654
 42
-0.048857
  0
VERTEX
  8
0
 10
70.169911
 20
659.002902
 42
-0.053618
  0
VERTEX
  8
0
 10
62.111956
 20
651.742937
 42
-0.067121
  0
VERTEX
  8
0
 10
53.252085
 20
646.992385
 42
-0.015942
  0
VERTEX
  8
0
 10
49.808123
 20
645.827131
 42
-0.052753
  0
VERTEX
  8
0
 10
47.459806
 20
645.378021
 42
-0.052917
  0
VERTEX
  8
0
 10
45.073323
 20
645.430960
 42
-0.016113
  0
VERTEX
  8
0
 10
41.500000
 20
646.008128
 42
-0.044651
  0
VERTEX
  8
0
 10
34.208188
 20
648.117591
 42
-0.049896
  0
VERTEX
  8
0
 10
27.690166
 20
651.433081
 42
-0.039480
  0
VERTEX
  8
0
 10
20.841427
 20
656.630693
 42
-0.016060
  0
VERTEX
  8
0
 10
12.355457
 20
664.699727
 42
0.002541
  0
VERTEX
  8
0
 10
8.039506
 20
669.031724
 42
0.004070
  0
VERTEX
  8
0
 10
4.306771
 20
672.680545
 42
0.000932
  0
VERTEX
  8
0
 10
1.012527
 20
675.836901
 42
0.192880
  0
VERTEX
  8
0
 10
0.605457
 20
676.000000
 42
0.357087
  0
VERTEX
  8
0
 10
0.366388
 20
675.804311
 42
0.016172
  0
VERTEX
  8
0
 10
0.177853
 20
674.682853
 42
0.020877
  0
VERTEX
  8
0
 10
0.043604
 20
673.235162
 42
0.012681
  0
VERTEX
  8
0
 10
0.000000
 20
671.516096
 42
0.076624
  0
VERTEX
  8
0
 10
0.762187
 20
666.571772
 42
0.019742
  0
VERTEX
  8
0
 10
3.503926
 20
658.951619
 42
0.020839
  0
VERTEX
  8
0
 10
7.094057
 20
651.051322
 42
0.033635
  0
VERTEX
  8
0
 10
10.862171
 20
644.699777
 42
0.064691
  0
VERTEX
  8
0
 10
16.345808
 20
638.595545
 42
0.057058
  0
VERTEX
  8
0
 10
23.432150
 20
633.792024
 42
0.050166
  0
VERTEX
  8
0
 10
32.271689
 20
630.246331
 42
0.032889
  0
VERTEX
  8
0
 10
43.000000
 20
627.898272
 42
0.042484
  0
VERTEX
  8
0
 10
52.101834
 20
627.307665
 42
0.017355
  0
VERTEX
  8
0
 10
64.488456
 20
627.987442
 42
0.017271
  0
VERTEX
  8
0
 10
77.543868
 20
629.615597
 42
0.024462
  0
VERTEX
  8
0
 10
89.000000
 20
632.027746
 42
-0.004381
  0
VERTEX
  8
0
 10
98.384846
 20
634.400879
 42
-0.002483
  0
VERTEX
  8
0
 10
109.789199
 20
637.118694
 42
-0.000757
  0
VERTEX
  8
0
 10
121.305618
 20
639.784496
 42
-0.056550
  0
VERTEX
  8
0
 10
123.204956
 20
640.000000
 42
-0.119215
  0
VERTEX
  8
0
 10
123.997053
 20
639.808418
 42
-0.036777
  0
VERTEX
  8
0
 10
125.052559
 20
639.163981
 42
-0.034447
  0
VERTEX
  8
0
 10
126.167070
 20
638.243146
 42
-0.031750
  0
VERTEX
  8
0
 10
127.177522
 20
637.153977
 42
0.008924
  0
VERTEX
  8
0
 10
128.707977
 20
635.345397
 42
0.000755
  0
VERTEX
  8
0
 10
132.737889
 20
630.765930
 42
0.001002
  0
VERTEX
  8
0
 10
137.564622
 20
625.319689
 42
0.000775
  0
VERTEX
  8
0
 10
142.845078
 20
619.403977
 42
-0.010817
  0
VERTEX
  8
0
 10
161.960803
 20
597.102798
 42
-0.078079
  0
VERTEX
  8
0
 10
169.104341
 20
584.943152
 42
-0.191668
  0
VERTEX
  8
0
 10
169.074391
 20
576.192832
 42
-0.130671
  0
VERTEX
  8
0
 10
163.046431
 20
568.130936
 42
-0.031182
  0
VERTEX
  8
0
 10
160.030986
 20
566.038834
 42
-0.006309
  0
VERTEX
  8
0
 10
154.411248
 20
562.734136
 42
-0.006634
  0
VERTEX
  8
0
 10
147.765184
 20
559.054014
 42
-0.006166
  0
VERTEX
  8
0
 10
140.860866
 20
555.458660
 42
0.000000
  0
VERTEX
  8
0
 10
123.810267
 20
546.845341
 42
0.000000
  0
VERTEX
  8
0
 10
114.655133
 20
550.051786
 42
-0.030486
  0
VERTEX
  8
0
 10
98.864990
 20
556.687533
 42
-0.066345
  0
VERTEX
  8
0
 10
87.973271
 20
564.000451
 42
-0.081809
  0
VERTEX
  8
0
 10
80.803675
 20
572.798590
 42
-0.071577
  0
VERTEX
  8
0
 10
76.424705
 20
583.839119
 42
-0.031011
  0
VERTEX
  8
0
 10
75.886325
 20
586.925802
 42
-0.009340
  0
VERTEX
  8
0
 10
75.448422
 20
591.672080
 42
-0.009114
  0
VERTEX
  8
0
 10
75.146434
 20
597.147797
 42
-0.008545
  0
VERTEX
  8
0
 10
75.035622
 20
602.750000
 42
0.003631
  0
VERTEX
  8
0
 10
74.963883
 20
609.959369
 42
0.024439
  0
VERTEX
  8
0
 10
74.727784
 20
613.527097
 42
0.054165
  0
VERTEX
  8
0
 10
74.294212
 20
615.437519
 42
0.320163
  0
VERTEX
  8
0
 10
73.505825
 20
616.000000
 42
0.271340
  0
VERTEX
  8
0
 10
72.000181
 20
615.117978
 42
0.012060
  0
VERTEX
  8
0
 10
69.061377
 20
609.566056
 42
0.016614
  0
VERTEX
  8
0
 10
65.704097
 20
602.235862
 42
0.008947
  0
VERTEX
  8
0
 10
62.032573
 20
593.000000
 42
-0.000235
  0
VERTEX
  8
0
 10
60.748699
 20
589.598898
 42
-0.000284
  0
VERTEX
  8
0
 10
59.540909
 20
586.409375
 42
-0.000240
  0
VERTEX
  8
0
 10
58.521390
 20
583.725539
 42
-0.001956
  0
VERTEX
  8
0
 10
58.049669
 20
582.500000
 42
0.032380
  0
VERTEX
  8
0
 10
57.672745
 20
581.309416
 42
0.005315
  0
VERTEX
  8
0
 10
57.119018
 20
578.957613
 42
0.005829
  0
VERTEX
  8
0
 10
56.528332
 20
576.171935
 42
0.005114
  0
VERTEX
  8
0
 10
55.975152
 20
573.249320
 42
0.014125
  0
VERTEX
  8
0
 10
55.366013
 20
569.179934
 42
0.030797
  0
VERTEX
  8
0
 10
55.180767
 20
566.031025
 42
0.031150
  0
VERTEX
  8
0
 10
55.384511
 20
562.905480
 42
0.014781
  0
VERTEX
  8
0
 10
56.015478
 20
558.917968
 42
0.044856
  0
VERTEX
  8
0
 10
58.045669
 20
551.753945
 42
0.075233
  0
VERTEX
  8
0
 10
61.126381
 20
546.322881
 42
0.053365
  0
VERTEX
  8
0
 10
66.418984
 20
540.895148
 42
0.013146
  0
VERTEX
  8
0
 10
76.230426
 20
533.200204
 42
-0.006894
  0
VERTEX
  8
0
 10
81.636018
 20
529.068796
 42
-0.007215
  0
VERTEX
  8
0
 10
86.843255
 20
524.851036
 42
-0.006966
  0
VERTEX
  8
0
 10
91.234358
 20
521.083177
 42
-0.031490
  0
VERTEX
  8
0
 10
93.619545
 20
518.694880
 42
-0.046431
  0
VERTEX
  8
0
 10
96.320977
 20
514.981940
 42
-0.030765
  0
VERTEX
  8
0
 10
98.731946
 20
510.290208
 42
-0.031042
  0
VERTEX
  8
0
 10
100.459585
 20
505.573619
 42
-0.072388
  0
VERTEX
  8
0
 10
101.000000
 20
501.860415
 42
-0.200049
  0
VERTEX
  8
0
 10
100.351111
 20
500.303496
 42
-0.094417
  0
VERTEX
  8
0
 10
98.512257
 20
499.064945
 42
-0.065665
  0
VERTEX
  8
0
 10
95.643783
 20
498.260775
 42
-0.035562
  0
VERTEX
  8
0
 10
91.981953
 20
498.000000
 42
0.042460
  0
VERTEX
  8
0
 10
88.853337
 20
497.733839
 42
0.045381
  0
VERTEX
  8
0
 10
85.886281
 20
496.943150
 42
0.037551
  0
VERTEX
  8
0
 10
82.677511
 20
495.486265
 42
0.017695
  0
VERTEX
  8
0
 10
78.763574
 20
493.157896
 42
-0.013229
  0
VERTEX
  8
0
 10
76.419474
 20
491.734923
 42
-0.100523
  0
VERTEX
  8
0
 10
75.198722
 20
491.332067
 42
-0.140884
  0
VERTEX
  8
0
 10
74.102410
 20
491.510729
 42
-0.034656
  0
VERTEX
  8
0
 10
72.493689
 20
492.412178
 42
-0.024521
  0
VERTEX
  8
0
 10
71.109972
 20
493.419100
 42
-0.004788
  0
VERTEX
  8
0
 10
68.727462
 20
495.376191
 42
-0.005074
  0
VERTEX
  8
0
 10
65.992544
 20
497.714599
 42
-0.004679
  0
VERTEX
  8
0
 10
63.230115
 20
500.171391
 42
0.015552
  0
VERTEX
  8
0
 10
57.980800
 20
504.639334
 42
0.039092
  0
VERTEX
  8
0
 10
53.825405
 20
507.457333
 42
0.057827
  0
VERTEX
  8
0
 10
50.718478
 20
508.779144
 42
0.274637
  0
VERTEX
  8
0
 10
48.921583
 20
508.321583
 42
0.263925
  0
VERTEX
  8
0
 10
48.425696
 20
506.525037
 42
0.049770
  0
VERTEX
  8
0
 10
49.625675
 20
503.198736
 42
0.035354
  0
VERTEX
  8
0
 10
52.193227
 20
498.676324
 42
0.013973
  0
VERTEX
  8
0
 10
56.321903
 20
492.831339
 42
-0.012940
  0
VERTEX
  8
0
 10
61.009693
 20
486.223807
 42
-0.033154
  0
VERTEX
  8
0
 10
63.946866
 20
481.151561
 42
-0.043350
  0
VERTEX
  8
0
 10
65.709856
 20
476.632418
 42
-0.043543
  0
VERTEX
  8
0
 10
66.663963
 20
471.883697
 42
0.047886
  0
VERTEX
  8
0
 10
67.873567
 20
466.122365
 42
0.045067
  0
VERTEX
  8
0
 10
70.172886
 20
460.571614
 42
0.041420
  0
VERTEX
  8
0
 10
73.633479
 20
455.119757
 42
0.029959
  0
VERTEX
  8
0
 10
78.317284
 20
449.651434
 42
0.027727
  0
VERTEX
  8
0
 10
83.051409
 20
445.265989
 42
0.066023
  0
VERTEX
  8
0
 10
87.107134
 20
442.723886
 42
0.070842
  0
VERTEX
  8
0
 10
91.504886
 20
441.427881
 42
0.036007
  0
VERTEX
  8
0
 10
97.267445
 20
441.005577
 42
-0.051582
  0
VERTEX
  8
0
 10
107.516129
 20
439.933344
 42
-0.015911
  0
VERTEX
  8
0
 10
122.622013
 20
436.250548
 42
-0.008568
  0
VERTEX
  8
0
 10
137.712596
 20
431.778726
 42
-0.244251
  0
VERTEX
  8
0
 10
140.501305
 20
428.995889
 42
-0.165265
  0
VERTEX
  8
0
 10
140.465239
 20
427.214100
 42
-0.008587
  0
VERTEX
  8
0
 10
138.389213
 20
421.780932
 42
-0.009068
  0
VERTEX
  8
0
 10
135.025625
 20
413.831793
 42
-0.002277
  0
VERTEX
  8
0
 10
129.249321
 20
401.000000
 42
0.010450
  0
VERTEX
  8
0
 10
124.824495
 20
390.725013
 42
0.035818
  0
VERTEX
  8
0
 10
122.579694
 20
383.815659
 42
0.062175
  0
VERTEX
  8
0
 10
122.050157
 20
379.361897
 42
0.308936
  0
VERTEX
  8
0
 10
123.409743
 20
377.396261
 42
0.189384
  0
VERTEX
  8
0
 10
125.535141
 20
377.413111
 42
0.053237
  0
VERTEX
  8
0
 10
128.519158
 20
378.999523
 42
0.037006
  0
VERTEX
  8
0
 10
132.317594
 20
382.002588
 42
0.014400
  0
VERTEX
  8
0
 10
137.120195
 20
386.675962
 42
0.020935
  0
VERTEX
  8
0
 10
143.076557
 20
393.353560
 42
0.026092
  0
VERTEX
  8
0
 10
148.002996
 20
400.049108
 42
0.027702
  0
VERTEX
  8
0
 10
151.957226
 20
406.848059
 42
0.030455
  0
VERTEX
  8
0
 10
154.998059
 20
413.834937
 42
-0.011961
  0
VERTEX
  8
0
 10
156.168237
 20
416.820668
 42
-0.015647
  0
VERTEX
  8
0
 10
157.386839
 20
419.486656
 42
-0.013200
  0
VERTEX
  8
0
 10
158.517884
 20
421.625516
 42
-0.124442
  0
VERTEX
  8
0
 10
159.228057
 20
422.372057
 42
-0.234019
  0
VERTEX
  8
0
 10
161.153476
 20
422.571046
 42
-0.016422
  0
VERTEX
  8
0
 10
166.318266
 20
420.450315
 42
-0.015340
  0
VERTEX
  8
0
 10
171.348214
 20
418.001058
 42
-0.291642
  0
VERTEX
  8
0
 10
172.177402
 20
416.550947
 42
-0.246290
  0
VERTEX
  8
0
 10
171.913864
 20
416.102267
 42
-0.013097
  0
VERTEX
  8
0
 10
170.438515
 20
415.236721
 42
-0.018087
  0
VERTEX
  8
0
 10
168.549819
 20
414.281599
 42
-0.011953
  0
VERTEX
  8
0
 10
166.317455
 20
413.316313
 42
0.013970
  0
VERTEX
  8
0
 10
164.008675
 20
412.306916
 42
0.016395
  0
VERTEX
  8
0
 10
161.882176
 20
411.219005
 42
0.015436
  0
VERTEX
  8
0
 10
160.157948
 20
410.193546
 42
0.090366
  0
VERTEX
  8
0
 10
159.387824
 20
409.479470
 42
0.092153
  0
VERTEX
  8
0
 10
158.916043
 20
408.525115
 42
0.014501
  0
VERTEX
  8
0
 10
158.402923
 20
406.484341
 42
0.015686
  0
VERTEX
  8
0
 10
157.938203
 20
404.014148
 42
0.013123
  0
VERTEX
  8
0
 10
157.596749
 20
401.368265
 42
-0.044615
  0
VERTEX
  8
0
 10
156.251804
 20
394.422492
 42
-0.093381
  0
VERTEX
  8
0
 10
153.784522
 20
389.524872
 42
-0.080423
  0
VERTEX
  8
0
 10
149.441780
 20
385.418628
 42
-0.026811
  0
VERTEX
  8
0
 10
141.929424
 20
380.881700
 42
0.037936
  0
VERTEX
  8
0
 10
135.988394
 20
377.111055
 42
0.084658
  0
VERTEX
  8
0
 10
132.310884
 20
373.245847
 42
0.148293
  0
VERTEX
  8
0
 10
131.245517
 20
369.766906
 42
0.223829
  0
VERTEX
  8
0
 10
132.565834
 20
366.945362
 42
0.189617
  0
VERTEX
  8
0
 10
134.553833
 20
366.291105
 42
0.067148
  0
VERTEX
  8
0
 10
137.548325
 20
366.869930
 42
0.044160
  0
VERTEX
  8
0
 10
141.566260
 20
368.632031
 42
0.016885
  0
VERTEX
  8
0
 10
146.823324
 20
371.749978
 42
-0.019642
  0
VERTEX
  8
0
 10
152.981030
 20
375.356353
 42
-0.030952
  0
VERTEX
  8
0
 10
158.550466
 20
377.901532
 42
-0.034339
  0
VERTEX
  8
0
 10
163.930147
 20
379.554567
 42
-0.034063
  0
VERTEX
  8
0
 10
169.500000
 20
380.461228
 42
0.015796
  0
VERTEX
  8
0
 10
175.876421
 20
381.261513
 42
0.050329
  0
VERTEX
  8
0
 10
180.022799
 20
382.351306
 42
0.074192
  0
VERTEX
  8
0
 10
182.922679
 20
383.957060
 42
0.077030
  0
VERTEX
  8
0
 10
185.184994
 20
386.321999
 42
-0.015167
  0
VERTEX
  8
0
 10
186.770725
 20
388.452693
 42
-0.038583
  0
VERTEX
  8
0
 10
188.079828
 20
389.865664
 42
-0.055455
  0
VERTEX
  8
0
 10
189.211679
 20
390.700684
 42
-0.126603
  0
VERTEX
  8
0
 10
190.226208
 20
390.984687
 42
-0.241032
  0
VERTEX
  8
0
 10
191.387002
 20
390.421153
 42
-0.002803
  0
VERTEX
  8
0
 10
196.640641
 20
383.367771
 42
-0.009053
  0
VERTEX
  8
0
 10
201.642778
 20
376.308657
 42
-0.017753
  0
VERTEX
  8
0
 10
205.317346
 20
370.484867
 42
-0.035789
  0
VERTEX
  8
0
 10
210.190365
 20
360.545140
 42
-0.065989
  0
VERTEX
  8
0
 10
212.435578
 20
351.842529
 42
-0.077239
  0
VERTEX
  8
0
 10
212.167265
 20
343.829587
 42
-0.070461
  0
VERTEX
  8
0
 10
209.500000
 20
336.000000
 42
0.046304
  0
VERTEX
  8
0
 10
207.443754
 20
330.798772
 42
0.046962
  0
VERTEX
  8
0
 10
206.392017
 20
325.332544
 42
0.036202
  0
VERTEX
  8
0
 10
206.232524
 20
318.648007
 42
0.014396
  0
VERTEX
  8
0
 10
206.941549
 20
309.494586
 42
0.015648
  0
VERTEX
  8
0
 10
208.825597
 20
295.867609
 42
0.021003
  0
VERTEX
  8
0
 10
211.432491
 20
283.677513
 42
0.022602
  0
VERTEX
  8
0
 10
214.858368
 20
272.518688
 42
0.024381
  0
VERTEX
  8
0
 10
219.204572
 20
262.000000
 42
0.050947
  0
VERTEX
  8
0
 10
227.610413
 20
248.052373
 42
0.053407
  0
VERTEX
  8
0
 10
238.546629
 20
236.334313
 42
0.057468
  0
VERTEX
  8
0
 10
250.823737
 20
227.964358
 42
0.084893
  0
VERTEX
  8
0
 10
263.195697
 20
223.944114
 42
0.035038
  0
VERTEX
  8
0
 10
270.188668
 20
223.420357
 42
0.014121
  0
VERTEX
  8
0
 10
279.767761
 20
223.645785
 42
0.014158
  0
VERTEX
  8
0
 10
289.349828
 20
224.414781
 42
0.033708
  0
VERTEX
  8
0
 10
296.380767
 20
225.663603
 42
0.051227
  0
VERTEX
  8
0
 10
311.960050
 20
231.271864
 42
0.021619
  0
VERTEX
  8
0
 10
331.594437
 20
241.773301
 42
0.021021
  0
VERTEX
  8
0
 10
351.894067
 20
254.968906
 42
0.024774
  0
VERTEX
  8
0
 10
369.886287
 20
269.164224
 42
-0.016165
  0
VERTEX
  8
0
 10
374.777175
 20
273.161458
 42
-0.026046
  0
VERTEX
  8
0
 10
379.214799
 20
276.202499
 42
-0.026293
  0
VERTEX
  8
0
 10
382.889334
 20
278.191475
 42
-0.196627
  0
VERTEX
  8
0
 10
384.828553
 20
278.298735
 42
-0.078873
  0
VERTEX
  8
0
 10
386.274558
 20
277.526586
 42
-0.052023
  0
VERTEX
  8
0
 10
387.654013
 20
276.236746
 42
-0.053491
  0
VERTEX
  8
0
 10
388.672505
 20
274.773676
 42
-0.125971
  0
VERTEX
  8
0
 10
389.000000
 20
273.494426
 42
-0.152133
  0
VERTEX
  8
0
 10
388.779106
 20
272.785239
 42
-0.006315
  0
VERTEX
  8
0
 10
387.225336
 20
270.592784
 42
-0.010450
  0
VERTEX
  8
0
 10
385.273350
 20
268.025410
 42
-0.007181
  0
VERTEX
  8
0
 10
382.958592
 20
265.193918
 42
0.023478
  0
VERTEX
  8
0
 10
378.599513
 20
259.492302
 42
0.050042
  0
VERTEX
  8
0
 10
375.914210
 20
254.643814
 42
0.057938
  0
VERTEX
  8
0
 10
374.480292
 20
249.839405
 42
0.043602
  0
VERTEX
  8
0
 10
374.000000
 20
244.342155
 42
0.039636
  0
VERTEX
  8
0
 10
374.389879
 20
239.431630
 42
0.066270
  0
VERTEX
  8
0
 10
375.576074
 20
235.468298
 42
0.073929
  0
VERTEX
  8
0
 10
377.638396
 20
232.256053
 42
0.063991
  0
VERTEX
  8
0
 10
380.639841
 20
229.598766
 42
0.077279
  0
VERTEX
  8
0
 10
385.902411
 20
227.104549
 42
0.237613
  0
VERTEX
  8
0
 10
389.670256
 20
227.783296
 42
0.133009
  0
VERTEX
  8
0
 10
392.823121
 20
231.832940
 42
0.020615
  0
VERTEX
  8
0
 10
396.396837
 20
241.448612
 42
-0.010845
  0
VERTEX
  8
0
 10
397.529994
 20
244.690097
 42
-0.018704
  0
VERTEX
  8
0
 10
398.630608
 20
247.327091
 42
-0.013772
  0
VERTEX
  8
0
 10
399.616551
 20
249.315384
 42
-0.433587
  0
VERTEX
  8
0
 10
400.090759
 20
249.443908
 42
-0.211863
  0
VERTEX
  8
0
 10
400.449345
 20
248.919394
 42
-0.014226
  0
VERTEX
  8
0
 10
400.734009
 20
247.081560
 42
-0.018494
  0
VERTEX
  8
0
 10
400.936257
 20
244.795348
 42
-0.012674
  0
VERTEX
  8
0
 10
401.003738
 20
242.190983
 42
0.051005
  0
VERTEX
  8
0
 10
401.623204
 20
236.167382
 42
0.103200
  0
VERTEX
  8
0
 10
403.515471
 20
231.814508
 42
0.066781
  0
VERTEX
  8
0
 10
407.561228
 20
227.463908
 42
0.012320
  0
VERTEX
  8
0
 10
416.206431
 20
220.703134
 42
-0.004913
  0
VERTEX
  8
0
 10
424.184623
 20
214.652266
 42
-0.025533
  0
VERTEX
  8
0
 10
428.375382
 20
211.051986
 42
-0.047745
  0
VERTEX
  8
0
 10
430.486152
 20
208.618840
 42
-0.301881
  0
VERTEX
  8
0
 10
430.537273
 20
207.060309
 42
-0.324586
  0
VERTEX
  8
0
 10
429.387822
 20
206.588483
 42
-0.074148
  0
VERTEX
  8
0
 10
427.321736
 20
207.428671
 42
-0.034209
  0
VERTEX
  8
0
 10
424.056376
 20
209.675348
 42
-0.007076
  0
VERTEX
  8
0
 10
418.652181
 20
214.092125
 42
0.011913
  0
VERTEX
  8
0
 10
414.517139
 20
217.405443
 42
0.047164
  0
VERTEX
  8
0
 10
411.755611
 20
219.126936
 42
0.054103
  0
VERTEX
  8
0
 10
408.910779
 20
220.181780
 42
0.019114
  0
VERTEX
  8
0
 10
404.652181
 20
221.083917
 42
0.045328
  0
VERTEX
  8
0
 10
396.176628
 20
221.762868
 42
0.013335
  0
VERTEX
  8
0
 10
383.128685
 20
221.275614
 42
0.012894
  0
VERTEX
  8
0
 10
370.220862
 20
220.113600
 42
0.053610
  0
VERTEX
  8
0
 10
362.607414
 20
218.389593
 42
0.104656
  0
VERTEX
  8
0
 10
354.873997
 20
213.771195
 42
0.108857
  0
VERTEX
  8
0
 10
349.805433
 20
206.473051
 42
0.107882
  0
VERTEX
  8
0
 10
348.245934
 20
197.664772
 42
0.101185
  0
VERTEX
  8
0
 10
350.432194
 20
188.784134
 42
0.050117
  0
VERTEX
  8
0
 10
352.493707
 20
185.369956
 42
0.034155
  0
VERTEX
  8
0
 10
355.457781
 20
181.932961
 42
0.029435
  0
VERTEX
  8
0
 10
359.343207
 20
178.441736
 42
0.019154
  0
VERTEX
  8
0
 10
364.202625
 20
174.862400
 42
-0.062115
  0
VERTEX
  8
0
 10
370.506104
 20
169.326864
 42
-0.049075
  0
VERTEX
  8
0
 10
375.843041
 20
161.976732
 42
-0.037024
  0
VERTEX
  8
0
 10
380.798184
 20
151.872573
 42
-0.015600
  0
VERTEX
  8
0
 10
385.997875
 20
137.660236
 42
0.015043
  0
VERTEX
  8
0
 10
389.183926
 20
128.921660
 42
0.050450
  0
VERTEX
  8
0
 10
391.997323
 20
123.524456
 42
0.071970
  0
VERTEX
  8
0
 10
395.226337
 20
119.879968
 42
0.059906
  0
VERTEX
  8
0
 10
399.553446
 20
117.030062
 42
-0.019643
  0
VERTEX
  8
0
 10
405.290191
 20
113.880985
 42
-0.031843
  0
VERTEX
  8
0
 10
409.864502
 20
110.718055
 42
-0.036865
  0
VERTEX
  8
0
 10
413.476685
 20
107.404341
 42
-0.045380
  0
VERTEX
  8
0
 10
416.294250
 20
103.804296
 42
0.023710
  0
VERTEX
  8
0
 10
417.903435
 20
101.553972
 42
0.016690
  0
VERTEX
  8
0
 10
419.912010
 20
99.176887
 42
0.016889
  0
VERTEX
  8
0
 10
421.991181
 20
97.027180
 42
0.033606
  0
VERTEX
  8
0
 10
423.800210
 20
95.500000
 42
-0.019742
  0
VERTEX
  8
0
 10
425.433765
 20
94.196717
 42
-0.019443
  0
VERTEX
  8
0
 10
426.968081
 20
92.762266
 42
-0.019744
  0
VERTEX
  8
0
 10
428.211098
 20
91.402738
 42
-0.067250
  0
VERTEX
  8
0
 10
428.853985
 20
90.392822
 42
-0.088479
  0
VERTEX
  8
0
 10
429.215516
 20
89.012050
 42
-0.011568
  0
VERTEX
  8
0
 10
429.387573
 20
85.967288
 42
-0.012817
  0
VERTEX
  8
0
 10
429.416247
 20
82.234217
 42
-0.009274
  0
VERTEX
  8
0
 10
429.264433
 20
78.076745
 42
0.000000
  0
VERTEX
  8
0
 10
428.701891
 20
67.867845
 42
0.000000
  0
VERTEX
  8
0
 10
435.677342
 20
61.042813
 42
0.042141
  0
VERTEX
  8
0
 10
444.426769
 20
53.817676
 42
0.067951
  0
VERTEX
  8
0
 10
453.027552
 20
49.445086
 42
0.042562
  0
VERTEX
  8
0
 10
465.048000
 20
46.381215
 42
0.008008
  0
VERTEX
  8
0
 10
487.500000
 20
43.022720
 42
-0.004646
  0
VERTEX
  8
0
 10
508.357293
 20
40.045993
 42
-0.002128
  0
VERTEX
  8
0
 10
535.514915
 20
35.793926
 42
-0.002055
  0
VERTEX
  8
0
 10
565.018026
 20
30.921441
 42
-0.002274
  0
VERTEX
  8
0
 10
593.500000
 20
25.963907
 42
-0.000005
  0
VERTEX
  8
0
 10
598.114781
 20
25.138974
 42
-0.000005
  0
VERTEX
  8
0
 10
602.884375
 20
24.286272
 42
-0.000005
  0
VERTEX
  8
0
 10
607.154383
 20
23.522802
 42
-0.000015
  0
VERTEX
  8
0
 10
610.000000
 20
23.013897
 42
-0.001350
  0
VERTEX
  8
0
 10
612.817462
 20
22.502085
 42
-0.000441
  0
VERTEX
  8
0
 10
616.968750
 20
21.732600
 42
-0.000440
  0
VERTEX
  8
0
 10
621.576676
 20
20.870069
 42
-0.000497
  0
VERTEX
  8
0
 10
626.000000
 20
20.033515
 42
0.000960
  0
VERTEX
  8
0
 10
630.675413
 20
19.153775
 42
0.000632
  0
VERTEX
  8
0
 10
636.059375
 20
18.158452
 42
0.000635
  0
VERTEX
  8
0
 10
641.301323
 20
17.203115
 42
0.001227
  0
VERTEX
  8
0
 10
645.500000
 20
16.454058
 42
-0.000551
  0
VERTEX
  8
0
 10
649.731916
 20
15.704974
 42
-0.000275
  0
VERTEX
  8
0
 10
655.087500
 20
14.747873
 42
-0.000273
  0
VERTEX
  8
0
 10
660.632281
 20
13.750695
 42
-0.000402
  0
VERTEX
  8
0
 10
665.500000
 20
12.868501
 42
0.001225
  0
VERTEX
  8
0
 10
670.114784
 20
12.039989
 42
0.001112
  0
VERTEX
  8
0
 10
674.884375
 20
11.206673
 42
0.001112
  0
VERTEX
  8
0
 10
679.154903
 20
10.480113
 42
0.003583
  0
VERTEX
  8
0
 10
682.000000
 20
10.023517
 42
-0.002572
  0
VERTEX
  8
0
 10
685.047288
 20
9.540789
 42
-0.000562
  0
VERTEX
  8
0
 10
690.290625
 20
8.676455
 42
-0.000585
  0
VERTEX
  8
0
 10
696.353900
 20
7.662673
 42
-0.000561
  0
VERTEX
  8
0
 10
702.500000
 20
6.620557
 42
0.000733
  0
VERTEX
  8
0
 10
708.756227
 20
5.561984
 42
0.000688
  0
VERTEX
  8
0
 10
715.150000
 20
4.498817
 42
0.000684
  0
VERTEX
  8
0
 10
720.824466
 20
3.571248
 42
0.002370
  0
VERTEX
  8
0
 10
724.500000
 20
2.993456
 42
-0.003746
  0
VERTEX
  8
0
 10
727.492465
 20
2.514600
 42
-0.003032
  0
VERTEX
  8
0
 10
730.696403
 20
1.957260
 42
-0.003064
  0
VERTEX
  8
0
 10
733.645482
 20
1.407130
 42
-0.007916
  0
VERTEX
  8
0
 10
735.764351
 20
0.963515
 42
0.054208
  0
VERTEX
  8
0
 10
743.173441
 20
0.115919
 42
0.001411
  0
VERTEX
  8
0
 10
776.536127
 20
0.023431
 42
0.002029
  0
VERTEX
  8
0
 10
808.949108
 20
0.156553
 42
0.033470
  0
VERTEX
  8
0
 10
819.731441
 20
0.967627
 42
-0.005706
  0
VERTEX
  8
0
 10
823.146718
 20
1.416166
 42
-0.002030
  0
VERTEX
  8
0
 10
828.036736
 20
1.981582
 42
-0.002014
  0
VERTEX
  8
0
 10
833.409498
 20
2.558825
 42
-0.002374
  0
VERTEX
  8
0
 10
838.500000
 20
3.060596
 42
0.007702
  0
VERTEX
  8
0
 10
843.751816
 20
3.634839
 42
0.005479
  0
VERTEX
  8
0
 10
849.618750
 20
4.433346
 42
0.005533
  0
VERTEX
  8
0
 10
855.201196
 20
5.318757
 42
0.011719
  0
VERTEX
  8
0
 10
859.500000
 20
6.153518
 42
-0.000101
  0
VERTEX
  8
0
 10
863.421020
 20
7.009905
 42
-0.000074
  0
VERTEX
  8
0
 10
867.765625
 20
7.957218
 42
-0.000075
  0
VERTEX
  8
0
 10
871.875090
 20
8.851980
 42
-0.000167
  0
VERTEX
  8
0
 10
875.000000
 20
9.530791
 42
0.005128
  0
VERTEX
  8
0
 10
877.867404
 20
10.183522
 42
0.003490
  0
VERTEX
  8
0
 10
881.116286
 20
10.982226
 42
0.003517
  0
VERTEX
  8
0
 10
884.240858
 20
11.796963
 42
0.007058
  0
VERTEX
  8
0
 10
886.693739
 20
12.492275
 42
-0.004664
  0
VERTEX
  8
0
 10
889.320542
 20
13.250499
 42
-0.001650
  0
VERTEX
  8
0
 10
893.095531
 20
14.288692
 42
-0.001637
  0
VERTEX
  8
0
 10
897.249998
 20
15.401920
 42
-0.001925
  0
VERTEX
  8
0
 10
901.193739
 20
16.428626
 42
0.007819
  0
VERTEX
  8
0
 10
909.772615
 20
18.770351
 42
0.003089
  0
VERTEX
  8
0
 10
921.499688
 20
22.248001
 42
0.003120
  0
VERTEX
  8
0
 10
933.358030
 20
25.925380
 42
0.006585
  0
VERTEX
  8
0
 10
942.500000
 20
28.956092
 42
0.022481
  0
VERTEX
  8
0
 10
949.542313
 20
31.754503
 42
0.032696
  0
VERTEX
  8
0
 10
955.442620
 20
34.890762
 42
0.037898
  0
VERTEX
  8
0
 10
959.874349
 20
38.119897
 42
0.101216
  0
VERTEX
  8
0
 10
962.270834
 20
41.184873
 42
0.028936
  0
VERTEX
  8
0
 10
963.212272
 20
43.386971
 42
0.077706
  0
VERTEX
  8
0
 10
963.534939
 20
45.055328
 42
0.060286
  0
VERTEX
  8
0
 10
963.372283
 20
46.976086
 42
0.012475
  0
VERTEX
  8
0
 10
962.598070
 20
50.284791
 42
0.019457
  0
VERTEX
  8
0
 10
961.720197
 20
53.187221
 42
0.005370
  0
VERTEX
  8
0
 10
960.115343
 20
57.676025
 42
0.005416
  0
VERTEX
  8
0
 10
958.186239
 20
62.725420
 42
0.005641
  0
VERTEX
  8
0
 10
956.173411
 20
67.663569
 42
-0.001310
  0
VERTEX
  8
0
 10
949.985253
 20
82.476840
 42
-0.004701
  0
VERTEX
  8
0
 10
946.147989
 20
91.982203
 42
-0.006762
  0
VERTEX
  8
0
 10
943.277009
 20
99.592022
 42
-0.006093
  0
VERTEX
  8
0
 10
940.508135
 20
107.544459
 42
-0.011859
  0
VERTEX
  8
0
 10
936.063136
 20
121.957401
 42
-0.029040
  0
VERTEX
  8
0
 10
933.670765
 20
132.789589
 42
-0.037292
  0
VERTEX
  8
0
 10
933.008347
 20
140.586490
 42
-0.201566
  0
VERTEX
  8
0
 10
934.580620
 20
144.437763
 42
-0.250199
  0
VERTEX
  8
0
 10
936.910980
 20
145.146051
 42
-0.140902
  0
VERTEX
  8
0
 10
939.609565
 20
143.757473
 42
-0.049998
  0
VERTEX
  8
0
 10
943.346327
 20
139.459787
 42
-0.008029
  0
VERTEX
  8
0
 10
949.626698
 20
130.274388
 42
0.009678
  0
VERTEX
  8
0
 10
956.980311
 20
119.595061
 42
0.187896
  0
VERTEX
  8
0
 10
960.282641
 20
117.445815
 42
0.492408
  0
VERTEX
  8
0
 10
962.062718
 20
118.974652
 42
0.024282
  0
VERTEX
  8
0
 10
961.147581
 20
127.873003
 42
-0.007224
  0
VERTEX
  8
0
 10
960.703646
 20
131.102894
 42
-0.006267
  0
VERTEX
  8
0
 10
960.329709
 20
134.500797
 42
-0.006317
  0
VERTEX
  8
0
 10
960.068556
 20
137.586213
 42
-0.018345
  0
VERTEX
  8
0
 10
959.993392
 20
139.725455
 42
0.000000
  0
VERTEX
  8
0
 10
960.000000
 20
143.950911
 42
0.000000
  0
VERTEX
  8
0
 10
977.347070
 20
143.323502
 42
0.003960
  0
VERTEX
  8
0
 10
985.050455
 20
143.105960
 42
0.010754
  0
VERTEX
  8
0
 10
990.511524
 20
143.112481
 42
0.007176
  0
VERTEX
  8
0
 10
994.539881
 20
143.261813
 42
0.246258
  0
VERTEX
  8
0
 10
995.334300
 20
143.731892
 42
0.240360
  0
VERTEX
  8
0
 10
995.390729
 20
144.420161
 42
0.017949
  0
VERTEX
  8
0
 10
994.589431
 20
146.186608
 42
0.021728
  0
VERTEX
  8
0
 10
993.414474
 20
148.310997
 42
0.014616
  0
VERTEX
  8
0
 10
991.899630
 20
150.633845
 42
-0.008918
  0
VERTEX
  8
0
 10
972.993234
 20
178.915137
 42
-0.037784
  0
VERTEX
  8
0
 10
963.307733
 20
196.817921
 42
-0.052890
  0
VERTEX
  8
0
 10
958.081488
 20
212.873257
 42
-0.030490
  0
VERTEX
  8
0
 10
955.079692
 20
233.000000
 42
-0.012790
  0
VERTEX
  8
0
 10
954.234063
 20
246.729931
 42
-0.002879
  0
VERTEX
  8
0
 10
953.527766
 20
270.129030
 42
-0.000288
  0
VERTEX
  8
0
 10
952.901967
 20
296.370874
 42
-0.421045
  0
VERTEX
  8
0
 10
953.516623
 20
297.000000
 42
0.039155
  0
VERTEX
  8
0
 10
955.966026
 20
297.192108
 42
0.003050
  0
VERTEX
  8
0
 10
962.450060
 20
298.256072
 42
0.003811
  0
VERTEX
  8
0
 10
968.841964
 20
299.395192
 42
0.025144
  0
VERTEX
  8
0
 10
972.000000
 20
300.148831
 42
0.032282
  0
VERTEX
  8
0
 10
978.679742
 20
302.580161
 42
0.061198
  0
VERTEX
  8
0
 10
983.595461
 20
305.499226
 42
0.061787
  0
VERTEX
  8
0
 10
987.628456
 20
309.501107
 42
0.033530
  0
VERTEX
  8
0
 10
991.571334
 20
315.279030
 42
0.028626
  0
VERTEX
  8
0
 10
994.720607
 20
321.409613
 42
0.031573
  0
VERTEX
  8
0
 10
997.033919
 20
327.665580
 42
0.030326
  0
VERTEX
  8
0
 10
998.609602
 20
334.382272
 42
0.022935
  0
VERTEX
  8
0
 10
999.546099
 20
341.900132
 42
-0.009935
  0
VERTEX
  8
0
 10
999.944892
 20
345.958979
 42
-0.022626
  0
VERTEX
  8
0
 10
1000.444708
 20
348.997151
 42
-0.027223
  0
VERTEX
  8
0
 10
1001.028172
 20
351.166605
 42
-0.141154
  0
VERTEX
  8
0
 10
1001.719291
 20
352.181995
 42
-0.132255
  0
VERTEX
  8
0
 10
1004.123438
 20
353.283835
 42
-0.008161
  0
VERTEX
  8
0
 10
1011.964120
 20
354.472346
 42
-0.007116
  0
VERTEX
  8
0
 10
1019.922206
 20
355.430992
 42
-0.166315
  0
VERTEX
  8
0
 10
1022.108375
 20
354.933021
 42
-0.220508
  0
VERTEX
  8
0
 10
1022.547923
 20
354.266719
 42
-0.054650
  0
VERTEX
  8
0
 10
1022.601441
 20
352.925818
 42
-0.034002
  0
VERTEX
  8
0
 10
1022.319005
 20
350.881360
 42
-0.010117
  0
VERTEX
  8
0
 10
1021.613731
 20
347.806804
 42
0.019717
  0
VERTEX
  8
0
 10
1019.668911
 20
338.513446
 42
0.260366
  0
VERTEX
  8
0
 10
1020.805218
 20
335.327116
 42
0.383171
  0
VERTEX
  8
0
 10
1023.554314
 20
335.362901
 42
0.028937
  0
VERTEX
  8
0
 10
1029.179883
 20
341.186630
 42
-0.006317
  0
VERTEX
  8
0
 10
1036.208416
 20
349.154056
 42
-0.032327
  0
VERTEX
  8
0
 10
1040.439731
 20
353.262445
 42
-0.062834
  0
VERTEX
  8
0
 10
1043.554059
 20
355.305192
 42
-0.138799
  0
VERTEX
  8
0
 10
1046.327640
 20
355.807568
 42
-0.029537
  0
VERTEX
  8
0
 10
1048.170116
 20
355.518341
 42
-0.171615
  0
VERTEX
  8
0
 10
1048.993340
 20
355.008300
 42
-0.155572
  0
VERTEX
  8
0
 10
1049.356591
 20
354.064841
 42
-0.023087
  0
VERTEX
  8
0
 10
1049.382797
 20
352.000000
 42
-0.056954
  0
VERTEX
  8
0
 10
1048.388499
 20
345.296863
 42
-0.060134
  0
VERTEX
  8
0
 10
1045.913380
 20
339.120932
 42
-0.056730
  0
VERTEX
  8
0
 10
1041.890920
 20
333.422077
 42
-0.042431
  0
VERTEX
  8
0
 10
1036.304277
 20
328.133324
 42
0.025697
  0
VERTEX
  8
0
 10
1032.357331
 20
324.639426
 42
0.041702
  0
VERTEX
  8
0
 10
1029.434238
 20
321.248712
 42
0.051017
  0
VERTEX
  8
0
 10
1027.602240
 20
318.094349
 42
0.106020
  0
VERTEX
  8
0
 10
1027.003738
 20
315.326725
 42
0.127150
  0
VERTEX
  8
0
 10
1027.714264
 20
312.558201
 42
0.072062
  0
VERTEX
  8
0
 10
1029.816723
 20
309.781262
 42
0.071815
  0
VERTEX
  8
0
 10
1032.631284
 20
307.705319
 42
0.123654
  0
VERTEX
  8
0
 10
1035.439670
 20
307.000000
 42
0.074998
  0
VERTEX
  8
0
 10
1041.334909
 20
307.889261
 42
0.032646
  0
VERTEX
  8
0
 10
1048.752373
 20
310.721084
 42
0.030854
  0
VERTEX
  8
0
 10
1056.528679
 20
314.885434
 42
0.032004
  0
VERTEX
  8
0
 10
1063.634170
 20
319.929523
 42
0.066957
  0
VERTEX
  8
0
 10
1075.262835
 20
332.268617
 42
0.045200
  0
VERTEX
  8
0
 10
1085.083014
 20
348.963344
 42
0.045100
  0
VERTEX
  8
0
 10
1091.768447
 20
367.208105
 42
0.065358
  0
VERTEX
  8
0
 10
1093.999829
 20
384.200779
 42
-0.017938
  0
VERTEX
  8
0
 10
1094.077646
 20
386.366894
 42
-0.009803
  0
VERTEX
  8
0
 10
1094.320262
 20
389.014269
 42
-0.009759
  0
VERTEX
  8
0
 10
1094.672464
 20
391.697545
 42
-0.015309
  0
VERTEX
  8
0
 10
1095.090425
 20
393.986036
 42
-0.028699
  0
VERTEX
  8
0
 10
1095.896958
 20
396.915703
 42
-0.073102
  0
VERTEX
  8
0
 10
1096.896575
 20
398.874024
 42
-0.062460
  0
VERTEX
  8
0
 10
1098.512747
 20
400.634561
 42
-0.016779
  0
VERTEX
  8
0
 10
1101.494147
 20
402.995676
 42
0.077270
  0
VERTEX
  8
0
 10
1108.581875
 20
410.155964
 42
0.089313
  0
VERTEX
  8
0
 10
1112.734722
 20
418.798885
 42
0.046577
  0
VERTEX
  8
0
 10
1115.153839
 20
432.348227
 42
0.007597
  0
VERTEX
  8
0
 10
1116.979661
 20
459.000000
 42
-0.005990
  0
VERTEX
  8
0
 10
1117.485709
 20
466.752141
 42
-0.007041
  0
VERTEX
  8
0
 10
1118.156439
 20
474.082355
 42
-0.007094
  0
VERTEX
  8
0
 10
1118.900813
 20
480.280882
 42
-0.029012
  0
VERTEX
  8
0
 10
1119.622677
 20
484.000000
 42
-0.023810
  0
VERTEX
  8
0
 10
1121.229151
 20
489.242813
 42
-0.007439
  0
VERTEX
  8
0
 10
1124.125409
 20
496.941561
 42
-0.007004
  0
VERTEX
  8
0
 10
1127.805720
 20
505.927929
 42
-0.005614
  0
VERTEX
  8
0
 10
1132.010979
 20
515.500000
 42
0.008917
  0
VERTEX
  8
0
 10
1134.305384
 20
520.817671
 42
0.003727
  0
VERTEX
  8
0
 10
1137.215627
 20
528.060896
 42
0.003613
  0
VERTEX
  8
0
 10
1139.965841
 20
535.207327
 42
0.011733
  0
VERTEX
  8
0
 10
1141.643294
 20
540.000000
 42
-0.004282
  0
VERTEX
  8
0
 10
1142.266526
 20
541.869528
 42
-0.004035
  0
VERTEX
  8
0
 10
1142.933859
 20
543.765625
 42
-0.004013
  0
VERTEX
  8
0
 10
1143.552182
 20
545.436113
 42
-0.013973
  0
VERTEX
  8
0
 10
1143.990093
 20
546.500000
 42
0.034379
  0
VERTEX
  8
0
 10
1146.256241
 20
552.714097
 42
0.003549
  0
VERTEX
  8
0
 10
1150.475421
 20
567.733277
 42
0.004801
  0
VERTEX
  8
0
 10
1154.538253
 20
583.182288
 42
0.012174
  0
VERTEX
  8
0
 10
1157.107318
 20
594.500000
 42
0.016532
  0
VERTEX
  8
0
 10
1159.771894
 20
610.422895
 42
0.017772
  0
VERTEX
  8
0
 10
1161.301366
 20
626.107754
 42
0.009987
  0
VERTEX
  8
0
 10
1162.213510
 20
647.973608
 42
0.001716
  0
VERTEX
  8
0
 10
1162.972949
 20
689.500000
 42
-0.001109
  0
VERTEX
  8
0
 10
1163.355416
 20
711.900950
 42
-0.001741
  0
VERTEX
  8
0
 10
1163.793810
 20
731.149814
 42
-0.000431
  0
VERTEX
  8
0
 10
1164.250335
 20
747.981923
 42
-0.068016
  0
VERTEX
  8
0
 10
1164.557407
 20
749.839793
 42
-0.102757
  0
VERTEX
  8
0
 10
1165.326847
 20
751.233568
 42
-0.216427
  0
VERTEX
  8
0
 10
1166.423854
 20
751.743736
 42
-0.066475
  0
VERTEX
  8
0
 10
1168.457574
 20
751.490809
 42
-0.004307
  0
VERTEX
  8
0
 10
1174.217858
 20
749.926961
 42
0.014511
  0
VERTEX
  8
0
 10
1176.070251
 20
749.464429
 42
0.021008
  0
VERTEX
  8
0
 10
1177.731387
 20
749.173019
 42
0.017430
  0
VERTEX
  8
0
 10
1179.081940
 20
749.041882
 42
0.215061
  0
VERTEX
  8
0
 10
1179.553730
 20
749.220397
 42
0.335966
  0
VERTEX
  8
0
 10
1179.624350
 20
749.732026
 42
0.004306
  0
VERTEX
  8
0
 10
1177.906394
 20
752.734688
 42
0.010359
  0
VERTEX
  8
0
 10
1175.753101
 20
756.254575
 42
0.006354
  0
VERTEX
  8
0
 10
1173.077928
 20
760.316093
 42
-0.007495
  0
VERTEX
  8
0
 10
1167.783252
 20
768.394647
 42
-0.032137
  0
VERTEX
  8
0
 10
1165.020365
 20
773.441035
 42
-0.057290
  0
VERTEX
  8
0
 10
1163.839803
 20
776.977265
 42
-0.143709
  0
VERTEX
  8
0
 10
1164.048849
 20
779.662060
 42
-0.155750
  0
VERTEX
  8
0
 10
1165.558972
 20
781.559630
 42
-0.106262
  0
VERTEX
  8
0
 10
1168.140517
 20
782.584343
 42
-0.048175
  0
VERTEX
  8
0
 10
1172.628954
 20
782.898408
 42
-0.008299
  0
VERTEX
  8
0
 10
1181.159810
 20
782.531219
 42
0.009278
  0
VERTEX
  8
0
 10
1190.511249
 20
782.147047
 42
0.171733
  0
VERTEX
  8
0
 10
1193.282194
 20
783.058073
 42
0.349216
  0
VERTEX
  8
0
 10
1193.792522
 20
785.133999
 42
0.031329
  0
VERTEX
  8
0
 10
1191.072818
 20
790.189761
 42
-0.017826
  0
VERTEX
  8
0
 10
1189.895374
 20
792.243700
 42
-0.023721
  0
VERTEX
  8
0
 10
1188.983925
 20
794.192635
 42
-0.022173
  0
VERTEX
  8
0
 10
1188.391839
 20
795.836707
 42
-0.168504
  0
VERTEX
  8
0
 10
1188.418228
 20
796.647502
 42
-0.168440
  0
VERTEX
  8
0
 10
1188.879604
 20
797.195094
 42
-0.056426
  0
VERTEX
  8
0
 10
1189.846720
 20
797.631815
 42
-0.045928
  0
VERTEX
  8
0
 10
1191.162996
 20
797.925658
 42
-0.029868
  0
VERTEX
  8
0
 10
1192.718615
 20
798.031803
 42
0.052850
  0
VERTEX
  8
0
 10
1196.148162
 20
798.424518
 42
0.132608
  0
VERTEX
  8
0
 10
1198.359108
 20
799.584827
 42
0.142337
  0
VERTEX
  8
0
 10
1199.592741
 20
801.637931
 42
0.064660
  0
VERTEX
  8
0
 10
1200.000000
 20
804.774008
 42
0.080162
  0
VERTEX
  8
0
 10
1199.389678
 20
808.556347
 42
0.023350
  0
VERTEX
  8
0
 10
1197.267907
 20
814.081510
 42
0.022714
  0
VERTEX
  8
0
 10
1194.667119
 20
819.347184
 42
0.093744
  0
VERTEX
  8
0
 10
1192.412619
 20
822.072519
 42
0.092692
  0
VERTEX
  8
0
 10
1191.455885
 20
822.605002
 42
0.011188
  0
VERTEX
  8
0
 10
1189.142419
 20
823.322256
 42
0.012990
  0
VERTEX
  8
0
 10
1186.325455
 20
824.048403
 42
0.010355
  0
VERTEX
  8
0
 10
1183.253597
 20
824.689018
 42
-0.059864
  0
VERTEX
  8
0
 10
1173.032764
 20
827.900856
 42
-0.089081
  0
VERTEX
  8
0
 10
1165.321770
 20
833.196098
 42
-0.068720
  0
VERTEX
  8
0
 10
1158.643911
 20
841.905597
 42
-0.023252
  0
VERTEX
  8
0
 10
1151.385994
 20
856.179546
 42
0.005523
  0
VERTEX
  8
0
 10
1148.182581
 20
863.074109
 42
0.016927
  0
VERTEX
  8
0
 10
1145.804400
 20
867.643852
 42
0.019872
  0
VERTEX
  8
0
 10
1143.940569
 20
870.660508
 42
0.169158
  0
VERTEX
  8
0
 10
1142.685457
 20
871.599832
 42
0.180182
  0
VERTEX
  8
0
 10
1140.559380
 20
871.495130
 42
0.181827
  0
VERTEX
  8
0
 10
1139.029698
 20
870.025234
 42
0.095607
  0
VERTEX
  8
0
 10
1138.229859
 20
866.956507
 42
0.031085
  0
VERTEX
  8
0
 10
1138.219569
 20
862.250000
 42
-0.008591
  0
VERTEX
  8
0
 10
1138.362185
 20
858.918358
 42
-0.052500
  0
VERTEX
  8
0
 10
1138.225932
 20
857.203871
 42
-0.136332
  0
VERTEX
  8
0
 10
1137.800638
 20
856.335012
 42
-0.214346
  0
VERTEX
  8
0
 10
1137.055065
 20
856.000000
 42
-0.197059
  0
VERTEX
  8
0
 10
1134.803293
 20
856.923320
 42
-0.007562
  0
VERTEX
  8
0
 10
1128.340528
 20
863.490207
 42
-0.014443
  0
VERTEX
  8
0
 10
1121.974438
 20
870.555327
 42
-0.026401
  0
VERTEX
  8
0
 10
1117.270324
 20
876.721177
 42
-0.020752
  0
VERTEX
  8
0
 10
1112.161534
 20
884.916423
 42
-0.021038
  0
VERTEX
  8
0
 10
1107.774748
 20
893.470292
 42
-0.018904
  0
VERTEX
  8
0
 10
1104.608104
 20
901.087329
 42
-0.124851
  0
VERTEX
  8
0
 10
1104.168007
 20
905.155055
 42
-0.249216
  0
VERTEX
  8
0
 10
1105.243208
 20
906.632438
 42
-0.190963
  0
VERTEX
  8
0
 10
1107.267674
 20
906.786203
 42
-0.045538
  0
VERTEX
  8
0
 10
1111.355648
 20
905.093439
 42
-0.004205
  0
VERTEX
  8
0
 10
1121.022459
 20
899.912262
 42
0.006688
  0
VERTEX
  8
0
 10
1127.156672
 20
896.663571
 42
0.018199
  0
VERTEX
  8
0
 10
1131.608816
 20
894.582372
 42
0.025016
  0
VERTEX
  8
0
 10
1134.943257
 20
893.361944
 42
0.075353
  0
VERTEX
  8
0
 10
1137.331285
 20
893.000000
 42
0.019159
  0
VERTEX
  8
0
 10
1139.522591
 20
893.083998
 42
0.154222
  0
VERTEX
  8
0
 10
1140.446286
 20
893.455785
 42
0.190672
  0
VERTEX
  8
0
 10
1140.886235
 20
894.251094
 42
0.032126
  0
VERTEX
  8
0
 10
1141.000000
 20
896.019872
 42
0.101197
  0
VERTEX
  8
0
 10
1140.332760
 20
899.282848
 42
0.040925
  0
VERTEX
  8
0
 10
1138.204068
 20
903.320096
 42
0.031366
  0
VERTEX
  8
0
 10
1134.688784
 20
908.144078
 42
0.014920
  0
VERTEX
  8
0
 10
1129.607027
 20
913.911472
 42
-0.008067
  0
VERTEX
  8
0
 10
1124.997428
 20
919.000678
 42
-0.014885
  0
VERTEX
  8
0
 10
1121.443651
 20
923.305777
 42
-0.017353
  0
VERTEX
  8
0
 10
1118.900155
 20
926.826570
 42
-0.062979
  0
VERTEX
  8
0
 10
1117.663988
 20
929.289816
 42
-0.243447
  0
VERTEX
  8
0
 10
1117.983796
 20
931.587944
 42
-0.030813
  0
VERTEX
  8
0
 10
1121.223857
 20
935.615344
 42
-0.032075
  0
VERTEX
  8
0
 10
1125.802605
 20
940.033761
 42
-0.026731
  0
VERTEX
  8
0
 10
1131.186657
 20
944.126757
 42
0.007300
  0
VERTEX
  8
0
 10
1133.416688
 20
945.689194
 42
0.009486
  0
VERTEX
  8
0
 10
1135.410556
 20
947.188409
 42
0.007475
  0
VERTEX
  8
0
 10
1137.028395
 20
948.493074
 42
0.081084
  0
VERTEX
  8
0
 10
1137.576644
 20
949.124013
 42
0.305914
  0
VERTEX
  8
0
 10
1137.545256
 20
949.904913
 42
0.015705
  0
VERTEX
  8
0
 10
1135.903154
 20
951.997615
 42
0.019393
  0
VERTEX
  8
0
 10
1133.560635
 20
954.586301
 42
0.010068
  0
VERTEX
  8
0
 10
1130.450451
 20
957.640770
 42
0.000000
  0
VERTEX
  8
0
 10
1122.623580
 20
965.023806
 42
0.000000
  0
VERTEX
  8
0
 10
1124.453007
 20
979.261903
 42
-0.000096
  0
VERTEX
  8
0
 10
1125.211096
 20
985.153049
 42
-0.000094
  0
VERTEX
  8
0
 10
1125.976087
 20
991.080059
 42
-0.000092
  0
VERTEX
  8
0
 10
1126.648875
 20
996.277434
 42
-0.000358
  0
VERTEX
  8
0
 10
1127.068979
 20
999.500000
 42
0.014142
  0
VERTEX
  8
0
 10
1128.472320
 20
1013.201511
 42
0.008751
  0
VERTEX
  8
0
 10
1129.382807
 20
1029.361232
 42
0.008075
  0
VERTEX
  8
0
 10
1129.786413
 20
1047.192177
 42
0.006887
  0
VERTEX
  8
0
 10
1129.649244
 20
1066.000000
 42
0.010432
  0
VERTEX
  8
0
 10
1128.432199
 20
1095.007792
 42
0.028468
  0
VERTEX
  8
0
 10
1125.980215
 20
1115.391557
 42
0.035456
  0
VERTEX
  8
0
 10
1121.616410
 20
1132.660266
 42
0.026002
  0
VERTEX
  8
0
 10
1114.461892
 20
1151.084790
 42
0.026087
  0
VERTEX
  8
0
 10
1106.344458
 20
1166.886676
 42
0.036609
  0
VERTEX
  8
0
 10
1097.393860
 20
1179.972654
 42
0.027557
  0
VERTEX
  8
0
 10
1084.827057
 20
1194.066565
 42
0.008385
  0
VERTEX
  8
0
 10
1064.300760
 20
1214.000000
 42
-0.004708
  0
VERTEX
  8
0
 10
1057.921377
 20
1220.104637
 42
-0.042311
  0
VERTEX
  8
0
 10
1055.390667
 20
1223.028685
 42
-0.076736
  0
VERTEX
  8
0
 10
1054.033067
 20
1225.664189
 42
-0.033004
  0
VERTEX
  8
0
 10
1053.026959
 20
1229.500000
 42
0.027333
  0
VERTEX
  8
0
 10
1049.036152
 20
1245.449243
 42
0.035080
  0
VERTEX
  8
0
 10
1043.568288
 20
1259.547957
 42
0.032341
  0
VERTEX
  8
0
 10
1035.804383
 20
1273.600327
 42
0.018644
  0
VERTEX
  8
0
 10
1024.779560
 20
1289.485725
 42
0.031992
  0
VERTEX
  8
0
 10
1005.927527
 20
1311.509904
 42
0.029749
  0
VERTEX
  8
0
 10
983.980064
 20
1331.525895
 42
0.028487
  0
VERTEX
  8
0
 10
958.856117
 20
1349.574761
 42
0.024293
  0
VERTEX
  8
0
 10
930.500000
 20
1365.713768
 42
0.009607
  0
VERTEX
  8
0
 10
922.252801
 20
1369.693965
 42
0.004372
  0
VERTEX
  8
0
 10
911.327348
 20
1374.595050
 42
0.004256
  0
VERTEX
  8
0
 10
900.567086
 20
1379.200674
 42
0.012914
  0
VERTEX
  8
0
 10
893.144568
 20
1382.080339
 42
0.003785
  0
VERTEX
  8
0
 10
879.329801
 20
1386.915748
 42
0.008917
  0
VERTEX
  8
0
 10
868.935542
 20
1390.260064
 42
0.009152
  0
VERTEX
  8
0
 10
858.590603
 20
1393.180540
 42
0.004194
  0
VERTEX
  8
0
 10
845.000000
 20
1396.628484
 42
-0.001400
  0
VERTEX
  8
0
 10
836.090884
 20
1398.835816
 42
-0.001814
  0
VERTEX
  8
0
 10
827.934375
 20
1400.912413
 42
-0.001362
  0
VERTEX
  8
0
 10
821.109712
 20
1402.696168
 42
-0.016299
  0
VERTEX
  8
0
 10
818.500000
 20
1403.477692
 42
-0.019170
  0
VERTEX
  8
0
 10
807.623987
 20
1407.595047
 42
-0.012613
  0
VERTEX
  8
0
 10
795.432994
 20
1413.119243
 42
-0.012642
  0
VERTEX
  8
0
 10
784.040072
 20
1418.992259
 42
-0.028874
  0
VERTEX
  8
0
 10
775.845630
 20
1424.118157
 42
0.010423
  0
VERTEX
  8
0
 10
774.782752
 20
1424.838885
 42
0.013811
  0
VERTEX
  8
0
 10
773.784746
 20
1425.447209
 42
0.011139
  0
VERTEX
  8
0
 10
772.935532
 20
1425.908389
 42
0.119369
  0
VERTEX
  8
0
 10
772.557269
 20
1426.000000
 42
-0.146875
  0
VERTEX
  8
0
 10
771.554700
 20
1426.300998
 42
-0.000760
  0
VERTEX
  8
0
 10
762.845260
 20
1432.067693
 42
-0.003825
  0
VERTEX
  8
0
 10
754.308108
 20
1437.833594
 42
-0.005842
  0
VERTEX
  8
0
 10
747.000000
 20
1442.977890
 42
0.001097
  0
VERTEX
  8
0
 10
743.582514
 20
1445.432336
 42
0.000318
  0
VERTEX
  8
0
 10
738.300833
 20
1449.203028
 42
0.000320
  0
VERTEX
  8
0
 10
732.345012
 20
1453.443534
 42
0.000342
  0
VERTEX
  8
0
 10
726.513473
 20
1457.583931
 42
0.000000
  0
VERTEX
  8
0
 10
712.526946
 20
1467.500000
 42
0.000000
  0
VERTEX
  8
0
 10
685.013473
 20
1468.120270
 42
-0.001879
  0
VERTEX
  8
0
 10
666.070569
 20
1468.618552
 42
-0.018763
  0
VERTEX
  8
0
 10
658.158074
 20
1469.154085
 42
-0.033105
  0
VERTEX
  8
0
 10
651.992212
 20
1470.220669
 42
-0.012350
  0
VERTEX
  8
0
 10
643.500000
 20
1472.499530
 42
0.006884
  0
VERTEX
  8
0
 10
639.994165
 20
1473.481509
 42
0.005009
  0
VERTEX
  8
0
 10
636.069818
 20
1474.480687
 42
0.005061
  0
VERTEX
  8
0
 10
632.327240
 20
1475.353721
 42
0.011064
  0
VERTEX
  8
0
 10
629.439805
 20
1475.929788
 42
0.043195
  0
VERTEX
  8
0
 10
619.424972
 20
1476.818010
 42
0.000661
  0
VERTEX
  8
0
 10
561.264449
 20
1476.864587
 42
0.001023
  0
VERTEX
  8
0
 10
504.934968
 20
1476.719980
 42
0.025634
  0
SEQEND
  0
POLYLINE
  8
0
 66
1
 70
1
  0
VERTEX
  8
0
 10
569.493666
 20
1387.750000
 42
0.004935
  0
VERTEX
  8
0
 10
571.423528
 20
1383.007020
 42
0.007355
  0
VERTEX
  8
0
 10
573.213207
 20
1378.900665
 42
0.003630
  0
VERTEX
  8
0
 10
574.800616
 20
1375.466434
 42
0.137186
  0
VERTEX
  8
0
 10
575.353703
 20
1374.826731
 42
0.108282
  0
VERTEX
  8
0
 10
576.667852
 20
1374.317787
 42
0.008729
  0
VERTEX
  8
0
 10
580.363843
 20
1373.810838
 42
0.007820
  0
VERTEX
  8
0
 10
585.965190
 20
1373.230638
 42
0.001890
  0
VERTEX
  8
0
 10
595.250000
 20
1372.450795
 42
-0.010182
  0
VERTEX
  8
0
 10
598.221178
 20
1372.151548
 42
-0.016624
  0
VERTEX
  8
0
 10
600.723438
 20
1371.763159
 42
-0.010566
  0
VERTEX
  8
0
 10
602.714740
 20
1371.342139
 42
-0.348487
  0
VERTEX
  8
0
 10
603.000000
 20
1370.982560
 42
-0.205387
  0
VERTEX
  8
0
 10
602.772074
 20
1370.451096
 42
-0.003144
  0
VERTEX
  8
0
 10
600.282812
 20
1368.112372
 42
-0.007841
  0
VERTEX
  8
0
 10
597.295410
 20
1365.426724
 42
-0.005036
  0
VERTEX
  8
0
 10
593.750000
 20
1362.400831
 42
0.000532
  0
VERTEX
  8
0
 10
590.108257
 20
1359.348982
 42
0.000717
  0
VERTEX
  8
0
 10
586.819455
 20
1356.578885
 42
0.000485
  0
VERTEX
  8
0
 10
584.064845
 20
1354.247377
 42
0.007775
  0
VERTEX
  8
0
 10
583.146018
 20
1353.443255
 42
0.193102
  0
VERTEX
  8
0
 10
582.567359
 20
1352.259927
 42
0.049819
  0
VERTEX
  8
0
 10
582.624220
 20
1350.094046
 42
0.024761
  0
VERTEX
  8
0
 10
583.264318
 20
1346.480401
 42
0.004111
  0
VERTEX
  8
0
 10
584.896018
 20
1339.606081
 42
-0.001707
  0
VERTEX
  8
0
 10
586.085493
 20
1334.699927
 42
-0.002554
  0
VERTEX
  8
0
 10
587.088205
 20
1330.404562
 42
-0.001064
  0
VERTEX
  8
0
 10
587.919792
 20
1326.722096
 42
-0.055048
  0
VERTEX
  8
0
 10
588.000000
 20
1325.995777
 42
-0.405201
  0
VERTEX
  8
0
 10
587.280525
 20
1325.253744
 42
-0.110005
  0
VERTEX
  8
0
 10
585.507971
 20
1325.591448
 42
-0.033565
  0
VERTEX
  8
0
 10
582.073874
 20
1327.355319
 42
-0.005240
  0
VERTEX
  8
0
 10
575.579765
 20
1331.355506
 42
0.000554
  0
VERTEX
  8
0
 10
571.630815
 20
1333.839294
 42
0.000783
  0
VERTEX
  8
0
 10
568.108144
 20
1336.041838
 42
0.000445
  0
VERTEX
  8
0
 10
565.128987
 20
1337.894393
 42
0.011131
  0
VERTEX
  8
0
 10
564.299025
 20
1338.384224
 42
0.241170
  0
VERTEX
  8
0
 10
563.434361
 20
1338.416757
 42
0.007211
  0
VERTEX
  8
0
 10
560.078048
 20
1336.794994
 42
0.012854
  0
VERTEX
  8
0
 10
556.103586
 20
1334.673825
 42
0.008341
  0
VERTEX
  8
0
 10
551.616217
 20
1332.028718
 42
-0.003930
  0
VERTEX
  8
0
 10
547.137466
 20
1329.335167
 42
-0.005919
  0
VERTEX
  8
0
 10
543.188088
 20
1327.064686
 42
-0.002607
  0
VERTEX
  8
0
 10
539.795853
 20
1325.190721
 42
-0.125526
  0
VERTEX
  8
0
 10
539.048140
 20
1325.000000
 42
-0.394945
  0
VERTEX
  8
0
 10
538.457278
 20
1325.552968
 42
-0.063403
  0
VERTEX
  8
0
 10
538.561791
 20
1327.281141
 42
-0.017392
  0
VERTEX
  8
0
 10
539.384358
 20
1330.928396
 42
-0.001153
  0
VERTEX
  8
0
 10
542.136967
 20
1341.321411
 42
0.005436
  0
VERTEX
  8
0
 10
543.211575
 20
1345.523919
 42
0.008343
  0
VERTEX
  8
0
 10
544.041639
 20
1349.187915
 42
0.003720
  0
VERTEX
  8
0
 10
544.668884
 20
1352.303653
 42
0.188380
  0
VERTEX
  8
0
 10
544.558730
 20
1352.904973
 42
0.074156
  0
VERTEX
  8
0
 10
544.131495
 20
1353.410545
 42
0.001160
  0
VERTEX
  8
0
 10
541.274076
 20
1355.910751
 42
0.003052
  0
VERTEX
  8
0
 10
537.923735
 20
1358.792791
 42
0.002014
  0
VERTEX
  8
0
 10
534.038380
 20
1362.067156
 42
-0.007113
  0
VERTEX
  8
0
 10
530.210471
 20
1365.360458
 42
-0.011299
  0
VERTEX
  8
0
 10
527.039775
 20
1368.298249
 42
-0.005344
  0
VERTEX
  8
0
 10
524.476675
 20
1370.836729
 42
-0.281847
  0
VERTEX
  8
0
 10
524.325149
 20
1371.483595
 42
-0.278570
  0
VERTEX
  8
0
 10
524.825316
 20
1371.911842
 42
-0.006315
  0
VERTEX
  8
0
 10
528.062840
 20
1372.408082
 42
-0.012325
  0
VERTEX
  8
0
 10
531.985429
 20
1372.860450
 42
-0.007800
  0
VERTEX
  8
0
 10
536.577250
 20
1373.203493
 42
0.003113
  0
VERTEX
  8
0
 10
541.287243
 20
1373.510997
 42
0.004092
  0
VERTEX
  8
0
 10
545.581425
 20
1373.853555
 42
0.003003
  0
VERTEX
  8
0
 10
549.172181
 20
1374.191335
 42
0.038747
  0
VERTEX
  8
0
 10
550.496633
 20
1374.428588
 42
0.145358
  0
VERTEX
  8
0
 10
551.563584
 20
1375.073096
 42
0.043811
  0
VERTEX
  8
0
 10
552.724276
 20
1376.596328
 42
0.032122
  0
VERTEX
  8
0
 10
553.995038
 20
1378.926074
 42
0.013255
  0
VERTEX
  8
0
 10
555.423462
 20
1382.225096
 42
-0.003479
  0
VERTEX
  8
0
 10
558.775993
 20
1390.402811
 42
-0.011233
  0
VERTEX
  8
0
 10
561.162853
 20
1395.769465
 42
-0.008290
  0
VERTEX
  8
0
 10
563.002282
 20
1399.505270
 42
-0.281254
  0
VERTEX
  8
0
 10
563.812217
 20
1400.000000
 42
-0.288394
  0
VERTEX
  8
0
 10
564.261651
 20
1399.717256
 42
-0.003358
  0
VERTEX
  8
0
 10
565.826585
 20
1396.401562
 42
-0.008892
  0
VERTEX
  8
0
 10
567.576312
 20
1392.446107
 42
-0.005534
  0
SEQEND
  0
POLYLINE
  8
0
 66
1
 70
1
  0
VERTEX
  8
0
 10
561.000000
 20
1221.502806
 42
-0.001790
  0
VERTEX
  8
0
 10
570.620324
 20
1220.859122
 42
-0.001871
  0
VERTEX
  8
0
 10
580.093750
 20
1220.155562
 42
-0.001795
  0
VERTEX
  8
0
 10
588.273024
 20
1219.487779
 42
-0.008278
  0
VERTEX
  8
0
 10
593.000000
 20
1219.005819
 42
0.000398
  0
VERTEX
  8
0
 10
596.903716
 20
1218.545528
 42
0.000223
  0
VERTEX
  8
0
 10
601.646875
 20
1217.992230
 42
0.000223
  0
VERTEX
  8
0
 10
606.437539
 20
1217.437723
 42
0.000364
  0
VERTEX
  8
0
 10
610.500000
 20
1216.972335
 42
-0.009969
  0
VERTEX
  8
0
 10
641.605740
 20
1212.802135
 42
-0.009711
  0
VERTEX
  8
0
 10
672.794591
 20
1207.363858
 42
-0.010054
  0
VERTEX
  8
0
 10
702.472062
 20
1200.971297
 42
-0.013589
  0
VERTEX
  8
0
 10
729.000000
 20
1193.930101
 42
0.000790
  0
VERTEX
  8
0
 10
733.239983
 20
1192.687704
 42
0.000905
  0
VERTEX
  8
0
 10
737.296875
 20
1191.513872
 42
0.000815
  0
VERTEX
  8
0
 10
740.742128
 20
1190.529839
 42
0.005168
  0
VERTEX
  8
0
 10
742.500000
 20
1190.050428
 42
-0.019018
  0
VERTEX
  8
0
 10
753.257709
 20
1186.793945
 42
-0.004437
  0
VERTEX
  8
0
 10
771.033413
 20
1180.489061
 42
-0.004820
  0
VERTEX
  8
0
 10
789.966942
 20
1173.376208
 42
-0.007681
  0
VERTEX
  8
0
 10
806.000000
 20
1166.891138
 42
-0.015214
  0
VERTEX
  8
0
 10
818.433534
 20
1161.186590
 42
-0.007214
  0
VERTEX
  8
0
 10
834.112260
 20
1153.123345
 42
-0.007158
  0
VERTEX
  8
0
 10
849.351605
 20
1144.723701
 42
-0.017653
  0
VERTEX
  8
0
 10
860.214516
 20
1138.013147
 42
-0.030876
  0
VERTEX
  8
0
 10
880.046438
 20
1122.924182
 42
-0.086005
  0
VERTEX
  8
0
 10
891.104638
 20
1109.445558
 42
-0.066986
  0
VERTEX
  8
0
 10
898.450850
 20
1091.144049
 42
-0.013675
  0
VERTEX
  8
0
 10
906.102281
 20
1057.022546
 42
-0.018784
  0
VERTEX
  8
0
 10
906.593989
 20
1053.889648
 42
-0.008379
  0
VERTEX
  8
0
 10
907.016603
 20
1049.734418
 42
-0.008281
  0
VERTEX
  8
0
 10
907.317529
 20
1045.318333
 42
-0.011108
  0
VERTEX
  8
0
 10
907.434912
 20
1041.307897
 42
-0.006687
  0
VERTEX
  8
0
 10
907.401481
 20
1036.024863
 42
-0.039777
  0
VERTEX
  8
0
 10
907.128391
 20
1033.281396
 42
-0.076146
  0
VERTEX
  8
0
 10
906.511041
 20
1031.483304
 42
-0.075365
  0
VERTEX
  8
0
 10
905.382197
 20
1029.945326
 42
0.000000
  0
VERTEX
  8
0
 10
903.264395
 20
1027.819951
 42
0.000000
  0
VERTEX
  8
0
 10
901.306793
 20
1030.659975
 42
-0.020124
  0
VERTEX
  8
0
 10
900.460875
 20
1031.999512
 42
-0.011193
  0
VERTEX
  8
0
 10
899.533852
 20
1033.693868
 42
-0.011150
  0
VERTEX
  8
0
 10
898.670985
 20
1035.453342
 42
-0.017692
  0
VERTEX
  8
0
 10
898.020222
 20
1037.000000
 42
0.052099
  0
VERTEX
  8
0
 10
896.312596
 20
1040.386867
 42
0.157379
  0
VERTEX
  8
0
 10
894.339663
 20
1042.006923
 42
0.097200
  0
VERTEX
  8
0
 10
891.197778
 20
1042.583555
 42
0.013329
  0
VERTEX
  8
0
 10
884.509232
 20
1042.322992
 42
-0.008031
  0
VERTEX
  8
0
 10
878.762443
 20
1042.038116
 42
-0.047737
  0
VERTEX
  8
0
 10
875.765643
 20
1042.223954
 42
-0.060727
  0
VERTEX
  8
0
 10
873.174203
 20
1042.965317
 42
-0.017655
  0
VERTEX
  8
0
 10
869.400988
 20
1044.719835
 42
-0.012080
  0
VERTEX
  8
0
 10
866.332727
 20
1046.375043
 42
-0.003440
  0
VERTEX
  8
0
 10
861.649206
 20
1049.092555
 42
-0.003462
  0
VERTEX
  8
0
 10
856.402686
 20
1052.234338
 42
-0.003663
  0
VERTEX
  8
0
 10
851.298437
 20
1055.390613
 42
0.005498
  0
VERTEX
  8
0
 10
846.137582
 20
1058.555775
 42
0.004937
  0
VERTEX
  8
0
 10
840.720869
 20
1061.724233
 42
0.004954
  0
VERTEX
  8
0
 10
835.804378
 20
1064.471036
 42
0.015476
  0
VERTEX
  8
0
 10
832.423804
 20
1066.182452
 42
0.000000
  0
VERTEX
  8
0
 10
825.750734
 20
1069.305159
 42
0.000000
  0
VERTEX
  8
0
 10
811.625367
 20
1067.662781
 42
-0.007773
  0
VERTEX
  8
0
 10
794.725660
 20
1065.963643
 42
-0.007466
  0
VERTEX
  8
0
 10
777.552331
 20
1064.764222
 42
-0.005593
  0
VERTEX
  8
0
 10
756.468662
 20
1063.844149
 42
-0.002022
  0
VERTEX
  8
0
 10
726.500000
 20
1062.993400
 42
0.002097
  0
VERTEX
  8
0
 10
698.432857
 20
1062.192430
 42
0.013393
  0
VERTEX
  8
0
 10
684.221065
 20
1061.345707
 42
0.026279
  0
VERTEX
  8
0
 10
674.813731
 20
1060.031149
 42
0.035255
  0
VERTEX
  8
0
 10
666.500000
 20
1057.802916
 42
0.018264
  0
VERTEX
  8
0
 10
659.047334
 20
1054.921998
 42
0.034337
  0
VERTEX
  8
0
 10
653.307257
 20
1051.977006
 42
0.040968
  0
VERTEX
  8
0
 10
648.753869
 20
1048.694748
 42
0.044991
  0
VERTEX
  8
0
 10
644.950125
 20
1044.806483
 42
-0.010169
  0
VERTEX
  8
0
 10
642.692696
 20
1042.152471
 42
-0.003445
  0
VERTEX
  8
0
 10
639.303720
 20
1038.381160
 42
-0.003424
  0
VERTEX
  8
0
 10
635.500136
 20
1034.263665
 42
-0.003929
  0
VERTEX
  8
0
 10
631.809717
 20
1030.384702
 42
0.005767
  0
VERTEX
  8
0
 10
628.433581
 20
1026.809855
 42
0.008735
  0
VERTEX
  8
0
 10
625.587854
 20
1023.615970
 42
0.004232
  0
VERTEX
  8
0
 10
623.260469
 20
1020.863332
 42
0.175112
  0
VERTEX
  8
0
 10
623.000000
 20
1020.142416
 42
0.151627
  0
VERTEX
  8
0
 10
623.185280
 20
1019.545491
 42
0.022943
  0
VERTEX
  8
0
 10
623.948901
 20
1018.536402
 42
0.023960
  0
VERTEX
  8
0
 10
624.993379
 20
1017.396162
 42
0.018665
  0
VERTEX
  8
0
 10
626.230301
 20
1016.257714
 42
-0.008807
  0
VERTEX
  8
0
 10
631.249172
 20
1011.817919
 42
-0.036065
  0
VERTEX
  8
0
 10
634.039169
 20
1008.863790
 42
-0.062531
  0
VERTEX
  8
0
 10
635.507731
 20
1006.520538
 42
-0.109164
  0
VERTEX
  8
0
 10
636.000000
 20
1004.292694
 42
-0.030260
  0
VERTEX
  8
0
 10
635.627099
 20
998.136796
 42
-0.003336
  0
VERTEX
  8
0
 10
633.827706
 20
984.120182
 42
-0.003530
  0
VERTEX
  8
0
 10
631.841225
 20
970.166198
 42
-0.026881
  0
VERTEX
  8
0
 10
630.509012
 20
963.668186
 42
-0.012554
  0
VERTEX
  8
0
 10
629.176566
 20
959.053088
 42
-0.044508
  0
VERTEX
  8
0
 10
627.991548
 20
956.211802
 42
-0.033321
  0
VERTEX
  8
0
 10
626.167800
 20
953.241927
 42
-0.004849
  0
VERTEX
  8
0
 10
622.007383
 20
947.500000
 42
0.018394
  0
VERTEX
  8
0
 10
616.370890
 20
939.260113
 42
0.056235
  0
VERTEX
  8
0
 10
613.424898
 20
933.173986
 42
0.060187
  0
VERTEX
  8
0
 10
612.014709
 20
926.814870
 42
0.023386
  0
VERTEX
  8
0
 10
611.552332
 20
917.798186
 42
0.000000
  0
VERTEX
  8
0
 10
611.500000
 20
906.096372
 42
0.000000
  0
VERTEX
  8
0
 10
615.093139
 20
902.298186
 42
-0.010758
  0
VERTEX
  8
0
 10
616.641931
 20
900.588798
 42
-0.007389
  0
VERTEX
  8
0
 10
618.327024
 20
898.587592
 42
-0.007452
  0
VERTEX
  8
0
 10
619.892825
 20
896.611905
 42
-0.015006
  0
VERTEX
  8
0
 10
621.056424
 20
895.000000
 42
0.025342
  0
VERTEX
  8
0
 10
623.457362
 20
891.814840
 42
0.085196
  0
VERTEX
  8
0
 10
625.440037
 20
890.130501
 42
0.095421
  0
VERTEX
  8
0
 10
627.743437
 20
889.305396
 42
0.036731
  0
VERTEX
  8
0
 10
631.144245
 20
889.031803
 42
0.065980
  0
VERTEX
  8
0
 10
634.558734
 20
889.460576
 42
0.084946
  0
VERTEX
  8
0
 10
637.433914
 20
890.765903
 42
0.063975
  0
VERTEX
  8
0
 10
640.270343
 20
893.270934
 42
0.022482
  0
VERTEX
  8
0
 10
643.670096
 20
897.521605
 42
0.000000
  0
VERTEX
  8
0
 10
645.840192
 20
900.500000
 42
0.000000
  0
VERTEX
  8
0
 10
647.042814
 20
897.178592
 42
0.082690
  0
VERTEX
  8
0
 10
648.428716
 20
894.714836
 42
0.109308
  0
VERTEX
  8
0
 10
650.432186
 20
893.109110
 42
0.112996
  0
VERTEX
  8
0
 10
652.872399
 20
892.530413
 42
0.093050
  0
VERTEX
  8
0
 10
655.512291
 20
893.004673
 42
0.089461
  0
VERTEX
  8
0
 10
657.282886
 20
894.070283
 42
0.083889
  0
VERTEX
  8
0
 10
658.616430
 20
895.708631
 42
0.052798
  0
VERTEX
  8
0
 10
659.751801
 20
898.318685
 42
0.014504
  0
VERTEX
  8
0
 10
660.974050
 20
902.637289
 42
-0.054120
  0
VERTEX
  8
0
 10
661.782935
 20
904.819730
 42
-0.023085
  0
VERTEX
  8
0
 10
663.303196
 20
907.542492
 42
-0.020479
  0
VERTEX
  8
0
 10
665.371797
 20
910.589981
 42
-0.014982
  0
VERTEX
  8
0
 10
667.902671
 20
913.802536
 42
0.033800
  0
VERTEX
  8
0
 10
673.583083
 20
921.599122
 42
0.114169
  0
VERTEX
  8
0
 10
675.640254
 20
927.513776
 42
0.121953
  0
VERTEX
  8
0
 10
674.824482
 20
933.504555
 42
0.041191
  0
VERTEX
  8
0
 10
670.882883
 20
941.452545
 42
-0.029237
  0
VERTEX
  8
0
 10
668.089395
 20
946.762978
 42
-0.067419
  0
VERTEX
  8
0
 10
666.797043
 20
951.075308
 42
-0.102925
  0
VERTEX
  8
0
 10
666.956717
 20
954.358837
 42
-0.173126
  0
VERTEX
  8
0
 10
668.489651
 20
956.616091
 42
-0.091497
  0
VERTEX
  8
0
 10
669.700156
 20
957.199169
 42
-0.027429
  0
VERTEX
  8
0
 10
671.709441
 20
957.630699
 42
-0.023983
  0
VERTEX
  8
0
 10
674.259427
 20
957.909115
 42
-0.015200
  0
VERTEX
  8
0
 10
677.248310
 20
958.000000
 42
0.022086
  0
VERTEX
  8
0
 10
682.828385
 20
958.246609
 42
0.027951
  0
VERTEX
  8
0
 10
687.936955
 20
958.988515
 42
0.020695
  0
VERTEX
  8
0
 10
693.998498
 20
960.481462
 42
0.006382
  0
VERTEX
  8
0
 10
703.000000
 20
963.223008
 42
-0.013377
  0
VERTEX
  8
0
 10
707.125860
 20
964.416802
 42
-0.012517
  0
VERTEX
  8
0
 10
711.401737
 20
965.417377
 42
-0.012944
  0
VERTEX
  8
0
 10
715.301547
 20
966.122795
 42
-0.032755
  0
VERTEX
  8
0
 10
718.170629
 20
966.374708
 42
-0.051563
  0
VERTEX
  8
0
 10
722.742100
 20
966.003867
 42
-0.096312
  0
VERTEX
  8
0
 10
726.183269
 20
964.645314
 42
-0.061716
  0
VERTEX
  8
0
 10
729.784094
 20
961.665429
 42
-0.011674
  0
VERTEX
  8
0
 10
735.500000
 20
955.314921
 42
0.006287
  0
VERTEX
  8
0
 10
737.943818
 20
952.540239
 42
0.007442
  0
VERTEX
  8
0
 10
740.325000
 20
949.981840
 42
0.006585
  0
VERTEX
  8
0
 10
742.391328
 20
947.882984
 42
0.046144
  0
VERTEX
  8
0
 10
743.500000
 20
946.972020
 42
0.132104
  0
VERTEX
  8
0
 10
746.403026
 20
945.968225
 42
0.023423
  0
VERTEX
  8
0
 10
752.207856
 20
945.832472
 42
0.022281
  0
VERTEX
  8
0
 10
759.596491
 20
946.335756
 42
0.013749
  0
VERTEX
  8
0
 10
768.223440
 20
947.552024
 42
-0.001035
  0
VERTEX
  8
0
 10
780.115941
 20
949.538233
 42
-0.029840
  0
VERTEX
  8
0
 10
783.195833
 20
949.858932
 42
-0.187008
  0
VERTEX
  8
0
 10
784.467810
 20
949.429414
 42
-0.222411
  0
VERTEX
  8
0
 10
785.000000
 20
948.292184
 42
-0.228691
  0
VERTEX
  8
0
 10
784.051504
 20
946.326895
 42
-0.090926
  0
VERTEX
  8
0
 10
781.340471
 20
944.880369
 42
-0.045141
  0
VERTEX
  8
0
 10
776.416508
 20
943.786686
 42
-0.010786
  0
VERTEX
  8
0
 10
768.072008
 20
942.892306
 42
0.007152
  0
VERTEX
  8
0
 10
758.149659
 20
941.901691
 42
0.020779
  0
VERTEX
  8
0
 10
751.340927
 20
940.835274
 42
0.024082
  0
VERTEX
  8
0
 10
746.740042
 20
939.684611
 42
0.231815
  0
VERTEX
  8
0
 10
745.304102
 20
938.350093
 42
0.151839
  0
VERTEX
  8
0
 10
745.171880
 20
936.319738
 42
0.084950
  0
VERTEX
  8
0
 10
746.157919
 20
934.024979
 42
0.075067
  0
VERTEX
  8
0
 10
748.017587
 20
931.926695
 42
0.075136
  0
VERTEX
  8
0
 10
750.413305
 20
930.471777
 42
0.047693
  0
VERTEX
  8
0
 10
753.849832
 20
929.406980
 42
0.009919
  0
VERTEX
  8
0
 10
760.066435
 20
928.241577
 42
0.006451
  0
VERTEX
  8
0
 10
769.751925
 20
926.752218
 42
0.001406
  0
VERTEX
  8
0
 10
786.483437
 20
924.447867
 42
-0.009710
  0
VERTEX
  8
0
 10
795.145437
 20
923.107958
 42
-0.035126
  0
VERTEX
  8
0
 10
800.557737
 20
921.765604
 42
-0.058325
  0
VERTEX
  8
0
 10
803.984811
 20
920.194488
 42
-0.134052
  0
VERTEX
  8
0
 10
805.919509
 20
918.150400
 42
-0.038664
  0
VERTEX
  8
0
 10
806.998369
 20
915.695780
 42
-0.302213
  0
VERTEX
  8
0
 10
806.704544
 20
914.545813
 42
-0.196772
  0
VERTEX
  8
0
 10
805.338853
 20
914.054884
 42
-0.018378
  0
VERTEX
  8
0
 10
801.701215
 20
914.347405
 42
0.017387
  0
VERTEX
  8
0
 10
798.991541
 20
914.570706
 42
0.044959
  0
VERTEX
  8
0
 10
797.033664
 20
914.487633
 42
0.059744
  0
VERTEX
  8
0
 10
795.477039
 20
914.087493
 42
0.060087
  0
VERTEX
  8
0
 10
794.062399
 20
913.331152
 42
0.076016
  0
VERTEX
  8
0
 10
792.745394
 20
912.072485
 42
0.125045
  0
VERTEX
  8
0
 10
792.138100
 20
910.665631
 42
0.052527
  0
VERTEX
  8
0
 10
792.014387
 20
908.366151
 42
0.004914
  0
VERTEX
  8
0
 10
792.360711
 20
902.699098
 42
0.013668
  0
VERTEX
  8
0
 10
793.020735
 20
895.999342
 42
0.092954
  0
VERTEX
  8
0
 10
794.033436
 20
892.847731
 42
0.209749
  0
VERTEX
  8
0
 10
795.738751
 20
891.521467
 42
0.113744
  0
VERTEX
  8
0
 10
798.443987
 20
891.464673
 42
-0.024896
  0
VERTEX
  8
0
 10
811.217340
 20
893.470259
 42
-0.016131
  0
VERTEX
  8
0
 10
826.136687
 20
894.571804
 42
-0.014982
  0
VERTEX
  8
0
 10
842.458788
 20
894.759166
 42
-0.013129
  0
VERTEX
  8
0
 10
859.500000
 20
893.996245
 42
-0.006174
  0
VERTEX
  8
0
 10
872.194782
 20
892.935752
 42
-0.018622
  0
VERTEX
  8
0
 10
880.801727
 20
891.784822
 42
-0.024953
  0
VERTEX
  8
0
 10
887.791169
 20
890.221350
 42
-0.021718
  0
VERTEX
  8
0
 10
894.928036
 20
887.908488
 42
-0.132708
  0
VERTEX
  8
0
 10
897.521089
 20
886.054559
 42
-0.079661
  0
VERTEX
  8
0
 10
899.437700
 20
882.762637
 42
-0.060319
  0
VERTEX
  8
0
 10
900.612227
 20
878.119506
 42
-0.032656
  0
VERTEX
  8
0
 10
900.977764
 20
872.229764
 42
-0.032892
  0
VERTEX
  8
0
 10
900.624735
 20
867.126364
 42
-0.111032
  0
VERTEX
  8
0
 10
899.466664
 20
864.011798
 42
-0.070868
  0
VERTEX
  8
0
 10
896.816672
 20
860.982070
 42
-0.008361
  0
VERTEX
  8
0
 10
889.917023
 20
855.241717
 42
0.022899
  0
VERTEX
  8
0
 10
881.109021
 20
847.469536
 42
0.057210
  0
VERTEX
  8
0
 10
875.670538
 20
840.849234
 42
0.040349
  0
VERTEX
  8
0
 10
870.873602
 20
831.915273
 42
0.007016
  0
VERTEX
  8
0
 10
863.445008
 20
814.250000
 42
-0.002975
  0
VERTEX
  8
0
 10
860.411336
 20
806.869539
 42
-0.004864
  0
VERTEX
  8
0
 10
857.742131
 20
800.654688
 42
-0.001024
  0
VERTEX
  8
0
 10
855.347238
 20
795.254795
 42
-0.296047
  0
VERTEX
  8
0
 10
854.954626
 20
795.000000
 42
-0.206170
  0
VERTEX
  8
0
 10
854.529372
 20
795.183134
 42
-0.006222
  0
VERTEX
  8
0
 10
853.194208
 20
796.630585
 42
-0.011375
  0
VERTEX
  8
0
 10
851.653397
 20
798.423664
 42
-0.007502
  0
VERTEX
  8
0
 10
849.960710
 20
800.550927
 42
0.031603
  0
VERTEX
  8
0
 10
845.577819
 20
805.545107
 42
0.110374
  0
VERTEX
  8
0
 10
841.984735
 20
807.835278
 42
0.197968
  0
VERTEX
  8
0
 10
838.976404
 20
807.704979
 42
0.140052
  0
VERTEX
  8
0
 10
836.387479
 20
805.468615
 42
0.137952
  0
VERTEX
  8
0
 10
835.122889
 20
801.463899
 42
0.063129
  0
VERTEX
  8
0
 10
835.643867
 20
795.961405
 42
0.054264
  0
VERTEX
  8
0
 10
837.750291
 20
789.789797
 42
0.044277
  0
VERTEX
  8
0
 10
841.255358
 20
783.750000
 42
-0.191832
  0
VERTEX
  8
0
 10
841.762654
 20
781.633683
 42
-0.182587
  0
VERTEX
  8
0
 10
840.690025
 20
779.693308
 42
-0.076354
  0
VERTEX
  8
0
 10
837.512003
 20
777.735206
 42
-0.016206
  0
VERTEX
  8
0
 10
831.425951
 20
775.392973
 42
0.000449
  0
VERTEX
  8
0
 10
827.897861
 20
774.161333
 42
0.000590
  0
VERTEX
  8
0
 10
824.681373
 20
773.030966
 42
0.000427
  0
VERTEX
  8
0
 10
821.986746
 20
772.077832
 42
0.005693
  0
VERTEX
  8
0
 10
821.000000
 20
771.715156
 42
-0.006632
  0
VERTEX
  8
0
 10
820.075702
 20
771.377401
 42
-0.000802
  0
VERTEX
  8
0
 10
818.031250
 20
770.664597
 42
-0.000953
  0
VERTEX
  8
0
 10
815.598697
 20
769.826048
 42
-0.000785
  0
VERTEX
  8
0
 10
813.000000
 20
768.940321
 42
0.013996
  0
VERTEX
  8
0
 10
806.528540
 20
766.542004
 42
0.036836
  0
VERTEX
  8
0
 10
802.090888
 20
764.362494
 42
0.045656
  0
VERTEX
  8
0
 10
798.597523
 20
761.861045
 42
0.034098
  0
VERTEX
  8
0
 10
795.230906
 20
758.524983
 42
0.079458
  0
VERTEX
  8
0
 10
786.436393
 20
744.596893
 42
0.066126
  0
VERTEX
  8
0
 10
781.716615
 20
727.711438
 42
0.073308
  0
VERTEX
  8
0
 10
781.807577
 20
712.174228
 42
0.181732
  0
VERTEX
  8
0
 10
787.293891
 20
702.406161
 42
0.076079
  0
VERTEX
  8
0
 10
789.897312
 20
700.818432
 42
0.092784
  0
VERTEX
  8
0
 10
792.683590
 20
700.222417
 42
0.048690
  0
VERTEX
  8
0
 10
796.733658
 20
700.512928
 42
0.007896
  0
VERTEX
  8
0
 10
804.500000
 20
701.963932
 42
-0.018028
  0
VERTEX
  8
0
 10
811.774906
 20
703.171149
 42
-0.011260
  0
VERTEX
  8
0
 10
820.365338
 20
704.084058
 42
-0.010466
  0
VERTEX
  8
0
 10
828.409873
 20
704.586866
 42
-0.043284
  0
VERTEX
  8
0
 10
833.272445
 20
704.367787
 42
-0.038437
  0
VERTEX
  8
0
 10
837.878935
 20
703.393774
 42
-0.466612
  0
VERTEX
  8
0
 10
838.514321
 20
701.941508
 42
-0.140088
  0
VERTEX
  8
0
 10
836.586461
 20
699.826355
 42
-0.007420
  0
VERTEX
  8
0
 10
828.671133
 20
695.097933
 42
-0.001980
  0
VERTEX
  8
0
 10
825.255669
 20
693.143784
 42
-0.003127
  0
VERTEX
  8
0
 10
822.308899
 20
691.497518
 42
-0.000782
  0
VERTEX
  8
0
 10
819.724910
 20
690.080311
 42
-0.125679
  0
VERTEX
  8
0
 10
819.410447
 20
690.000000
 42
0.133363
  0
VERTEX
  8
0
 10
819.097647
 20
689.915057
 42
0.000759
  0
VERTEX
  8
0
 10
816.443639
 20
688.353455
 42
0.003158
  0
VERTEX
  8
0
 10
813.421780
 20
686.543399
 42
0.001994
  0
VERTEX
  8
0
 10
809.917059
 20
684.394742
 42
0.018555
  0
VERTEX
  8
0
 10
805.731577
 20
681.585831
 42
0.010035
  0
VERTEX
  8
0
 10
800.785453
 20
677.839431
 42
0.009907
  0
VERTEX
  8
0
 10
795.821951
 20
673.758452
 42
0.013743
  0
VERTEX
  8
0
 10
791.551426
 20
669.894742
 42
-0.009147
  0
VERTEX
  8
0
 10
787.685027
 20
666.331504
 42
-0.015225
  0
VERTEX
  8
0
 10
784.285646
 20
663.492137
 42
-0.012607
  0
VERTEX
  8
0
 10
781.476364
 20
661.399567
 42
-0.154974
  0
VERTEX
  8
0
 10
780.218182
 20
661.000000
 42
-0.108861
  0
VERTEX
  8
0
 10
777.307265
 20
661.641374
 42
-0.026935
  0
VERTEX
  8
0
 10
772.963446
 20
663.944907
 42
-0.018145
  0
VERTEX
  8
0
 10
766.824044
 20
667.947423
 42
-0.005030
  0
VERTEX
  8
0
 10
757.490120
 20
674.668721
 42
0.016203
  0
VERTEX
  8
0
 10
745.680767
 20
682.778158
 42
0.029110
  0
VERTEX
  8
0
 10
735.430743
 20
688.526862
 42
0.030805
  0
VERTEX
  8
0
 10
724.992133
 20
692.834057
 42
0.020909
  0
VERTEX
  8
0
 10
712.659591
 20
696.486558
 42
-0.009389
  0
VERTEX
  8
0
 10
706.908970
 20
698.046580
 42
-0.008715
  0
VERTEX
  8
0
 10
701.075422
 20
699.858215
 42
-0.008733
  0
VERTEX
  8
0
 10
695.943569
 20
701.650512
 42
-0.028804
  0
VERTEX
  8
0
 10
692.659591
 20
703.081986
 42
-0.039329
  0
VERTEX
  8
0
 10
683.183972
 20
708.856066
 42
-0.017465
  0
VERTEX
  8
0
 10
671.621270
 20
717.845111
 42
-0.016614
  0
VERTEX
  8
0
 10
661.031354
 20
727.302581
 42
-0.061288
  0
VERTEX
  8
0
 10
655.358166
 20
734.230128
 42
-0.077732
  0
VERTEX
  8
0
 10
653.569785
 20
738.360610
 42
-0.059561
  0
VERTEX
  8
0
 10
652.909277
 20
743.242956
 42
-0.061877
  0
VERTEX
  8
0
 10
653.416034
 20
747.912118
 42
-0.109133
  0
VERTEX
  8
0
 10
655.092389
 20
751.390324
 42
-0.070187
  0
VERTEX
  8
0
 10
657.186879
 20
753.397582
 42
-0.038958
  0
VERTEX
  8
0
 10
660.216555
 20
755.238926
 42
-0.039080
  0
VERTEX
  8
0
 10
663.455847
 20
756.570891
 42
-0.078158
  0
VERTEX
  8
0
 10
666.184227
 20
757.000000
 42
-0.046882
  0
VERTEX
  8
0
 10
667.239052
 20
756.900877
 42
-0.010704
  0
VERTEX
  8
0
 10
668.994757
 20
756.528862
 42
-0.010982
  0
VERTEX
  8
0
 10
671.008154
 20
756.010096
 42
-0.010495
  0
VERTEX
  8
0
 10
673.027764
 20
755.396127
 42
0.017791
  0
VERTEX
  8
0
 10
676.026628
 20
754.532046
 42
0.063525
  0
VERTEX
  8
0
 10
678.005351
 20
754.297305
 42
0.059631
  0
VERTEX
  8
0
 10
680.042950
 20
754.559384
 42
0.014427
  0
VERTEX
  8
0
 10
683.318327
 20
755.486675
 42
0.062700
  0
VERTEX
  8
0
 10
690.602108
 20
758.826968
 42
0.051000
  0
VERTEX
  8
0
 10
697.404525
 20
764.075091
 42
0.053754
  0
VERTEX
  8
0
 10
702.533938
 20
770.111400
 42
0.116426
  0
VERTEX
  8
0
 10
704.695353
 20
775.765350
 42
0.077961
  0
VERTEX
  8
0
 10
704.573012
 20
781.256739
 42
0.085574
  0
VERTEX
  8
0
 10
702.755385
 20
786.257636
 42
0.100725
  0
VERTEX
  8
0
 10
699.689697
 20
789.752165
 42
0.163921
  0
VERTEX
  8
0
 10
695.985753
 20
791.000000
 42
0.125167
  0
VERTEX
  8
0
 10
693.474674
 20
790.361388
 42
0.089132
  0
VERTEX
  8
0
 10
691.199926
 20
788.537374
 42
0.069452
  0
VERTEX
  8
0
 10
689.260474
 20
785.567118
 42
0.039760
  0
VERTEX
  8
0
 10
687.748438
 20
781.553620
 42
-0.049034
  0
VERTEX
  8
0
 10
685.866258
 20
776.824833
 42
-0.493164
  0
VERTEX
  8
0
 10
684.069077
 20
776.502114
 42
-0.150072
  0
VERTEX
  8
0
 10
682.291060
 20
779.507532
 42
-0.013349
  0
VERTEX
  8
0
 10
680.440025
 20
788.208816
 42
0.004384
  0
VERTEX
  8
0
 10
679.774201
 20
791.639816
 42
0.004257
  0
VERTEX
  8
0
 10
679.042020
 20
795.092590
 42
0.004204
  0
VERTEX
  8
0
 10
678.346852
 20
798.117643
 42
0.015718
  0
VERTEX
  8
0
 10
677.834549
 20
800.000000
 42
0.143427
  0
VERTEX
  8
0
 10
673.037225
 20
807.289322
 42
0.075364
  0
VERTEX
  8
0
 10
663.729287
 20
813.039349
 42
0.059456
  0
VERTEX
  8
0
 10
650.742731
 20
816.832224
 42
0.037542
  0
VERTEX
  8
0
 10
635.000000
 20
818.258274
 42
0.007807
  0
VERTEX
  8
0
 10
628.351366
 20
818.256127
 42
0.044398
  0
VERTEX
  8
0
 10
624.837114
 20
817.886926
 42
0.050370
  0
VERTEX
  8
0
 10
621.633897
 20
816.916842
 42
0.011774
  0
VERTEX
  8
0
 10
616.500000
 20
814.634848
 42
-0.008249
  0
VERTEX
  8
0
 10
609.872667
 20
811.632909
 42
-0.018932
  0
VERTEX
  8
0
 10
604.767196
 20
809.647049
 42
-0.021510
  0
VERTEX
  8
0
 10
599.942690
 20
808.206901
 42
-0.014221
  0
VERTEX
  8
0
 10
594.295019
 20
806.952081
 42
-0.039232
  0
VERTEX
  8
0
 10
587.041671
 20
806.137994
 42
-0.023781
  0
VERTEX
  8
0
 10
578.400368
 20
806.260775
 42
-0.023857
  0
VERTEX
  8
0
 10
570.041669
 20
807.179439
 42
-0.050550
  0
VERTEX
  8
0
 10
563.750000
 20
808.840940
 42
0.003039
  0
VERTEX
  8
0
 10
554.053702
 20
812.414709
 42
0.013567
  0
VERTEX
  8
0
 10
548.300673
 20
814.320646
 42
0.019830
  0
VERTEX
  8
0
 10
543.561411
 20
815.546573
 42
0.012866
  0
VERTEX
  8
0
 10
538.000000
 20
816.603121
 42
0.011358
  0
VERTEX
  8
0
 10
529.001294
 20
817.864765
 42
0.048466
  0
VERTEX
  8
0
 10
523.583121
 20
817.971642
 42
0.084582
  0
VERTEX
  8
0
 10
519.893617
 20
817.045674
 42
0.101542
  0
VERTEX
  8
0
 10
516.979975
 20
814.978563
 42
0.046644
  0
VERTEX
  8
0
 10
514.257072
 20
811.456626
 42
0.026367
  0
VERTEX
  8
0
 10
511.610299
 20
806.749120
 42
0.025389
  0
VERTEX
  8
0
 10
509.581373
 20
802.064400
 42
0.089724
  0
VERTEX
  8
0
 10
509.000000
 20
798.850709
 42
0.105985
  0
VERTEX
  8
0
 10
509.990437
 20
794.230657
 42
0.100041
  0
VERTEX
  8
0
 10
512.798124
 20
790.312604
 42
0.071089
  0
VERTEX
  8
0
 10
517.797313
 20
786.835996
 42
0.028065
  0
VERTEX
  8
0
 10
525.500000
 20
783.491835
 42
0.033232
  0
VERTEX
  8
0
 10
532.585257
 20
781.400286
 42
0.068354
  0
VERTEX
  8
0
 10
538.336618
 20
780.915397
 42
0.063631
  0
VERTEX
  8
0
 10
544.265297
 20
781.991036
 42
0.025529
  0
VERTEX
  8
0
 10
552.000000
 20
784.881363
 42
-0.004293
  0
VERTEX
  8
0
 10
555.712704
 20
786.451408
 42
-0.006317
  0
VERTEX
  8
0
 10
559.003125
 20
787.761288
 42
-0.003208
  0
VERTEX
  8
0
 10
561.804323
 20
788.815054
 42
-0.110462
  0
VERTEX
  8
0
 10
562.500000
 20
788.908384
 42
-0.173790
  0
VERTEX
  8
0
 10
563.104677
 20
788.630471
 42
-0.005868
  0
VERTEX
  8
0
 10
564.986717
 20
786.743550
 42
-0.010456
  0
VERTEX
  8
0
 10
567.166082
 20
784.410976
 42
-0.007030
  0
VERTEX
  8
0
 10
569.561164
 20
781.660748
 42
0.023170
  0
VERTEX
  8
0
 10
574.431146
 20
776.420137
 42
0.060595
  0
VERTEX
  8
0
 10
578.501441
 20
773.295810
 42
0.076014
  0
VERTEX
  8
0
 10
582.614968
 20
771.643807
 42
0.055922
  0
VERTEX
  8
0
 10
587.500000
 20
771.062585
 42
0.044572
  0
VERTEX
  8
0
 10
592.308073
 20
771.459614
 42
0.041315
  0
VERTEX
  8
0
 10
597.098016
 20
772.703403
 42
0.036559
  0
VERTEX
  8
0
 10
602.120104
 20
774.884512
 42
0.023090
  0
VERTEX
  8
0
 10
607.638425
 20
778.110232
 42
-0.026497
  0
VERTEX
  8
0
 10
612.651624
 20
780.995062
 42
-0.057082
  0
VERTEX
  8
0
 10
616.822419
 20
782.541907
 42
-0.092975
  0
VERTEX
  8
0
 10
619.814309
 20
782.708706
 42
-0.275322
  0
VERTEX
  8
0
 10
621.366998
 20
781.486003
 42
-0.070495
  0
VERTEX
  8
0
 10
622.349012
 20
777.208204
 42
-0.005539
  0
VERTEX
  8
0
 10
623.212790
 20
765.527680
 42
-0.007987
  0
VERTEX
  8
0
 10
623.761517
 20
753.802218
 42
-0.026380
  0
VERTEX
  8
0
 10
623.591733
 20
746.071501
 42
-0.016450
  0
VERTEX
  8
0
 10
622.816987
 20
738.899341
 42
-0.017432
  0
VERTEX
  8
0
 10
621.582537
 20
731.932152
 42
-0.015027
  0
VERTEX
  8
0
 10
619.697282
 20
724.237359
 42
-0.007843
  0
VERTEX
  8
0
 10
616.911892
 20
714.765501
 42
0.000000
  0
VERTEX
  8
0
 10
613.882589
 20
705.031001
 42
0.000000
  0
VERTEX
  8
0
 10
616.869485
 20
700.689697
 42
0.039873
  0
VERTEX
  8
0
 10
621.009393
 20
695.594699
 42
0.021830
  0
VERTEX
  8
0
 10
626.816566
 20
690.018664
 42
0.020854
  0
VERTEX
  8
0
 10
633.554542
 20
684.572822
 42
0.022381
  0
VERTEX
  8
0
 10
640.570130
 20
679.842068
 42
-0.009396
  0
VERTEX
  8
0
 10
643.769097
 20
677.803706
 42
-0.016307
  0
VERTEX
  8
0
 10
646.334913
 20
675.976888
 42
-0.010797
  0
VERTEX
  8
0
 10
648.270899
 20
674.433843
 42
-0.459080
  0
VERTEX
  8
0
 10
648.278156
 20
673.966135
 42
-0.147069
  0
VERTEX
  8
0
 10
647.611976
 20
673.657780
 42
-0.002759
  0
VERTEX
  8
0
 10
643.762958
 20
673.131284
 42
-0.006493
  0
VERTEX
  8
0
 10
639.230066
 20
672.596480
 42
-0.004268
  0
VERTEX
  8
0
 10
634.000000
 20
672.093272
 42
0.001870
  0
VERTEX
  8
0
 10
628.281550
 20
671.570745
 42
0.001600
  0
VERTEX
  8
0
 10
622.262500
 20
670.978600
 42
0.001612
  0
VERTEX
  8
0
 10
616.795980
 20
670.405331
 42
0.004609
  0
VERTEX
  8
0
 10
613.000000
 20
669.959439
 42
-0.001751
  0
VERTEX
  8
0
 10
593.375457
 20
667.540476
 42
-0.005231
  0
VERTEX
  8
0
 10
579.925858
 20
666.072998
 42
-0.007497
  0
VERTEX
  8
0
 10
570.106012
 20
665.253847
 42
-0.017060
  0
VERTEX
  8
0
 10
562.668255
 20
665.000000
 42
0.022138
  0
VERTEX
  8
0
 10
556.008624
 20
664.704988
 42
0.029505
  0
VERTEX
  8
0
 10
550.019948
 20
663.814998
 42
0.029568
  0
VERTEX
  8
0
 10
544.187628
 20
662.228178
 42
0.022380
  0
VERTEX
  8
0
 10
538.000000
 20
659.831688
 42
-0.003964
  0
VERTEX
  8
0
 10
536.019550
 20
658.979531
 42
-0.002793
  0
VERTEX
  8
0
 10
533.780150
 20
658.051614
 42
-0.002517
  0
VERTEX
  8
0
 10
531.278003
 20
657.045828
 42
-0.001861
  0
VERTEX
  8
0
 10
528.500000
 20
655.957313
 42
0.000087
  0
VERTEX
  8
0
 10
527.249318
 20
655.472364
 42
0.000009
  0
VERTEX
  8
0
 10
524.335591
 20
654.341928
 42
0.000011
  0
VERTEX
  8
0
 10
520.865463
 20
652.995461
 42
0.000009
  0
VERTEX
  8
0
 10
517.131799
 20
651.546562
 42
-0.003928
  0
VERTEX
  8
0
 10
512.809963
 20
649.908269
 42
-0.002188
  0
VERTEX
  8
0
 10
507.520582
 20
647.976861
 42
-0.002182
  0
VERTEX
  8
0
 10
502.151685
 20
646.069428
 42
-0.003534
  0
VERTEX
  8
0
 10
497.568108
 20
644.499777
 42
0.014487
  0
VERTEX
  8
0
 10
485.397767
 20
640.031908
 42
0.026678
  0
VERTEX
  8
0
 10
475.830789
 20
635.596133
 42
0.031237
  0
VERTEX
  8
0
 10
468.961548
 20
631.385063
 42
0.133502
  0
VERTEX
  8
0
 10
465.918207
 20
627.719830
 42
0.115845
  0
VERTEX
  8
0
 10
465.357117
 20
624.906597
 42
0.124140
  0
VERTEX
  8
0
 10
466.133116
 20
622.216240
 42
0.100700
  0
VERTEX
  8
0
 10
468.285965
 20
619.803590
 42
0.056321
  0
VERTEX
  8
0
 10
471.695404
 20
617.810539
 42
0.029719
  0
VERTEX
  8
0
 10
474.585220
 20
616.732522
 42
0.047293
  0
VERTEX
  8
0
 10
477.167684
 20
616.200648
 42
0.034318
  0
VERTEX
  8
0
 10
480.337927
 20
616.073793
 42
0.008873
  0
VERTEX
  8
0
 10
485.449458
 20
616.310935
 42
0.024754
  0
VERTEX
  8
0
 10
495.262577
 20
617.430549
 42
0.038328
  0
VERTEX
  8
0
 10
503.543441
 20
619.454541
 42
0.033211
  0
VERTEX
  8
0
 10
512.218913
 20
622.947170
 42
0.013716
  0
VERTEX
  8
0
 10
523.473306
 20
628.757236
 42
0.000000
  0
VERTEX
  8
0
 10
528.446611
 20
631.500000
 42
0.000000
  0
VERTEX
  8
0
 10
579.473306
 20
631.481713
 42
-0.001496
  0
VERTEX
  8
0
 10
615.873053
 20
631.359733
 42
-0.019639
  0
VERTEX
  8
0
 10
629.342754
 20
630.744860
 42
-0.056170
  0
VERTEX
  8
0
 10
637.051385
 20
629.205400
 42
-0.081149
  0
VERTEX
  8
0
 10
643.231305
 20
626.056261
 42
-0.029729
  0
VERTEX
  8
0
 10
647.267182
 20
622.707195
 42
-0.068936
  0
VERTEX
  8
0
 10
649.739337
 20
619.656584
 42
-0.080976
  0
VERTEX
  8
0
 10
651.057034
 20
616.374527
 42
-0.055103
  0
VERTEX
  8
0
 10
651.500000
 20
612.367268
 42
-0.074744
  0
VERTEX
  8
0
 10
650.832678
 20
607.928158
 42
-0.078336
  0
VERTEX
  8
0
 10
648.892065
 20
603.959261
 42
-0.061730
  0
VERTEX
  8
0
 10
645.392519
 20
600.083470
 42
-0.027557
  0
VERTEX
  8
0
 10
639.943858
 20
595.872495
 42
-0.066273
  0
VERTEX
  8
0
 10
631.144320
 20
591.396987
 42
-0.040856
  0
VERTEX
  8
0
 10
619.891654
 20
588.445771
 42
-0.025908
  0
VERTEX
  8
0
 10
603.821394
 20
586.458756
 42
-0.007223
  0
VERTEX
  8
0
 10
578.500000
 20
585.019722
 42
0.003441
  0
VERTEX
  8
0
 10
551.491515
 20
583.689698
 42
0.015287
  0
VERTEX
  8
0
 10
535.661500
 20
582.314463
 42
0.023233
  0
VERTEX
  8
0
 10
525.619757
 20
580.655924
 42
0.127640
  0
VERTEX
  8
0
 10
520.750000
 20
578.218585
 42
0.160442
  0
VERTEX
  8
0
 10
519.310285
 20
575.787464
 42
0.065742
  0
VERTEX
  8
0
 10
518.979926
 20
571.919363
 42
0.059031
  0
VERTEX
  8
0
 10
519.704553
 20
567.541164
 42
0.062116
  0
VERTEX
  8
0
 10
521.427396
 20
563.533678
 42
0.065432
  0
VERTEX
  8
0
 10
523.792053
 20
560.491679
 42
0.022141
  0
VERTEX
  8
0
 10
527.961145
 20
556.722407
 42
0.022231
  0
VERTEX
  8
0
 10
532.816685
 20
553.059129
 42
0.030207
  0
VERTEX
  8
0
 10
537.519821
 20
550.230369
 42
0.078462
  0
VERTEX
  8
0
 10
543.785584
 20
548.122660
 42
0.011250
  0
VERTEX
  8
0
 10
557.212512
 20
546.156626
 42
0.009659
  0
VERTEX
  8
0
 10
576.355424
 20
544.166793
 42
0.003362
  0
VERTEX
  8
0
 10
604.000000
 20
542.019120
 42
-0.006738
  0
VERTEX
  8
0
 10
622.616034
 20
540.446347
 42
-0.027602
  0
VERTEX
  8
0
 10
633.813963
 20
538.720135
 42
-0.037711
  0
VERTEX
  8
0
 10
642.952132
 20
536.057480
 42
-0.021503
  0
VERTEX
  8
0
 10
653.543939
 20
531.555436
 42
0.004728
  0
VERTEX
  8
0
 10
657.295292
 20
529.810154
 42
0.006754
  0
VERTEX
  8
0
 10
660.659100
 20
528.338159
 42
0.003955
  0
VERTEX
  8
0
 10
663.509728
 20
527.162808
 42
0.096086
  0
VERTEX
  8
0
 10
664.349111
 20
527.000000
 42
-0.073959
  0
VERTEX
  8
0
 10
664.912584
 20
526.916194
 42
-0.038599
  0
VERTEX
  8
0
 10
665.575260
 20
526.657292
 42
-0.037338
  0
VERTEX
  8
0
 10
666.228021
 20
526.279846
 42
-0.046659
  0
VERTEX
  8
0
 10
666.766667
 20
525.833333
 42
0.152808
  0
VERTEX
  8
0
 10
667.727336
 20
525.330598
 42
0.019501
  0
VERTEX
  8
0
 10
670.064322
 20
525.001597
 42
0.018881
  0
VERTEX
  8
0
 10
673.207479
 20
524.802979
 42
0.009274
  0
VERTEX
  8
0
 10
677.216667
 20
524.775709
 42
-0.026889
  0
VERTEX
  8
0
 10
687.177430
 20
524.356907
 42
-0.082695
  0
VERTEX
  8
0
 10
693.675402
 20
522.622740
 42
-0.116037
  0
VERTEX
  8
0
 10
697.998076
 20
519.289623
 42
-0.085387
  0
VERTEX
  8
0
 10
700.974531
 20
514.000000
 42
-0.070459
  0
VERTEX
  8
0
 10
702.202124
 20
507.990150
 42
-0.008434
  0
VERTEX
  8
0
 10
702.799109
 20
494.411721
 42
-0.003826
  0
VERTEX
  8
0
 10
703.078575
 20
480.021500
 42
-0.263076
  0
VERTEX
  8
0
 10
701.950096
 20
477.969158
 42
-0.078555
  0
VERTEX
  8
0
 10
701.104698
 20
477.614926
 42
-0.010820
  0
VERTEX
  8
0
 10
699.236338
 20
477.200340
 42
-0.012194
  0
VERTEX
  8
0
 10
696.984090
 20
476.808315
 42
-0.010047
  0
VERTEX
  8
0
 10
694.565137
 20
476.497350
 42
0.023951
  0
VERTEX
  8
0
 10
686.021209
 20
475.156638
 42
0.040017
  0
VERTEX
  8
0
 10
679.039248
 20
473.122203
 42
0.048525
  0
VERTEX
  8
0
 10
673.582755
 20
470.415397
 42
0.078616
  0
VERTEX
  8
0
 10
669.678358
 20
467.029597
 42
0.051568
  0
VERTEX
  8
0
 10
667.863032
 20
464.355893
 42
0.035511
  0
VERTEX
  8
0
 10
666.360550
 20
461.013217
 42
0.035522
  0
VERTEX
  8
0
 10
665.346788
 20
457.493298
 42
0.051767
  0
VERTEX
  8
0
 10
665.005577
 20
454.285184
 42
-0.191110
  0
VERTEX
  8
0
 10
664.161912
 20
452.174049
 42
-0.136241
  0
VERTEX
  8
0
 10
661.957289
 20
450.846140
 42
-0.057438
  0
VERTEX
  8
0
 10
657.665379
 20
450.168632
 42
-0.010454
  0
VERTEX
  8
0
 10
649.600925
 20
450.000000
 42
0.004096
  0
VERTEX
  8
0
 10
642.831067
 20
449.944545
 42
0.034101
  0
VERTEX
  8
0
 10
639.776218
 20
449.685618
 42
0.085979
  0
VERTEX
  8
0
 10
638.080428
 20
449.115605
 42
0.146942
  0
VERTEX
  8
0
 10
637.035184
 20
448.065741
 42
0.034504
  0
VERTEX
  8
0
 10
636.638599
 20
447.183413
 42
0.023143
  0
VERTEX
  8
0
 10
636.304085
 20
446.128828
 42
0.023345
  0
VERTEX
  8
0
 10
636.074215
 20
445.072147
 42
0.041905
  0
VERTEX
  8
0
 10
636.000000
 20
444.188186
 42
-0.132169
  0
VERTEX
  8
0
 10
635.476396
 20
442.241981
 42
-0.135955
  0
VERTEX
  8
0
 10
634.050760
 20
440.845931
 42
-0.091099
  0
VERTEX
  8
0
 10
631.593315
 20
440.023466
 42
-0.035332
  0
VERTEX
  8
0
 10
628.000000
 20
439.769231
 42
-0.035375
  0
VERTEX
  8
0
 10
624.377478
 20
440.025848
 42
-0.093589
  0
VERTEX
  8
0
 10
621.927961
 20
440.859607
 42
-0.138921
  0
VERTEX
  8
0
 10
620.516864
 20
442.285990
 42
-0.126655
  0
VERTEX
  8
0
 10
620.000000
 20
444.293704
 42
0.112442
  0
VERTEX
  8
0
 10
619.518870
 20
446.406102
 42
0.093062
  0
VERTEX
  8
0
 10
618.149707
 20
448.270290
 42
0.090380
  0
VERTEX
  8
0
 10
616.156186
 20
449.552178
 42
0.098110
  0
VERTEX
  8
0
 10
613.895904
 20
450.000000
 42
0.068940
  0
VERTEX
  8
0
 10
612.465244
 20
449.801800
 42
0.071065
  0
VERTEX
  8
0
 10
611.158326
 20
449.222528
 42
0.059283
  0
VERTEX
  8
0
 10
609.886008
 20
448.198838
 42
0.030819
  0
VERTEX
  8
0
 10
608.550891
 20
446.655609
 42
0.012350
  0
VERTEX
  8
0
 10
607.574021
 20
445.307055
 42
0.015982
  0
VERTEX
  8
0
 10
606.749324
 20
444.021102
 42
0.013727
  0
VERTEX
  8
0
 10
606.132303
 20
442.920162
 42
0.121436
  0
VERTEX
  8
0
 10
606.000000
 20
442.383453
 42
-0.133581
  0
VERTEX
  8
0
 10
605.852100
 20
441.839737
 42
-0.012593
  0
VERTEX
  8
0
 10
605.115167
 20
440.654763
 42
-0.015420
  0
VERTEX
  8
0
 10
604.141469
 20
439.268674
 42
-0.011538
  0
VERTEX
  8
0
 10
602.987803
 20
437.801371
 42
-0.110177
  0
VERTEX
  8
0
 10
597.936507
 20
433.865202
 42
-0.099817
  0
VERTEX
  8
0
 10
591.505548
 20
432.267504
 42
-0.046419
  0
VERTEX
  8
0
 10
581.266731
 20
432.761797
 42
-0.007037
  0
VERTEX
  8
0
 10
561.000000
 20
435.930286
 42
0.003007
  0
VERTEX
  8
0
 10
553.102404
 20
437.230270
 42
0.001853
  0
VERTEX
  8
0
 10
543.793750
 20
438.669728
 42
0.001858
  0
VERTEX
  8
0
 10
534.579463
 20
440.024657
 42
0.003329
  0
VERTEX
  8
0
 10
527.000000
 20
441.058994
 42
-0.010567
  0
VERTEX
  8
0
 10
512.754772
 20
443.213480
 42
-0.020513
  0
VERTEX
  8
0
 10
501.505634
 20
445.637735
 42
-0.025181
  0
VERTEX
  8
0
 10
492.271453
 20
448.530993
 42
-0.033922
  0
VERTEX
  8
0
 10
484.282365
 20
452.115978
 42
-0.024914
  0
VERTEX
  8
0
 10
477.250230
 20
456.325862
 42
-0.030854
  0
VERTEX
  8
0
 10
471.180658
 20
460.949009
 42
-0.030393
  0
VERTEX
  8
0
 10
465.654549
 20
466.344068
 42
-0.023020
  0
VERTEX
  8
0
 10
460.255034
 20
472.878327
 42
0.007804
  0
VERTEX
  8
0
 10
454.467530
 20
480.332791
 42
0.025228
  0
VERTEX
  8
0
 10
450.305503
 20
485.018999
 42
0.037956
  0
VERTEX
  8
0
 10
446.821477
 20
488.063950
 42
0.059424
  0
VERTEX
  8
0
 10
443.378373
 20
490.052135
 42
-0.028894
  0
VERTEX
  8
0
 10
441.025740
 20
491.225757
 42
-0.095855
  0
VERTEX
  8
0
 10
439.721840
 20
492.350196
 42
-0.087057
  0
VERTEX
  8
0
 10
438.864844
 20
493.940153
 42
-0.021313
  0
VERTEX
  8
0
 10
438.045420
 20
496.810668
 42
0.036366
  0
VERTEX
  8
0
 10
437.265232
 20
499.261897
 42
0.028311
  0
VERTEX
  8
0
 10
436.080056
 20
501.796101
 42
0.026753
  0
VERTEX
  8
0
 10
434.534848
 20
504.330307
 42
0.024009
  0
VERTEX
  8
0
 10
432.674745
 20
506.781975
 42
-0.005336
  0
VERTEX
  8
0
 10
430.821310
 20
509.044237
 42
-0.003327
  0
VERTEX
  8
0
 10
428.695389
 20
511.732790
 42
-0.003338
  0
VERTEX
  8
0
 10
426.634670
 20
514.411520
 42
-0.006052
  0
VERTEX
  8
0
 10
424.990408
 20
516.634042
 42
0.018251
  0
VERTEX
  8
0
 10
423.091426
 20
519.074059
 42
0.053173
  0
VERTEX
  8
0
 10
421.555724
 20
520.553390
 42
0.073538
  0
VERTEX
  8
0
 10
420.056370
 20
521.399257
 42
0.067550
  0
VERTEX
  8
0
 10
418.332025
 20
521.806525
 42
0.115935
  0
VERTEX
  8
0
 10
415.412990
 20
521.413616
 42
0.129074
  0
VERTEX
  8
0
 10
413.106693
 20
519.762364
 42
0.088604
  0
VERTEX
  8
0
 10
411.323196
 20
516.617985
 42
0.032760
  0
VERTEX
  8
0
 10
409.941238
 20
511.695751
 42
-0.016043
  0
VERTEX
  8
0
 10
408.528786
 20
505.931403
 42
-0.019783
  0
VERTEX
  8
0
 10
406.830553
 20
500.665062
 42
-0.020846
  0
VERTEX
  8
0
 10
405.049506
 20
496.371184
 42
-0.075314
  0
VERTEX
  8
0
 10
403.418706
 20
493.910171
 42
-0.091969
  0
VERTEX
  8
0
 10
401.012523
 20
492.074094
 42
-0.055509
  0
VERTEX
  8
0
 10
397.642103
 20
490.815123
 42
-0.048876
  0
VERTEX
  8
0
 10
393.595542
 20
490.208066
 42
-0.038539
  0
VERTEX
  8
0
 10
389.164913
 20
490.322428
 42
-0.080372
  0
VERTEX
  8
0
 10
382.207055
 20
492.197564
 42
-0.166559
  0
VERTEX
  8
0
 10
378.154349
 20
496.001403
 42
-0.117051
  0
VERTEX
  8
0
 10
376.455073
 20
502.548744
 42
-0.030400
  0
VERTEX
  8
0
 10
376.892146
 20
513.500000
 42
-0.010290
  0
VERTEX
  8
0
 10
377.463349
 20
518.187817
 42
-0.008399
  0
VERTEX
  8
0
 10
378.261662
 20
523.178125
 42
-0.008504
  0
VERTEX
  8
0
 10
379.151915
 20
527.747168
 42
-0.021942
  0
VERTEX
  8
0
 10
379.994003
 20
531.000000
 42
0.030845
  0
VERTEX
  8
0
 10
381.301012
 20
536.446393
 42
0.033838
  0
VERTEX
  8
0
 10
381.876615
 20
541.845916
 42
0.036594
  0
VERTEX
  8
0
 10
381.714184
 20
546.538018
 42
0.100378
  0
VERTEX
  8
0
 10
380.714565
 20
549.681936
 42
0.053660
  0
VERTEX
  8
0
 10
380.007395
 20
550.682726
 42
0.020631
  0
VERTEX
  8
0
 10
378.828653
 20
551.913953
 42
0.020146
  0
VERTEX
  8
0
 10
377.429038
 20
553.155520
 42
0.023397
  0
VERTEX
  8
0
 10
376.000000
 20
554.216297
 42
-0.034292
  0
VERTEX
  8
0
 10
374.531777
 20
555.356560
 42
-0.044527
  0
VERTEX
  8
0
 10
373.367419
 20
556.599124
 42
-0.050786
  0
VERTEX
  8
0
 10
372.575757
 20
557.855035
 42
-0.088229
  0
VERTEX
  8
0
 10
372.230307
 20
559.034362
 42
0.020421
  0
VERTEX
  8
0
 10
371.183857
 20
565.968492
 42
0.134405
  0
VERTEX
  8
0
 10
369.646301
 20
569.088884
 42
0.173536
  0
VERTEX
  8
0
 10
366.932525
 20
570.578878
 42
0.039637
  0
VERTEX
  8
0
 10
361.628571
 20
571.000000
 42
-0.024584
  0
VERTEX
  8
0
 10
357.221557
 20
571.216817
 42
-0.107125
  0
VERTEX
  8
0
 10
354.749145
 20
572.013577
 42
-0.171971
  0
VERTEX
  8
0
 10
353.454013
 20
573.535707
 42
-0.091350
  0
VERTEX
  8
0
 10
353.000000
 20
576.000000
 42
-0.089998
  0
VERTEX
  8
0
 10
353.442822
 20
578.440255
 42
-0.168507
  0
VERTEX
  8
0
 10
354.709473
 20
579.965929
 42
-0.109427
  0
VERTEX
  8
0
 10
357.102042
 20
580.774849
 42
-0.027018
  0
VERTEX
  8
0
 10
361.265741
 20
581.000000
 42
0.025027
  0
VERTEX
  8
0
 10
365.869539
 20
581.230585
 42
0.083346
  0
VERTEX
  8
0
 10
368.780838
 20
582.025025
 42
0.143313
  0
VERTEX
  8
0
 10
370.397757
 20
583.435727
 42
0.143145
  0
VERTEX
  8
0
 10
371.000000
 20
585.496229
 42
0.135186
  0
VERTEX
  8
0
 10
370.311818
 20
587.995025
 42
0.100211
  0
VERTEX
  8
0
 10
368.376831
 20
590.125966
 42
0.064645
  0
VERTEX
  8
0
 10
364.954360
 20
592.016566
 42
0.023205
  0
VERTEX
  8
0
 10
359.673761
 20
593.820455
 42
-0.028643
  0
VERTEX
  8
0
 10
354.503308
 20
595.649706
 42
-0.072388
  0
VERTEX
  8
0
 10
351.093420
 20
597.702235
 42
-0.085008
  0
VERTEX
  8
0
 10
348.733439
 20
600.421254
 42
-0.051690
  0
VERTEX
  8
0
 10
346.908526
 20
604.278271
 42
0.064524
  0
VERTEX
  8
0
 10
343.767279
 20
610.500533
 42
0.129479
  0
VERTEX
  8
0
 10
339.647456
 20
614.091292
 42
0.172715
  0
VERTEX
  8
0
 10
335.128855
 20
614.623814
 42
0.135632
  0
VERTEX
  8
0
 10
330.757389
 20
612.267564
 42
-0.087667
  0
VERTEX
  8
0
 10
328.389435
 20
610.685183
 42
-0.390471
  0
VERTEX
  8
0
 10
326.944393
 20
611.180660
 42
-0.113363
  0
VERTEX
  8
0
 10
326.179147
 20
613.943696
 42
-0.010657
  0
VERTEX
  8
0
 10
326.015313
 20
621.032072
 42
0.023707
  0
VERTEX
  8
0
 10
325.630036
 20
628.856508
 42
0.047596
  0
VERTEX
  8
0
 10
324.452570
 20
634.922467
 42
0.052266
  0
VERTEX
  8
0
 10
322.240955
 20
640.283231
 42
0.035171
  0
VERTEX
  8
0
 10
318.686339
 20
645.877649
 42
-0.033498
  0
VERTEX
  8
0
 10
314.016073
 20
653.173941
 42
-0.155731
  0
VERTEX
  8
0
 10
313.066987
 20
658.019316
 42
-0.188525
  0
VERTEX
  8
0
 10
315.168151
 20
661.975444
 42
-0.053169
  0
VERTEX
  8
0
 10
321.023427
 20
666.012720
 42
0.011288
  0
VERTEX
  8
0
 10
324.421257
 20
667.958131
 42
0.051165
  0
VERTEX
  8
0
 10
326.243234
 20
669.328324
 42
0.093535
  0
VERTEX
  8
0
 10
327.173057
 20
670.584437
 42
0.113154
  0
VERTEX
  8
0
 10
327.500000
 20
672.010623
 42
0.096939
  0
VERTEX
  8
0
 10
327.233933
 20
673.370064
 42
0.095595
  0
VERTEX
  8
0
 10
326.474448
 20
674.536503
 42
0.060219
  0
VERTEX
  8
0
 10
325.024552
 20
675.715550
 42
0.016906
  0
VERTEX
  8
0
 10
322.500000
 20
677.190100
 42
-0.046221
  0
VERTEX
  8
0
 10
318.974104
 20
679.536622
 42
-0.086660
  0
VERTEX
  8
0
 10
316.727045
 20
682.107288
 42
-0.086643
  0
VERTEX
  8
0
 10
315.483987
 20
685.287758
 42
-0.046187
  0
VERTEX
  8
0
 10
315.029751
 20
689.500000
 42
0.052093
  0
VERTEX
  8
0
 10
314.312646
 20
695.487197
 42
0.008674
  0
VERTEX
  8
0
 10
311.546183
 20
706.760500
 42
0.009351
  0
VERTEX
  8
0
 10
307.773086
 20
720.047177
 42
0.007828
  0
VERTEX
  8
0
 10
303.287471
 20
734.000000
 42
-0.003240
  0
VERTEX
  8
0
 10
302.643247
 20
735.942536
 42
-0.002533
  0
VERTEX
  8
0
 10
301.968243
 20
738.059375
 42
-0.002561
  0
VERTEX
  8
0
 10
301.359930
 20
740.036434
 42
-0.006256
  0
VERTEX
  8
0
 10
300.937712
 20
741.500000
 42
0.000521
  0
VERTEX
  8
0
 10
300.542231
 20
742.932375
 42
0.000241
  0
VERTEX
  8
0
 10
300.025252
 20
744.793750
 42
0.000238
  0
VERTEX
  8
0
 10
299.480082
 20
746.749353
 42
0.000332
  0
VERTEX
  8
0
 10
298.989896
 20
748.500000
 42
-0.012100
  0
VERTEX
  8
0
 10
294.837906
 20
764.796129
 42
-0.011096
  0
VERTEX
  8
0
 10
291.346706
 20
781.749910
 42
-0.010271
  0
VERTEX
  8
0
 10
288.383468
 20
800.070688
 42
-0.007531
  0
VERTEX
  8
0
 10
285.821583
 20
820.500000
 42
-0.023249
  0
VERTEX
  8
0
 10
284.723940
 20
837.844607
 42
-0.004218
  0
VERTEX
  8
0
 10
284.456972
 20
870.104349
 42
-0.003507
  0
VERTEX
  8
0
 10
284.689714
 20
902.551526
 42
-0.035467
  0
VERTEX
  8
0
 10
285.836830
 20
916.000000
 42
-0.004555
  0
VERTEX
  8
0
 10
287.294631
 20
924.749082
 42
-0.006658
  0
VERTEX
  8
0
 10
288.750746
 20
932.422447
 42
-0.007498
  0
VERTEX
  8
0
 10
290.140969
 20
938.762999
 42
-0.019969
  0
VERTEX
  8
0
 10
291.379913
 20
943.226256
 42
0.011037
  0
VERTEX
  8
0
 10
292.742290
 20
947.814612
 42
0.010440
  0
VERTEX
  8
0
 10
293.928200
 20
952.544198
 42
0.009900
  0
VERTEX
  8
0
 10
294.970554
 20
957.557424
 42
0.007899
  0
VERTEX
  8
0
 10
295.901463
 20
963.000000
 42
-0.000220
  0
VERTEX
  8
0
 10
296.332730
 20
965.777436
 42
-0.000180
  0
VERTEX
  8
0
 10
296.796505
 20
968.748558
 42
-0.000181
  0
VERTEX
  8
0
 10
297.225234
 20
971.482210
 42
-0.000477
  0
VERTEX
  8
0
 10
297.535226
 20
973.441899
 42
0.006224
  0
VERTEX
  8
0
 10
297.837337
 20
975.505179
 42
0.001848
  0
VERTEX
  8
0
 10
298.248192
 20
978.666370
 42
0.001854
  0
VERTEX
  8
0
 10
298.683563
 20
982.221991
 42
0.002000
  0
VERTEX
  8
0
 10
299.081314
 20
985.691899
 42
-0.000417
  0
VERTEX
  8
0
 10
299.506090
 20
989.504260
 42
-0.000235
  0
VERTEX
  8
0
 10
300.027576
 20
994.129808
 42
-0.000234
  0
VERTEX
  8
0
 10
300.558226
 20
998.797290
 42
-0.000384
  0
VERTEX
  8
0
 10
301.012564
 20
1002.750000
 42
0.002580
  0
VERTEX
  8
0
 10
301.759923
 20
1009.513652
 42
0.001762
  0
VERTEX
  8
0
 10
302.542337
 20
1017.205822
 42
0.001151
  0
VERTEX
  8
0
 10
303.543360
 20
1027.651386
 42
0.000322
  0
VERTEX
  8
0
 10
305.061509
 20
1044.000000
 42
0.007337
  0
VERTEX
  8
0
 10
306.094831
 20
1057.344606
 42
0.004545
  0
VERTEX
  8
0
 10
306.935815
 20
1073.044056
 42
0.002718
  0
VERTEX
  8
0
 10
307.517457
 20
1087.954082
 42
0.045332
  0
VERTEX
  8
0
 10
307.235219
 20
1092.896126
 42
0.062948
  0
VERTEX
  8
0
 10
306.736403
 20
1094.675078
 42
0.044228
  0
VERTEX
  8
0
 10
305.761296
 20
1096.514243
 42
0.036634
  0
VERTEX
  8
0
 10
304.277642
 20
1098.469375
 42
0.021098
  0
VERTEX
  8
0
 10
302.230458
 20
1100.603675
 42
-0.011984
  0
VERTEX
  8
0
 10
299.500710
 20
1103.347700
 42
-0.084788
  0
VERTEX
  8
0
 10
298.459090
 20
1104.904565
 42
-0.115206
  0
VERTEX
  8
0
 10
298.147760
 20
1106.514028
 42
-0.030069
  0
VERTEX
  8
0
 10
298.408259
 20
1109.151647
 42
-0.055010
  0
VERTEX
  8
0
 10
299.849895
 20
1114.391761
 42
-0.016957
  0
VERTEX
  8
0
 10
303.137335
 20
1121.908305
 42
-0.016990
  0
VERTEX
  8
0
 10
307.346488
 20
1129.989760
 42
-0.019865
  0
VERTEX
  8
0
 10
311.895496
 20
1137.345131
 42
-0.020775
  0
VERTEX
  8
0
 10
319.960333
 20
1148.287396
 42
-0.012086
  0
VERTEX
  8
0
 10
330.482892
 20
1160.758243
 42
-0.011551
  0
VERTEX
  8
0
 10
340.991137
 20
1172.080206
 42
-0.040083
  0
VERTEX
  8
0
 10
348.500000
 20
1178.658432
 42
-0.039501
  0
VERTEX
  8
0
 10
362.139674
 20
1187.216424
 42
-0.016732
  0
VERTEX
  8
0
 10
381.621848
 20
1196.577623
 42
-0.016234
  0
VERTEX
  8
0
 10
403.513375
 20
1205.372243
 42
-0.018511
  0
VERTEX
  8
0
 10
425.000000
 20
1212.314760
 42
-0.034471
  0
VERTEX
  8
0
 10
451.582214
 20
1217.885822
 42
-0.017556
  0
VERTEX
  8
0
 10
485.553259
 20
1221.382343
 42
-0.016531
  0
VERTEX
  8
0
 10
523.125246
 20
1222.675240
 42
-0.016144
  0
SEQEND
  0
POLYLINE
  8
0
 66
1
 70
1
  0
VERTEX
  8
0
 10
722.789838
 20
611.022692
 42
-0.021610
  0
VERTEX
  8
0
 10
725.910535
 20
609.182182
 42
-0.029606
  0
VERTEX
  8
0
 10
728.534625
 20
607.247636
 42
-0.032254
  0
VERTEX
  8
0
 10
730.455236
 20
605.426000
 42
-0.129725
  0
VERTEX
  8
0
 10
731.209042
 20
604.010523
 42
-0.474836
  0
VERTEX
  8
0
 10
730.441161
 20
603.011449
 42
-0.008392
  0
VERTEX
  8
0
 10
722.710477
 20
602.917989
 42
-0.013583
  0
VERTEX
  8
0
 10
715.148240
 20
603.158998
 42
-0.108516
  0
VERTEX
  8
0
 10
711.810192
 20
604.101582
 42
-0.138788
  0
VERTEX
  8
0
 10
710.460359
 20
605.403186
 42
-0.163434
  0
VERTEX
  8
0
 10
710.102620
 20
607.134420
 42
-0.126687
  0
VERTEX
  8
0
 10
710.861268
 20
609.077322
 42
-0.070110
  0
VERTEX
  8
0
 10
712.634859
 20
610.927420
 42
-0.056793
  0
VERTEX
  8
0
 10
715.004248
 20
612.390073
 42
-0.107968
  0
VERTEX
  8
0
 10
717.178358
 20
612.886494
 42
-0.091871
  0
VERTEX
  8
0
 10
719.595875
 20
612.461934
 42
-0.033157
  0
SEQEND
  0
POLYLINE
  8
0
 66
1
 70
1
  0
VERTEX
  8
0
 10
697.500000
 20
603.513695
 42
-0.154714
  0
VERTEX
  8
0
 10
697.036218
 20
602.050740
 42
-0.191889
  0
VERTEX
  8
0
 10
695.848996
 20
601.276911
 42
-0.151910
  0
VERTEX
  8
0
 10
694.215024
 20
601.445883
 42
-0.095498
  0
VERTEX
  8
0
 10
692.612186
 20
602.530671
 42
-0.085195
  0
VERTEX
  8
0
 10
691.591892
 20
603.973772
 42
-0.266953
  0
VERTEX
  8
0
 10
691.679093
 20
605.114417
 42
-0.214126
  0
VERTEX
  8
0
 10
692.783898
 20
605.793110
 42
-0.061127
  0
VERTEX
  8
0
 10
694.844436
 20
605.807310
 42
-0.044870
  0
VERTEX
  8
0
 10
696.064457
 20
605.553783
 42
-0.104838
  0
VERTEX
  8
0
 10
696.877087
 20
605.106160
 42
-0.128709
  0
VERTEX
  8
0
 10
697.338898
 20
604.434583
 42
-0.086812
  0
SEQEND
  0
POLYLINE
  8
0
 66
1
 70
1
  0
VERTEX
  8
0
 10
476.173710
 20
232.913273
 42
-0.006273
  0
VERTEX
  8
0
 10
495.159058
 20
228.790914
 42
-0.041176
  0
VERTEX
  8
0
 10
504.430400
 20
225.834669
 42
-0.063541
  0
VERTEX
  8
0
 10
511.310664
 20
221.914593
 42
-0.026949
  0
VERTEX
  8
0
 10
519.455025
 20
215.073036
 42
0.028662
  0
VERTEX
  8
0
 10
530.623844
 20
205.755852
 42
0.004837
  0
VERTEX
  8
0
 10
553.128077
 20
189.407027
 42
0.003721
  0
VERTEX
  8
0
 10
576.201587
 20
173.240659
 42
0.049149
  0
VERTEX
  8
0
 10
585.297053
 20
168.206651
 42
0.024938
  0
VERTEX
  8
0
 10
587.905735
 20
167.232433
 42
0.151899
  0
VERTEX
  8
0
 10
589.328589
 20
167.223819
 42
0.156345
  0
VERTEX
  8
0
 10
590.483669
 20
168.023614
 42
0.026874
  0
VERTEX
  8
0
 10
592.010960
 20
170.250000
 42
0.059154
  0
VERTEX
  8
0
 10
593.049251
 20
172.517774
 42
0.045112
  0
VERTEX
  8
0
 10
593.648373
 20
175.184142
 42
0.025609
  0
VERTEX
  8
0
 10
593.960363
 20
179.092630
 42
0.005285
  0
VERTEX
  8
0
 10
594.083868
 20
186.000000
 42
-0.007085
  0
VERTEX
  8
0
 10
594.292347
 20
195.705105
 42
-0.018872
  0
VERTEX
  8
0
 10
594.800252
 20
202.613547
 42
-0.018651
  0
VERTEX
  8
0
 10
595.524913
 20
207.460001
 42
-0.273006
  0
VERTEX
  8
0
 10
596.617905
 20
208.709348
 42
-0.407337
  0
VERTEX
  8
0
 10
598.422561
 20
207.827331
 42
-0.006130
  0
VERTEX
  8
0
 10
602.584529
 20
195.688429
 42
-0.014668
  0
VERTEX
  8
0
 10
606.422176
 20
182.767288
 42
-0.020842
  0
VERTEX
  8
0
 10
609.009979
 20
171.068339
 42
0.042986
  0
VERTEX
  8
0
 10
610.408589
 20
165.851493
 42
0.052000
  0
VERTEX
  8
0
 10
612.620218
 20
161.293595
 42
0.042547
  0
VERTEX
  8
0
 10
616.095269
 20
156.633166
 42
0.018137
  0
VERTEX
  8
0
 10
621.471064
 20
151.000000
 42
-0.019203
  0
VERTEX
  8
0
 10
626.814859
 20
145.376414
 42
-0.075974
  0
VERTEX
  8
0
 10
629.381197
 20
141.371102
 42
-0.072669
  0
VERTEX
  8
0
 10
630.691277
 20
136.693776
 42
-0.016645
  0
VERTEX
  8
0
 10
631.469762
 20
128.500000
 42
-0.010918
  0
VERTEX
  8
0
 10
631.821922
 20
119.612607
 42
-0.107229
  0
VERTEX
  8
0
 10
631.096353
 20
115.955818
 42
-0.301355
  0
VERTEX
  8
0
 10
629.218577
 20
114.736579
 42
-0.096867
  0
VERTEX
  8
0
 10
625.800521
 20
115.438881
 42
-0.035963
  0
VERTEX
  8
0
 10
623.644860
 20
116.527581
 42
-0.004459
  0
VERTEX
  8
0
 10
619.155844
 20
119.270474
 42
-0.005244
  0
VERTEX
  8
0
 10
613.879931
 20
122.636486
 42
-0.004318
  0
VERTEX
  8
0
 10
608.320171
 20
126.335046
 42
0.005394
  0
VERTEX
  8
0
 10
597.849750
 20
133.267887
 42
0.002827
  0
VERTEX
  8
0
 10
584.680565
 20
141.679548
 42
0.001777
  0
VERTEX
  8
0
 10
565.868459
 20
153.453087
 42
0.000461
  0
VERTEX
  8
0
 10
535.500000
 20
172.270501
 42
-0.000396
  0
VERTEX
  8
0
 10
516.369021
 20
184.121310
 42
-0.002034
  0
VERTEX
  8
0
 10
505.793360
 20
190.743804
 42
-0.003336
  0
VERTEX
  8
0
 10
497.879067
 20
195.818875
 42
-0.002746
  0
VERTEX
  8
0
 10
489.500000
 20
201.336942
 42
-0.009972
  0
VERTEX
  8
0
 10
471.905929
 20
213.576213
 42
-0.032451
  0
VERTEX
  8
0
 10
460.981791
 20
222.640541
 42
-0.053603
  0
VERTEX
  8
0
 10
455.291024
 20
229.312577
 42
-0.360639
  0
VERTEX
  8
0
 10
455.666667
 20
233.333333
 42
-0.196865
  0
VERTEX
  8
0
 10
457.282688
 20
234.010184
 42
-0.007091
  0
VERTEX
  8
0
 10
464.117472
 20
233.967127
 42
-0.013881
  0
VERTEX
  8
0
 10
471.003383
 20
233.634687
 42
-0.031327
  0
SEQEND
  0
POLYLINE
  8
0
 66
1
 70
1
  0
VERTEX
  8
0
 10
36.175565
 20
423.418282
 42
0.040834
  0
VERTEX
  8
0
 10
30.604232
 20
417.800291
 42
0.023846
  0
VERTEX
  8
0
 10
24.846844
 20
410.256969
 42
0.020437
  0
VERTEX
  8
0
 10
20.140764
 20
402.806582
 42
0.131374
  0
VERTEX
  8
0
 10
19.000000
 20
398.539838
 42
0.497662
  0
VERTEX
  8
0
 10
21.539804
 20
396.620087
 42
0.035035
  0
VERTEX
  8
0
 10
31.286589
 20
400.137661
 42
0.035289
  0
VERTEX
  8
0
 10
41.988030
 20
405.803659
 42
0.069762
  0
VERTEX
  8
0
 10
49.344670
 20
411.959748
 42
0.049303
  0
VERTEX
  8
0
 10
52.049486
 20
415.621676
 42
0.123427
  0
VERTEX
  8
0
 10
52.999443
 20
418.781420
 42
0.147770
  0
VERTEX
  8
0
 10
52.276002
 20
421.650753
 42
0.082912
  0
VERTEX
  8
0
 10
49.923275
 20
424.411106
 42
0.075424
  0
VERTEX
  8
0
 10
46.608102
 20
426.438839
 42
0.118164
  0
VERTEX
  8
0
 10
43.325601
 20
426.979163
 42
0.106322
  0
VERTEX
  8
0
 10
39.907498
 20
425.981675
 42
0.053089
  0
SEQEND
  0
POLYLINE
  8
0
 66
1
 70
1
  0
VERTEX
  8
0
 10
150.327515
 20
312.925452
 42
0.101067
  0
VERTEX
  8
0
 10
147.962673
 20
311.456736
 42
0.042866
  0
VERTEX
  8
0
 10
145.467892
 20
308.657226
 42
0.040063
  0
VERTEX
  8
0
 10
143.229872
 20
305.104449
 42
0.041503
  0
VERTEX
  8
0
 10
141.617420
 20
301.281036
 42
0.032194
  0
VERTEX
  8
0
 10
140.133406
 20
295.511878
 42
0.003228
  0
VERTEX
  8
0
 10
137.572352
 20
281.513437
 42
0.003256
  0
VERTEX
  8
0
 10
135.194286
 20
267.490338
 42
0.031675
  0
VERTEX
  8
0
 10
134.604482
 20
261.500000
 42
0.033736
  0
VERTEX
  8
0
 10
134.659866
 20
259.803432
 42
0.165834
  0
VERTEX
  8
0
 10
135.052518
 20
258.944460
 42
0.152998
  0
VERTEX
  8
0
 10
135.908257
 20
258.466109
 42
0.027474
  0
VERTEX
  8
0
 10
137.736586
 20
258.187642
 42
0.133748
  0
VERTEX
  8
0
 10
141.654985
 20
258.859079
 42
0.041702
  0
VERTEX
  8
0
 10
146.882277
 20
261.844951
 42
0.030926
  0
VERTEX
  8
0
 10
153.388766
 20
266.938270
 42
0.013021
  0
VERTEX
  8
0
 10
161.504170
 20
274.529564
 42
0.012467
  0
VERTEX
  8
0
 10
167.583853
 20
280.827336
 42
0.053124
  0
VERTEX
  8
0
 10
170.688613
 20
285.026215
 42
0.108912
  0
VERTEX
  8
0
 10
171.688043
 20
288.108196
 42
0.199936
  0
VERTEX
  8
0
 10
170.925798
 20
290.589408
 42
0.183499
  0
VERTEX
  8
0
 10
169.202736
 20
291.564817
 42
0.079790
  0
VERTEX
  8
0
 10
166.530047
 20
291.545871
 42
0.053171
  0
VERTEX
  8
0
 10
162.935082
 20
290.540975
 42
0.022677
  0
VERTEX
  8
0
 10
158.377055
 20
288.482708
 42
-0.034003
  0
VERTEX
  8
0
 10
153.466683
 20
286.397806
 42
-0.123687
  0
VERTEX
  8
0
 10
150.116879
 20
286.104219
 42
-0.280275
  0
VERTEX
  8
0
 10
148.534461
 20
287.451287
 42
-0.157885
  0
VERTEX
  8
0
 10
148.519191
 20
290.060467
 42
-0.072540
  0
VERTEX
  8
0
 10
149.095949
 20
291.247896
 42
-0.007763
  0
VERTEX
  8
0
 10
150.861820
 20
293.761020
 42
-0.009428
  0
VERTEX
  8
0
 10
153.079290
 20
296.696876
 42
-0.007453
  0
VERTEX
  8
0
 10
155.583739
 20
299.789804
 42
0.006837
  0
VERTEX
  8
0
 10
158.042191
 20
302.818290
 42
0.010003
  0
VERTEX
  8
0
 10
160.115223
 20
305.555428
 42
0.005851
  0
VERTEX
  8
0
 10
161.772560
 20
307.894217
 42
0.152361
  0
VERTEX
  8
0
 10
162.000000
 20
308.623276
 42
0.249308
  0
VERTEX
  8
0
 10
160.955031
 20
310.588756
 42
0.060163
  0
VERTEX
  8
0
 10
157.563376
 20
312.325733
 42
0.058021
  0
VERTEX
  8
0
 10
153.531697
 20
313.300455
 42
0.119467
  0
SEQEND
  0
POLYLINE
  8
0
 66
1
 70
1
  0
VERTEX
  8
0
 10
110.500000
 20
303.292575
 42
0.027686
  0
VERTEX
  8
0
 10
100.132982
 20
300.213169
 42
0.005680
  0
VERTEX
  8
0
 10
82.224792
 20
293.565236
 42
0.006295
  0
VERTEX
  8
0
 10
63.976629
 20
286.289266
 42
0.015825
  0
VERTEX
  8
0
 10
50.925469
 20
280.403848
 42
0.031016
  0
VERTEX
  8
0
 10
42.512612
 20
275.617046
 42
0.114398
  0
VERTEX
  8
0
 10
38.310763
 20
271.228557
 42
0.384272
  0
VERTEX
  8
0
 10
38.888036
 20
268.349469
 42
0.161165
  0
VERTEX
  8
0
 10
42.965894
 20
267.000000
 42
0.056177
  0
VERTEX
  8
0
 10
46.795985
 20
267.431689
 42
0.023833
  0
VERTEX
  8
0
 10
51.780170
 20
268.822537
 42
0.019079
  0
VERTEX
  8
0
 10
57.937325
 20
271.125637
 42
0.009707
  0
VERTEX
  8
0
 10
65.500000
 20
274.462239
 42
-0.012567
  0
VERTEX
  8
0
 10
71.530397
 20
277.081710
 42
-0.055306
  0
VERTEX
  8
0
 10
75.258053
 20
278.130061
 42
-0.112475
  0
VERTEX
  8
0
 10
77.697797
 20
277.982633
 42
-0.179598
  0
VERTEX
  8
0
 10
79.354149
 20
276.750000
 42
-0.143108
  0
VERTEX
  8
0
 10
79.889093
 20
274.966057
 42
-0.155026
  0
VERTEX
  8
0
 10
79.353361
 20
273.237574
 42
-0.115923
  0
VERTEX
  8
0
 10
77.722778
 20
271.772971
 42
-0.061944
  0
VERTEX
  8
0
 10
75.190734
 20
270.769618
 42
0.079453
  0
VERTEX
  8
0
 10
72.869919
 20
269.755056
 42
0.098516
  0
VERTEX
  8
0
 10
71.176029
 20
268.122064
 42
0.109575
  0
VERTEX
  8
0
 10
70.352189
 20
266.112270
 42
0.120091
  0
VERTEX
  8
0
 10
70.495753
 20
264.013380
 42
0.297750
  0
VERTEX
  8
0
 10
73.782878
 20
261.329660
 42
0.076824
  0
VERTEX
  8
0
 10
80.962409
 20
261.670579
 42
0.057274
  0
VERTEX
  8
0
 10
90.120550
 20
264.656971
 42
0.043277
  0
VERTEX
  8
0
 10
99.328466
 20
269.881981
 42
0.033454
  0
VERTEX
  8
0
 10
101.463743
 20
271.572005
 42
0.036516
  0
VERTEX
  8
0
 10
103.288239
 20
273.486279
 42
0.035005
  0
VERTEX
  8
0
 10
104.876511
 20
275.718541
 42
0.026561
  0
VERTEX
  8
0
 10
106.304972
 20
278.362687
 42
-0.024714
  0
VERTEX
  8
0
 10
107.580959
 20
280.745596
 42
-0.029795
  0
VERTEX
  8
0
 10
109.015928
 20
282.840329
 42
-0.032949
  0
VERTEX
  8
0
 10
110.505852
 20
284.518465
 42
-0.061402
  0
VERTEX
  8
0
 10
111.944396
 20
285.626225
 42
0.100427
  0
VERTEX
  8
0
 10
114.408154
 20
287.847765
 42
0.054681
  0
VERTEX
  8
0
 10
116.467251
 20
291.381388
 42
0.055025
  0
VERTEX
  8
0
 10
117.692706
 20
295.227915
 42
0.111556
  0
VERTEX
  8
0
 10
117.617792
 20
298.386700
 42
0.063168
  0
VERTEX
  8
0
 10
116.881459
 20
300.273529
 42
0.045299
  0
VERTEX
  8
0
 10
115.622890
 20
302.158216
 42
0.045286
  0
VERTEX
  8
0
 10
114.233750
 20
303.591315
 42
0.223561
  0
VERTEX
  8
0
 10
113.178571
 20
303.883999
 42
0.010034
  0
VERTEX
  8
0
 10
112.796233
 20
303.810713
 42
0.001966
  0
VERTEX
  8
0
 10
112.111830
 20
303.662417
 42
0.002085
  0
VERTEX
  8
0
 10
111.315462
 20
303.483094
 42
0.001932
  0
SEQEND
  0
POLYLINE
  8
0
 66
1
 70
1
  0
VERTEX
  8
0
 10
161.354062
 20
190.778829
 42
0.008546
  0
VERTEX
  8
0
 10
159.551454
 20
187.918125
 42
0.005269
  0
VERTEX
  8
0
 10
157.524364
 20
184.495022
 42
0.005283
  0
VERTEX
  8
0
 10
155.591414
 20
181.067948
 42
0.009433
  0
VERTEX
  8
0
 10
154.085514
 20
178.204224
 42
-0.015191
  0
VERTEX
  8
0
 10
152.757735
 20
175.748302
 42
-0.019438
  0
VERTEX
  8
0
 10
151.381456
 20
173.576732
 42
-0.017649
  0
VERTEX
  8
0
 10
150.118495
 20
171.877062
 42
-0.133293
  0
VERTEX
  8
0
 10
149.318387
 20
171.291935
 42
-0.113713
  0
VERTEX
  8
0
 10
148.409638
 20
171.163915
 42
-0.024731
  0
VERTEX
  8
0
 10
146.830741
 20
171.379902
 42
-0.024566
  0
VERTEX
  8
0
 10
144.987059
 20
171.820399
 42
-0.021368
  0
VERTEX
  8
0
 10
143.105890
 20
172.457139
 42
0.007813
  0
VERTEX
  8
0
 10
135.194583
 20
175.376226
 42
0.008143
  0
VERTEX
  8
0
 10
127.303741
 20
178.004903
 42
0.008639
  0
VERTEX
  8
0
 10
120.128950
 20
180.130363
 42
0.018392
  0
VERTEX
  8
0
 10
114.500000
 20
181.471798
 42
0.020070
  0
VERTEX
  8
0
 10
101.893787
 20
183.467813
 42
0.009519
  0
VERTEX
  8
0
 10
85.523266
 20
185.074962
 42
0.002867
  0
VERTEX
  8
0
 10
68.707450
 20
186.306188
 42
0.277990
  0
VERTEX
  8
0
 10
66.655042
 20
185.250863
 42
0.193754
  0
VERTEX
  8
0
 10
66.330738
 20
183.370726
 42
0.009578
  0
VERTEX
  8
0
 10
67.798457
 20
177.133528
 42
0.015648
  0
VERTEX
  8
0
 10
69.804032
 20
170.199741
 42
0.016300
  0
VERTEX
  8
0
 10
72.215168
 20
163.500000
 42
0.034563
  0
VERTEX
  8
0
 10
81.625577
 20
143.876355
 42
0.026312
  0
VERTEX
  8
0
 10
94.471499
 20
123.784552
 42
0.026790
  0
VERTEX
  8
0
 10
108.375402
 20
106.415312
 42
0.063957
  0
VERTEX
  8
0
 10
120.832484
 20
95.611365
 42
0.012936
  0
VERTEX
  8
0
 10
127.285015
 20
91.558412
 42
0.062491
  0
VERTEX
  8
0
 10
131.249029
 20
89.834828
 42
0.096788
  0
VERTEX
  8
0
 10
134.640685
 20
89.520707
 42
0.057005
  0
VERTEX
  8
0
 10
138.631872
 20
90.390233
 42
0.041522
  0
VERTEX
  8
0
 10
143.375473
 20
92.459807
 42
0.056355
  0
VERTEX
  8
0
 10
147.210459
 20
95.122941
 42
0.058594
  0
VERTEX
  8
0
 10
150.244011
 20
98.484368
 42
0.050225
  0
VERTEX
  8
0
 10
152.600289
 20
102.630855
 42
0.000000
  0
VERTEX
  8
0
 10
154.966573
 20
107.981443
 42
0.000000
  0
VERTEX
  8
0
 10
162.611592
 20
102.990722
 42
0.027002
  0
VERTEX
  8
0
 10
169.008106
 20
99.291241
 42
0.087711
  0
VERTEX
  8
0
 10
173.678099
 20
97.870203
 42
0.153622
  0
VERTEX
  8
0
 10
177.053236
 20
98.499890
 42
0.152220
  0
VERTEX
  8
0
 10
179.474320
 20
100.950340
 42
0.019419
  0
VERTEX
  8
0
 10
180.058309
 20
102.195925
 42
0.018708
  0
VERTEX
  8
0
 10
180.551831
 20
103.498497
 42
0.019010
  0
VERTEX
  8
0
 10
180.899416
 20
104.677272
 42
0.062262
  0
VERTEX
  8
0
 10
181.000000
 20
105.481885
 42
0.070622
  0
VERTEX
  8
0
 10
180.729094
 20
107.390332
 42
0.004636
  0
VERTEX
  8
0
 10
179.126027
 20
112.737126
 42
0.007202
  0
VERTEX
  8
0
 10
177.399396
 20
118.036616
 42
0.022940
  0
VERTEX
  8
0
 10
176.035156
 20
121.500000
 42
-0.054906
  0
VERTEX
  8
0
 10
173.896526
 20
128.144135
 42
-0.021420
  0
VERTEX
  8
0
 10
172.368569
 20
137.680458
 42
-0.015309
  0
VERTEX
  8
0
 10
171.237560
 20
150.887881
 42
-0.005492
  0
VERTEX
  8
0
 10
170.410060
 20
169.757034
 42
0.003047
  0
VERTEX
  8
0
 10
169.842898
 20
184.315760
 42
0.020670
  0
VERTEX
  8
0
 10
169.221617
 20
191.491489
 42
0.041022
  0
VERTEX
  8
0
 10
168.372859
 20
195.479539
 42
0.279141
  0
VERTEX
  8
0
 10
166.941285
 20
196.772791
 42
0.227492
  0
VERTEX
  8
0
 10
166.109488
 20
196.554081
 42
0.029013
  0
VERTEX
  8
0
 10
164.734287
 20
195.240473
 42
0.027487
  0
VERTEX
  8
0
 10
163.117711
 20
193.302922
 42
0.015252
  0
SEQEND
  0
POLYLINE
  8
0
 66
1
 70
1
  0
VERTEX
  8
0
 10
332.537841
 20
169.250000
 42
0.065512
  0
VERTEX
  8
0
 10
332.246145
 20
168.046881
 42
0.004233
  0
VERTEX
  8
0
 10
331.890961
 20
164.454717
 42
0.006118
  0
VERTEX
  8
0
 10
331.555281
 20
160.151838
 42
0.004518
  0
VERTEX
  8
0
 10
331.285164
 20
155.383079
 42
0.000000
  0
VERTEX
  8
0
 10
330.708624
 20
143.266159
 42
0.000000
  0
VERTEX
  8
0
 10
317.604312
 20
142.588225
 42
0.012288
  0
VERTEX
  8
0
 10
307.912590
 20
141.847685
 42
0.075679
  0
VERTEX
  8
0
 10
303.080924
 20
140.604145
 42
0.140440
  0
VERTEX
  8
0
 10
300.279839
 20
138.329591
 42
0.082435
  0
VERTEX
  8
0
 10
298.406783
 20
134.404204
 42
0.093642
  0
VERTEX
  8
0
 10
297.975272
 20
129.825997
 42
0.065909
  0
VERTEX
  8
0
 10
299.129063
 20
124.770708
 42
0.037579
  0
VERTEX
  8
0
 10
302.265783
 20
117.951790
 42
0.008584
  0
VERTEX
  8
0
 10
308.617377
 20
106.946273
 42
-0.005811
  0
VERTEX
  8
0
 10
315.606259
 20
94.990184
 42
-0.012578
  0
VERTEX
  8
0
 10
320.637853
 20
85.606726
 42
-0.015214
  0
VERTEX
  8
0
 10
324.550329
 20
77.222723
 42
-0.014592
  0
VERTEX
  8
0
 10
328.004132
 20
68.500000
 42
0.012451
  0
VERTEX
  8
0
 10
331.914735
 20
58.498703
 42
0.052254
  0
VERTEX
  8
0
 10
335.016169
 20
52.849056
 42
0.080818
  0
VERTEX
  8
0
 10
338.480362
 20
49.260331
 42
0.061575
  0
VERTEX
  8
0
 10
343.231529
 20
46.547728
 42
0.051845
  0
VERTEX
  8
0
 10
346.920286
 20
45.438185
 42
0.048162
  0
VERTEX
  8
0
 10
350.852102
 20
45.074105
 42
0.045192
  0
VERTEX
  8
0
 10
355.010029
 20
45.467100
 42
0.035975
  0
VERTEX
  8
0
 10
359.371478
 20
46.610908
 42
0.055308
  0
VERTEX
  8
0
 10
363.012428
 20
48.320109
 42
0.098271
  0
VERTEX
  8
0
 10
365.438278
 20
50.558898
 42
0.078843
  0
VERTEX
  8
0
 10
367.148716
 20
53.907820
 42
0.025877
  0
VERTEX
  8
0
 10
368.593011
 20
59.270039
 42
0.040292
  0
VERTEX
  8
0
 10
369.621145
 20
67.084287
 42
0.012281
  0
VERTEX
  8
0
 10
369.928191
 20
79.020019
 42
0.011518
  0
VERTEX
  8
0
 10
369.670121
 20
90.814801
 42
0.054239
  0
VERTEX
  8
0
 10
368.637291
 20
97.500000
 42
0.033753
  0
VERTEX
  8
0
 10
366.732941
 20
103.075472
 42
0.022950
  0
VERTEX
  8
0
 10
363.860910
 20
109.136563
 42
0.021430
  0
VERTEX
  8
0
 10
360.186646
 20
115.389535
 42
0.019165
  0
VERTEX
  8
0
 10
355.858961
 20
121.549513
 42
-0.019922
  0
VERTEX
  8
0
 10
350.400847
 20
129.343558
 42
-0.039085
  0
VERTEX
  8
0
 10
346.819255
 20
136.010843
 42
-0.035252
  0
VERTEX
  8
0
 10
344.100588
 20
143.591356
 42
-0.013364
  0
VERTEX
  8
0
 10
341.348260
 20
154.500000
 42
0.020691
  0
VERTEX
  8
0
 10
339.068070
 20
163.009841
 42
0.058886
  0
VERTEX
  8
0
 10
336.565316
 20
168.602049
 42
0.202882
  0
VERTEX
  8
0
 10
334.364841
 20
170.213274
 42
0.374632
  0
SEQEND
  0
POLYLINE
  8
0
 66
1
 70
1
  0
VERTEX
  8
0
 10
996.896401
 20
120.322763
 42
0.100839
  0
VERTEX
  8
0
 10
996.159470
 20
116.117605
 42
0.039398
  0
VERTEX
  8
0
 10
996.787837
 20
110.226998
 42
0.039320
  0
VERTEX
  8
0
 10
998.324827
 20
104.532490
 42
0.105832
  0
VERTEX
  8
0
 10
1000.516119
 20
100.983176
 42
0.075870
  0
VERTEX
  8
0
 10
1003.861113
 20
98.411871
 42
0.114332
  0
VERTEX
  8
0
 10
1007.384009
 20
97.413179
 42
0.183793
  0
VERTEX
  8
0
 10
1009.933438
 20
98.243812
 42
0.226851
  0
VERTEX
  8
0
 10
1011.000000
 20
100.473636
 42
0.096532
  0
VERTEX
  8
0
 10
1010.036955
 20
105.415349
 42
0.020953
  0
VERTEX
  8
0
 10
1006.421521
 20
113.364896
 42
0.015940
  0
VERTEX
  8
0
 10
1002.230105
 20
121.026064
 42
0.215248
  0
VERTEX
  8
0
 10
999.683049
 20
122.822523
 42
0.131165
  0
VERTEX
  8
0
 10
998.898242
 20
122.767033
 42
0.100273
  0
VERTEX
  8
0
 10
998.153174
 20
122.329179
 42
0.075817
  0
VERTEX
  8
0
 10
997.476540
 20
121.506455
 42
0.040633
  0
SEQEND
  0
POLYLINE
  8
0
 66
1
 70
1
  0
VERTEX
  8
0
 10
1062.469511
 20
86.250000
 42
0.044366
  0
VERTEX
  8
0
 10
1065.388456
 20
77.817662
 42
0.009399
  0
VERTEX
  8
0
 10
1072.030300
 20
63.735887
 42
0.009587
  0
VERTEX
  8
0
 10
1079.216501
 20
49.888306
 42
0.041165
  0
VERTEX
  8
0
 10
1084.305807
 20
42.122890
 42
0.029038
  0
VERTEX
  8
0
 10
1087.914054
 20
38.012980
 42
0.031565
  0
VERTEX
  8
0
 10
1091.880390
 20
34.469599
 42
0.034230
  0
VERTEX
  8
0
 10
1095.776832
 20
31.817629
 42
0.073868
  0
VERTEX
  8
0
 10
1099.135627
 20
30.469475
 42
0.060240
  0
VERTEX
  8
0
 10
1100.571622
 20
30.305213
 42
0.097482
  0
VERTEX
  8
0
 10
1101.772395
 20
30.549608
 42
0.078401
  0
VERTEX
  8
0
 10
1102.964627
 20
31.283230
 42
0.027942
  0
VERTEX
  8
0
 10
1104.412447
 20
32.670298
 42
0.078906
  0
VERTEX
  8
0
 10
1106.610409
 20
35.928503
 42
0.025432
  0
VERTEX
  8
0
 10
1108.805752
 20
41.344077
 42
0.026017
  0
VERTEX
  8
0
 10
1110.475575
 20
47.102070
 42
0.057623
  0
VERTEX
  8
0
 10
1111.000000
 20
51.637454
 42
0.088740
  0
VERTEX
  8
0
 10
1110.012051
 20
57.160168
 42
0.066343
  0
VERTEX
  8
0
 10
1107.115272
 20
62.636831
 42
0.055149
  0
VERTEX
  8
0
 10
1102.299071
 20
68.027209
 42
0.033708
  0
VERTEX
  8
0
 10
1095.574456
 20
73.289639
 42
0.021534
  0
VERTEX
  8
0
 10
1087.884645
 20
78.042103
 42
0.010923
  0
VERTEX
  8
0
 10
1077.837107
 20
83.384032
 42
0.006616
  0
VERTEX
  8
0
 10
1067.942828
 20
88.207280
 42
0.110534
  0
VERTEX
  8
0
 10
1064.400773
 20
89.000000
 42
0.029762
  0
VERTEX
  8
0
 10
1062.920771
 20
88.911826
 42
0.213020
  0
VERTEX
  8
0
 10
1062.320337
 20
88.552903
 42
0.192614
  0
VERTEX
  8
0
 10
1062.152399
 20
87.841069
 42
0.023928
  0
SEQEND
  0
POLYLINE
  8
0
 66
1
 70
1
  0
VERTEX
  8
0
 10
1038.514260
 20
56.023073
 42
0.188521
  0
VERTEX
  8
0
 10
1038.232666
 20
54.483516
 42
0.018207
  0
VERTEX
  8
0
 10
1039.108295
 20
50.712769
 42
0.023361
  0
VERTEX
  8
0
 10
1040.444526
 20
46.559846
 42
0.028441
  0
VERTEX
  8
0
 10
1042.090959
 20
42.821705
 42
0.048852
  0
VERTEX
  8
0
 10
1044.136751
 20
39.625564
 42
0.086415
  0
VERTEX
  8
0
 10
1046.460214
 20
37.540404
 42
0.088166
  0
VERTEX
  8
0
 10
1049.317526
 20
36.388817
 42
0.052672
  0
VERTEX
  8
0
 10
1052.972506
 20
36.014742
 42
0.040796
  0
VERTEX
  8
0
 10
1056.769575
 20
36.337519
 42
0.068551
  0
VERTEX
  8
0
 10
1059.818406
 20
37.291458
 42
0.090787
  0
VERTEX
  8
0
 10
1061.882847
 20
38.769029
 42
0.157560
  0
VERTEX
  8
0
 10
1062.802373
 20
40.643945
 42
0.216596
  0
VERTEX
  8
0
 10
1062.061821
 20
43.188733
 42
0.037389
  0
VERTEX
  8
0
 10
1058.425534
 20
46.831318
 42
0.036179
  0
VERTEX
  8
0
 10
1053.340276
 20
50.611146
 42
0.030320
  0
VERTEX
  8
0
 10
1047.461040
 20
53.870843
 42
0.005224
  0
VERTEX
  8
0
 10
1042.787250
 20
56.043703
 42
0.047199
  0
VERTEX
  8
0
 10
1040.657400
 20
56.774185
 42
0.138211
  0
VERTEX
  8
0
 10
1039.410222
 20
56.726010
 42
0.177823
  0
SEQEND
  0
POLYLINE
  8
0
 66
1
 70
1
  0
VERTEX
  8
0
 10
386.450000
 20
1063.105364
 42
-0.130038
  0
VERTEX
  8
0
 10
384.524448
 20
1062.061496
 42
-0.018292
  0
VERTEX
  8
0
 10
380.058505
 20
1061.148937
 42
-0.019653
  0
VERTEX
  8
0
 10
374.531728
 20
1060.450649
 42
-0.014874
  0
VERTEX
  8
0
 10
368.426378
 20
1060.104510
 42
0.014435
  0
VERTEX
  8
0
 10
364.629761
 20
1059.892602
 42
0.023503
  0
VERTEX
  8
0
 10
361.430569
 20
1059.469066
 42
0.027555
  0
VERTEX
  8
0
 10
358.719549
 20
1058.823661
 42
0.039409
  0
VERTEX
  8
0
 10
356.413631
 20
1057.935671
 42
0.036436
  0
VERTEX
  8
0
 10
353.896609
 20
1056.497176
 42
0.077274
  0
VERTEX
  8
0
 10
352.252407
 20
1054.976811
 42
0.058475
  0
VERTEX
  8
0
 10
350.885461
 20
1052.764437
 42
0.013969
  0
VERTEX
  8
0
 10
349.164508
 20
1048.790728
 42
-0.074704
  0
VERTEX
  8
0
 10
348.434486
 20
1047.544480
 42
-0.039063
  0
VERTEX
  8
0
 10
347.196372
 20
1046.234260
 42
-0.035686
  0
VERTEX
  8
0
 10
345.603624
 20
1044.987216
 42
-0.031864
  0
VERTEX
  8
0
 10
343.789996
 20
1043.926507
 42
0.020821
  0
VERTEX
  8
0
 10
339.418644
 20
1041.497759
 42
0.034579
  0
VERTEX
  8
0
 10
335.983571
 20
1039.056293
 42
0.040324
  0
VERTEX
  8
0
 10
333.655436
 20
1036.809425
 42
0.182630
  0
VERTEX
  8
0
 10
333.000000
 20
1035.074835
 42
0.047732
  0
VERTEX
  8
0
 10
333.092599
 20
1034.107064
 42
0.012320
  0
VERTEX
  8
0
 10
333.428171
 20
1032.573504
 42
0.012423
  0
VERTEX
  8
0
 10
333.899642
 20
1030.835583
 42
0.012359
  0
VERTEX
  8
0
 10
334.457605
 20
1029.120161
 42
-0.041258
  0
VERTEX
  8
0
 10
335.081545
 20
1026.743328
 42
-0.008232
  0
VERTEX
  8
0
 10
335.771564
 20
1022.406515
 42
-0.008656
  0
VERTEX
  8
0
 10
336.405995
 20
1017.316812
 42
-0.007971
  0
VERTEX
  8
0
 10
336.883807
 20
1012.066586
 42
0.013016
  0
VERTEX
  8
0
 10
338.021579
 20
1000.822679
 42
0.091004
  0
VERTEX
  8
0
 10
339.689025
 20
995.588189
 42
0.314139
  0
VERTEX
  8
0
 10
342.163377
 20
994.324615
 42
0.156342
  0
VERTEX
  8
0
 10
345.493909
 20
995.920245
 42
-0.024648
  0
VERTEX
  8
0
 10
348.203475
 20
998.238230
 42
-0.045259
  0
VERTEX
  8
0
 10
350.649745
 20
999.799059
 42
-0.054747
  0
VERTEX
  8
0
 10
352.975882
 20
1000.696155
 42
-0.064765
  0
VERTEX
  8
0
 10
355.311814
 20
1001.000000
 42
0.102862
  0
VERTEX
  8
0
 10
357.455120
 20
1001.445644
 42
0.137570
  0
VERTEX
  8
0
 10
358.987953
 20
1002.693902
 42
0.088888
  0
VERTEX
  8
0
 10
360.075385
 20
1005.024070
 42
0.025641
  0
VERTEX
  8
0
 10
360.899538
 20
1008.928019
 42
-0.007955
  0
VERTEX
  8
0
 10
361.247965
 20
1010.925565
 42
-0.011161
  0
VERTEX
  8
0
 10
361.626970
 20
1012.695753
 42
-0.007639
  0
VERTEX
  8
0
 10
361.996487
 20
1014.151890
 42
-0.131145
  0
VERTEX
  8
0
 10
362.240875
 20
1014.574209
 42
-0.171232
  0
VERTEX
  8
0
 10
363.025018
 20
1014.949348
 42
-0.030552
  0
VERTEX
  8
0
 10
364.672622
 20
1015.025132
 42
-0.016531
  0
VERTEX
  8
0
 10
367.461241
 20
1014.890673
 42
-0.002530
  0
VERTEX
  8
0
 10
373.000000
 20
1014.411503
 42
0.025792
  0
VERTEX
  8
0
 10
376.418938
 20
1014.275414
 42
0.010404
  0
VERTEX
  8
0
 10
381.089022
 20
1014.427694
 42
0.009852
  0
VERTEX
  8
0
 10
386.349065
 20
1014.812920
 42
0.009316
  0
VERTEX
  8
0
 10
391.689181
 20
1015.410502
 42
-0.006494
  0
VERTEX
  8
0
 10
397.995655
 20
1016.152282
 42
-0.018655
  0
VERTEX
  8
0
 10
402.393132
 20
1016.446426
 42
-0.026154
  0
VERTEX
  8
0
 10
405.828007
 20
1016.368055
 42
-0.034052
  0
VERTEX
  8
0
 10
408.940754
 20
1015.919286
 42
-0.068483
  0
VERTEX
  8
0
 10
413.572702
 20
1014.238911
 42
-0.145434
  0
VERTEX
  8
0
 10
416.275999
 20
1011.598611
 42
-0.171113
  0
VERTEX
  8
0
 10
416.852349
 20
1008.228908
 42
-0.102986
  0
VERTEX
  8
0
 10
415.351500
 20
1004.413705
 42
-0.077426
  0
VERTEX
  8
0
 10
413.349614
 20
1002.197278
 42
-0.052279
  0
VERTEX
  8
0
 10
410.489457
 20
1000.334784
 42
-0.031634
  0
VERTEX
  8
0
 10
406.068744
 20
998.416038
 42
-0.008001
  0
VERTEX
  8
0
 10
398.654253
 20
995.874319
 42
0.021147
  0
VERTEX
  8
0
 10
384.588634
 20
990.635525
 42
0.034065
  0
VERTEX
  8
0
 10
373.174628
 20
984.881630
 42
0.036831
  0
VERTEX
  8
0
 10
363.297410
 20
977.997921
 42
0.031056
  0
VERTEX
  8
0
 10
353.921775
 20
969.361501
 42
0.034736
  0
VERTEX
  8
0
 10
345.948417
 20
959.796241
 42
0.082045
  0
VERTEX
  8
0
 10
341.826154
 20
951.511701
 42
0.123047
  0
VERTEX
  8
0
 10
341.454389
 20
944.520522
 42
0.149514
  0
VERTEX
  8
0
 10
344.520559
 20
938.752168
 42
0.114523
  0
VERTEX
  8
0
 10
348.135772
 20
936.498954
 42
0.043521
  0
VERTEX
  8
0
 10
353.940658
 20
935.064191
 42
0.029171
  0
VERTEX
  8
0
 10
362.399378
 20
934.241144
 42
0.009668
  0
VERTEX
  8
0
 10
374.869646
 20
934.000000
 42
0.000000
  0
VERTEX
  8
0
 10
390.075467
 20
934.000000
 42
0.000000
  0
VERTEX
  8
0
 10
395.412532
 20
945.358536
 42
-0.018621
  0
VERTEX
  8
0
 10
399.474511
 20
953.228085
 42
-0.030801
  0
VERTEX
  8
0
 10
403.541316
 20
959.499220
 42
-0.033804
  0
VERTEX
  8
0
 10
407.251808
 20
963.864598
 42
-0.202379
  0
VERTEX
  8
0
 10
409.942048
 20
965.000000
 42
-0.099975
  0
VERTEX
  8
0
 10
410.753603
 20
964.836091
 42
-0.036138
  0
VERTEX
  8
0
 10
411.806919
 20
964.299953
 42
-0.034094
  0
VERTEX
  8
0
 10
412.907353
 20
963.528824
 42
-0.034318
  0
VERTEX
  8
0
 10
413.890216
 20
962.616860
 42
0.084574
  0
VERTEX
  8
0
 10
418.346716
 20
959.244028
 42
0.015877
  0
VERTEX
  8
0
 10
427.602194
 20
954.803203
 42
0.015661
  0
VERTEX
  8
0
 10
437.113090
 20
950.957028
 42
0.088473
  0
VERTEX
  8
0
 10
442.479353
 20
950.000000
 42
0.154134
  0
VERTEX
  8
0
 10
449.244189
 20
952.136126
 42
0.039659
  0
VERTEX
  8
0
 10
458.180670
 20
959.526726
 42
0.039445
  0
VERTEX
  8
0
 10
465.817172
 20
968.204265
 42
0.162104
  0
VERTEX
  8
0
 10
468.000000
 20
974.760162
 42
-0.102966
  0
VERTEX
  8
0
 10
468.366759
 20
976.522243
 42
-0.121211
  0
VERTEX
  8
0
 10
469.398126
 20
977.874266
 42
-0.105674
  0
VERTEX
  8
0
 10
471.066441
 20
978.716098
 42
-0.064277
  0
VERTEX
  8
0
 10
473.265741
 20
979.000000
 42
-0.065372
  0
VERTEX
  8
0
 10
476.021553
 20
978.638147
 42
-0.063929
  0
VERTEX
  8
0
 10
478.613051
 20
977.576528
 42
-0.039806
  0
VERTEX
  8
0
 10
481.733601
 20
975.459665
 42
-0.009771
  0
VERTEX
  8
0
 10
486.500000
 20
971.484196
 42
0.006516
  0
VERTEX
  8
0
 10
488.957296
 20
969.407387
 42
0.007285
  0
VERTEX
  8
0
 10
491.379126
 20
967.472567
 42
0.006773
  0
VERTEX
  8
0
 10
493.486137
 20
965.884200
 42
0.037969
  0
VERTEX
  8
0
 10
494.684259
 20
965.138846
 42
0.109837
  0
VERTEX
  8
0
 10
498.052779
 20
964.236198
 42
0.009692
  0
VERTEX
  8
0
 10
506.917374
 20
964.026643
 42
0.009465
  0
VERTEX
  8
0
 10
515.797436
 20
964.156985
 42
0.114950
  0
VERTEX
  8
0
 10
519.065741
 20
965.035184
 42
0.049404
  0
VERTEX
  8
0
 10
519.805632
 20
965.530716
 42
0.049790
  0
VERTEX
  8
0
 10
520.431812
 20
966.160604
 42
0.054524
  0
VERTEX
  8
0
 10
520.860452
 20
966.823477
 42
0.116794
  0
VERTEX
  8
0
 10
521.000000
 20
967.412739
 42
-0.172424
  0
VERTEX
  8
0
 10
521.549864
 20
968.959844
 42
-0.109075
  0
VERTEX
  8
0
 10
523.065901
 20
970.162225
 42
-0.060572
  0
VERTEX
  8
0
 10
525.794394
 20
971.103625
 42
-0.017641
  0
VERTEX
  8
0
 10
530.178524
 20
971.883122
 42
0.031549
  0
VERTEX
  8
0
 10
535.543918
 20
972.991754
 42
0.043737
  0
VERTEX
  8
0
 10
540.148006
 20
974.694610
 42
0.046761
  0
VERTEX
  8
0
 10
544.144200
 20
977.063653
 42
0.044940
  0
VERTEX
  8
0
 10
547.688666
 20
980.162371
 42
0.050995
  0
VERTEX
  8
0
 10
550.521245
 20
983.807027
 42
0.078749
  0
VERTEX
  8
0
 10
552.077575
 20
987.471753
 42
0.050992
  0
VERTEX
  8
0
 10
552.798015
 20
992.492229
 42
0.010889
  0
VERTEX
  8
0
 10
552.964378
 20
1001.315100
 42
0.023635
  0
VERTEX
  8
0
 10
552.324423
 20
1014.056558
 42
0.054760
  0
VERTEX
  8
0
 10
550.360572
 20
1023.414558
 42
0.069201
  0
VERTEX
  8
0
 10
546.795230
 20
1030.712286
 42
0.063911
  0
VERTEX
  8
0
 10
541.291807
 20
1036.983526
 42
0.031936
  0
VERTEX
  8
0
 10
537.051748
 20
1040.267570
 42
0.021658
  0
VERTEX
  8
0
 10
531.848284
 20
1043.471131
 42
0.021261
  0
VERTEX
  8
0
 10
526.239467
 20
1046.292252
 42
0.025927
  0
VERTEX
  8
0
 10
520.765308
 20
1048.426007
 42
0.054713
  0
VERTEX
  8
0
 10
514.641320
 20
1049.734571
 42
0.007339
  0
VERTEX
  8
0
 10
501.489304
 20
1050.875303
 42
0.007528
  0
VERTEX
  8
0
 10
484.460567
 20
1051.843301
 42
0.004083
  0
VERTEX
  8
0
 10
463.500000
 20
1052.547033
 42
-0.003249
  0
VERTEX
  8
0
 10
447.389447
 20
1053.061018
 42
-0.012240
  0
VERTEX
  8
0
 10
437.308073
 20
1053.695661
 42
-0.017750
  0
VERTEX
  8
0
 10
429.344100
 20
1054.678941
 42
-0.014970
  0
VERTEX
  8
0
 10
421.000000
 20
1056.268787
 42
0.006377
  0
VERTEX
  8
0
 10
417.906603
 20
1056.913458
 42
0.003040
  0
VERTEX
  8
0
 10
413.912500
 20
1057.667645
 42
0.003013
  0
VERTEX
  8
0
 10
409.728969
 20
1058.405271
 42
0.004279
  0
VERTEX
  8
0
 10
406.000000
 20
1059.006822
 42
-0.011870
  0
VERTEX
  8
0
 10
402.427964
 20
1059.638837
 42
-0.010368
  0
VERTEX
  8
0
 10
398.724084
 20
1060.465524
 42
-0.010481
  0
VERTEX
  8
0
 10
395.407189
 20
1061.352478
 42
-0.030244
  0
VERTEX
  8
0
 10
393.167095
 20
1062.151750
 42
0.006491
  0
VERTEX
  8
0
 10
389.916623
 20
1063.488671
 42
0.059119
  0
VERTEX
  8
0
 10
388.438648
 20
1063.880462
 42
0.136530
  0
VERTEX
  8
0
 10
387.435380
 20
1063.748935
 42
0.088645
  0
SEQEND
  0
POLYLINE
  8
0
 66
1
 70
1
  0
VERTEX
  8
0
 10
441.794020
 20
982.434610
 42
-0.152119
  0
VERTEX
  8
0
 10
441.504011
 20
980.627484
 42
-0.074981
  0
VERTEX
  8
0
 10
440.156348
 20
978.702263
 42
-0.082626
  0
VERTEX
  8
0
 10
438.441521
 20
977.410757
 42
-0.264471
  0
VERTEX
  8
0
 10
437.063013
 20
977.461056
 42
-0.190351
  0
VERTEX
  8
0
 10
436.262987
 20
978.533286
 42
-0.072856
  0
VERTEX
  8
0
 10
436.037380
 20
980.414344
 42
-0.069330
  0
VERTEX
  8
0
 10
436.368080
 20
982.406173
 42
-0.121196
  0
VERTEX
  8
0
 10
437.229187
 20
983.829187
 42
-0.116605
  0
VERTEX
  8
0
 10
438.593752
 20
984.671899
 42
-0.155633
  0
VERTEX
  8
0
 10
440.040861
 20
984.689683
 42
-0.160149
  0
VERTEX
  8
0
 10
441.201973
 20
983.871052
 42
-0.124714
  0
SEQEND
  0
POLYLINE
  8
0
 66
1
 70
1
  0
VERTEX
  8
0
 10
657.454545
 20
848.545455
 42
0.046014
  0
VERTEX
  8
0
 10
656.515146
 20
847.415182
 42
0.037190
  0
VERTEX
  8
0
 10
655.721023
 20
846.050852
 42
0.038507
  0
VERTEX
  8
0
 10
655.176081
 20
844.669695
 42
0.074846
  0
VERTEX
  8
0
 10
655.000000
 20
843.500000
 42
0.074846
  0
VERTEX
  8
0
 10
655.176081
 20
842.330305
 42
0.038507
  0
VERTEX
  8
0
 10
655.721023
 20
840.949148
 42
0.037190
  0
VERTEX
  8
0
 10
656.515146
 20
839.584818
 42
0.046014
  0
VERTEX
  8
0
 10
657.454545
 20
838.454545
 42
0.154488
  0
VERTEX
  8
0
 10
661.767401
 20
836.215556
 42
0.079691
  0
VERTEX
  8
0
 10
667.908134
 20
836.134218
 42
0.090134
  0
VERTEX
  8
0
 10
673.157916
 20
837.906531
 42
0.272841
  0
VERTEX
  8
0
 10
675.000000
 20
841.030981
 42
0.210636
  0
VERTEX
  8
0
 10
673.891832
 20
843.544804
 42
0.031341
  0
VERTEX
  8
0
 10
669.477225
 20
847.098194
 42
0.034391
  0
VERTEX
  8
0
 10
664.509534
 20
850.118784
 42
0.119960
  0
VERTEX
  8
0
 10
660.889446
 20
851.000000
 42
0.133914
  0
VERTEX
  8
0
 10
660.365150
 20
850.857014
 42
0.021994
  0
VERTEX
  8
0
 10
659.476047
 20
850.278977
 42
0.022843
  0
VERTEX
  8
0
 10
658.466173
 20
849.485245
 42
0.018400
  0
SEQEND
  0
POLYLINE
  8
0
 66
1
 70
1
  0
VERTEX
  8
0
 10
510.072580
 20
770.365141
 42
0.019641
  0
VERTEX
  8
0
 10
508.554823
 20
768.271381
 42
0.126081
  0
VERTEX
  8
0
 10
508.125556
 20
767.046668
 42
0.173882
  0
VERTEX
  8
0
 10
508.410514
 20
765.966962
 42
0.045791
  0
VERTEX
  8
0
 10
509.571429
 20
764.571429
 42
0.108130
  0
VERTEX
  8
0
 10
511.280878
 20
763.475785
 42
0.095024
  0
VERTEX
  8
0
 10
513.375093
 20
763.126910
 42
0.072471
  0
VERTEX
  8
0
 10
515.921852
 20
763.561699
 42
0.035277
  0
VERTEX
  8
0
 10
518.986925
 20
764.801252
 42
0.052548
  0
VERTEX
  8
0
 10
521.683031
 20
766.490929
 42
0.186666
  0
VERTEX
  8
0
 10
522.707661
 20
768.212413
 42
0.237335
  0
VERTEX
  8
0
 10
522.192992
 20
769.886583
 42
0.082499
  0
VERTEX
  8
0
 10
520.111846
 20
771.442162
 42
0.050370
  0
VERTEX
  8
0
 10
516.994977
 20
772.674787
 42
0.095996
  0
VERTEX
  8
0
 10
514.319826
 20
772.901467
 42
0.112242
  0
VERTEX
  8
0
 10
512.034151
 20
772.117493
 42
0.087802
  0
SEQEND
  0
POLYLINE
  8
0
 66
1
 70
1
  0
VERTEX
  8
0
 10
542.699778
 20
738.220752
 42
0.097590
  0
VERTEX
  8
0
 10
541.306623
 20
735.901881
 42
0.016185
  0
VERTEX
  8
0
 10
539.689498
 20
730.923374
 42
0.018516
  0
VERTEX
  8
0
 10
538.389065
 20
725.714930
 42
0.051958
  0
VERTEX
  8
0
 10
538.000000
 20
721.981031
 42
0.042935
  0
VERTEX
  8
0
 10
538.097035
 20
720.853098
 42
0.030147
  0
VERTEX
  8
0
 10
538.390096
 20
719.612160
 42
0.030556
  0
VERTEX
  8
0
 10
538.818832
 20
718.449490
 42
0.054302
  0
VERTEX
  8
0
 10
539.327986
 20
717.566130
 42
0.140816
  0
VERTEX
  8
0
 10
541.009182
 20
716.262336
 42
0.097064
  0
VERTEX
  8
0
 10
543.391672
 20
715.813224
 42
0.096174
  0
VERTEX
  8
0
 10
545.786802
 20
716.296149
 42
0.135051
  0
VERTEX
  8
0
 10
547.501849
 20
717.625000
 42
0.116358
  0
VERTEX
  8
0
 10
549.328804
 20
721.811863
 42
0.045857
  0
VERTEX
  8
0
 10
549.885815
 20
728.116199
 42
0.045633
  0
VERTEX
  8
0
 10
549.296707
 20
734.316494
 42
0.138279
  0
VERTEX
  8
0
 10
547.429758
 20
738.077616
 42
0.028765
  0
VERTEX
  8
0
 10
545.984617
 20
739.500730
 42
0.174219
  0
VERTEX
  8
0
 10
545.021873
 20
739.879945
 42
0.185216
  0
VERTEX
  8
0
 10
544.072147
 20
739.548229
 42
0.033242
  0
SEQEND
  0
POLYLINE
  8
0
 66
1
 70
1
  0
VERTEX
  8
0
 10
479.109598
 20
677.117325
 42
0.073649
  0
VERTEX
  8
0
 10
476.665137
 20
673.577238
 42
0.051739
  0
VERTEX
  8
0
 10
474.984468
 20
669.028320
 42
0.040330
  0
VERTEX
  8
0
 10
473.979431
 20
663.170207
 42
0.019637
  0
VERTEX
  8
0
 10
473.599710
 20
655.585981
 42
0.015957
  0
VERTEX
  8
0
 10
473.741417
 20
648.887989
 42
0.089208
  0
VERTEX
  8
0
 10
474.559868
 20
645.408310
 42
0.179328
  0
VERTEX
  8
0
 10
476.248506
 20
643.645249
 42
0.113502
  0
VERTEX
  8
0
 10
479.054351
 20
643.000000
 42
0.193369
  0
VERTEX
  8
0
 10
482.619664
 20
644.432404
 42
0.094594
  0
VERTEX
  8
0
 10
485.505179
 20
648.490347
 42
0.062496
  0
VERTEX
  8
0
 10
487.573247
 20
655.066968
 42
0.028703
  0
VERTEX
  8
0
 10
488.672585
 20
664.000000
 42
0.017302
  0
VERTEX
  8
0
 10
488.894448
 20
671.282066
 42
0.061164
  0
VERTEX
  8
0
 10
488.306089
 20
675.914980
 42
0.115169
  0
VERTEX
  8
0
 10
486.904805
 20
678.620968
 42
0.188928
  0
VERTEX
  8
0
 10
484.658506
 20
679.819675
 42
0.067097
  0
VERTEX
  8
0
 10
483.224970
 20
679.794937
 42
0.075631
  0
VERTEX
  8
0
 10
481.910682
 20
679.385177
 42
0.062168
  0
VERTEX
  8
0
 10
480.586977
 20
678.522887
 42
0.029480
  0
SEQEND
  0
POLYLINE
  8
0
 66
1
 70
1
  0
VERTEX
  8
0
 10
334.231416
 20
672.677765
 42
0.064931
  0
VERTEX
  8
0
 10
331.169161
 20
668.282918
 42
0.045966
  0
VERTEX
  8
0
 10
328.896950
 20
662.707928
 42
0.041319
  0
VERTEX
  8
0
 10
327.487875
 20
656.178938
 42
0.032145
  0
VERTEX
  8
0
 10
327.010824
 20
648.928139
 42
0.029717
  0
VERTEX
  8
0
 10
327.379322
 20
642.580420
 42
0.046109
  0
VERTEX
  8
0
 10
328.519900
 20
637.217503
 42
0.053947
  0
VERTEX
  8
0
 10
330.423031
 20
632.832777
 42
0.072508
  0
VERTEX
  8
0
 10
333.081291
 20
629.422118
 42
0.233590
  0
VERTEX
  8
0
 10
337.025803
 20
628.180155
 42
0.273174
  0
VERTEX
  8
0
 10
340.018936
 20
630.636712
 42
0.077891
  0
VERTEX
  8
0
 10
341.608188
 20
638.694304
 42
0.016658
  0
VERTEX
  8
0
 10
341.693376
 20
653.000000
 42
0.013481
  0
VERTEX
  8
0
 10
341.024638
 20
665.299214
 42
0.070410
  0
VERTEX
  8
0
 10
339.535474
 20
671.900696
 42
0.276065
  0
VERTEX
  8
0
 10
337.187426
 20
673.759533
 42
0.245637
  0
SEQEND
  0
POLYLINE
  8
0
 66
1
 70
1
  0
VERTEX
  8
0
 10
441.202478
 20
665.016818
 42
0.077520
  0
VERTEX
  8
0
 10
435.951481
 20
661.719737
 42
0.044191
  0
VERTEX
  8
0
 10
430.738878
 20
656.312382
 42
0.033395
  0
VERTEX
  8
0
 10
425.243649
 20
648.482837
 42
0.015217
  0
VERTEX
  8
0
 10
419.085579
 20
637.596034
 42
0.019099
  0
VERTEX
  8
0
 10
414.362476
 20
627.721620
 42
0.049826
  0
VERTEX
  8
0
 10
411.976120
 20
620.230391
 42
0.042577
  0
VERTEX
  8
0
 10
410.923061
 20
611.762128
 42
0.011015
  0
VERTEX
  8
0
 10
410.694763
 20
598.000000
 42
0.006091
  0
VERTEX
  8
0
 10
410.910629
 20
585.751732
 42
0.032154
  0
VERTEX
  8
0
 10
411.541496
 20
579.066618
 42
0.063064
  0
VERTEX
  8
0
 10
412.736622
 20
574.977311
 42
0.128395
  0
VERTEX
  8
0
 10
414.789315
 20
572.363298
 42
0.155355
  0
VERTEX
  8
0
 10
418.585986
 20
571.014013
 42
0.070661
  0
VERTEX
  8
0
 10
423.882109
 20
571.587523
 42
0.069862
  0
VERTEX
  8
0
 10
428.888323
 20
573.636313
 42
0.139170
  0
VERTEX
  8
0
 10
431.833669
 20
576.696489
 42
0.076525
  0
VERTEX
  8
0
 10
433.950871
 20
582.740049
 42
0.006597
  0
VERTEX
  8
0
 10
436.741764
 20
598.900092
 42
0.009461
  0
VERTEX
  8
0
 10
439.198946
 20
616.476393
 42
0.013636
  0
VERTEX
  8
0
 10
440.652527
 20
632.110273
 42
-0.009716
  0
VERTEX
  8
0
 10
441.003709
 20
636.238150
 42
-0.015941
  0
VERTEX
  8
0
 10
441.479830
 20
639.712737
 42
-0.014062
  0
VERTEX
  8
0
 10
442.019588
 20
642.428653
 42
-0.141200
  0
VERTEX
  8
0
 10
442.573070
 20
643.430212
 42
-0.097590
  0
VERTEX
  8
0
 10
443.416817
 20
643.996168
 42
-0.015768
  0
VERTEX
  8
0
 10
445.273409
 20
644.705054
 42
-0.016892
  0
VERTEX
  8
0
 10
447.543526
 20
645.405850
 42
-0.014133
  0
VERTEX
  8
0
 10
449.994434
 20
645.998819
 42
0.039701
  0
VERTEX
  8
0
 10
454.486499
 20
647.331844
 42
0.111962
  0
VERTEX
  8
0
 10
457.189852
 20
649.145144
 42
0.108000
  0
VERTEX
  8
0
 10
458.901821
 20
651.989493
 42
0.035502
  0
VERTEX
  8
0
 10
460.144259
 20
656.742783
 42
0.063472
  0
VERTEX
  8
0
 10
460.384784
 20
660.891101
 42
0.193820
  0
VERTEX
  8
0
 10
459.176922
 20
663.380428
 42
0.139985
  0
VERTEX
  8
0
 10
456.243059
 20
664.826670
 42
0.028428
  0
VERTEX
  8
0
 10
450.429051
 20
665.545344
 42
0.014801
  0
VERTEX
  8
0
 10
447.607815
 20
665.648499
 42
0.016044
  0
VERTEX
  8
0
 10
444.860512
 20
665.579428
 42
0.015709
  0
VERTEX
  8
0
 10
442.519366
 20
665.371372
 42
0.071596
  0
SEQEND
  0
ENDSEC
  0
EOF
